  0
SECTION
  2
HEADER
  9
$ANGBASE
  50
0.0
  9
$ANGDIR
  70
1
  9
$MEASUREMENT
  70
0
  0
ENDSEC
  0
SECTION
  2
TABLES
  0
TABLE
  2
LTYPE
  70
4
  0
LTYPE
  5
40F
  2
CONTINUOUS
  70
0
  3
Solid line
  72
65
  73
0
  40
0.0
  0
LTYPE
  5
410
  2
DASHDOT
 70
0
  3
Dash Dot ____ _ ____ _
 72
65
 73
4
 40
2.0
 49
1.25
 49
-0.25
 49
0.25
 49
-0.25
  0
LTYPE
  5
411
  2
DASHED
 70
0
  3
Dashed __ __ __ __ __
 72
65
 73
2
 40
0.75
 49
0.5
 49
-0.25
  0
LTYPE
  5
43B
  2
DOTTED
 70
0
  3
Dotted .  .  .  .
 72
65
 73
2
 40
0.2
 49
0.0
 49
-0.2
  0
ENDTAB
  0
TABLE
  2
STYLE
  70
4
  0
STYLE
  2
KICAD
  70
0
  40
0
  41
1
  42
1
  50
0
  71
0
  3
isocp.shx
  0
STYLE
  2
KICADB
  70
0
  40
0
  41
1
  42
1
  50
0
  71
0
  3
isocp.shx
  0
STYLE
  2
KICADI
  70
0
  40
0
  41
1
  42
1
  50
15
  71
0
  3
isocp.shx
  0
STYLE
  2
KICADBI
  70
0
  40
0
  41
1
  42
1
  50
15
  71
0
  3
isocp.shx
  0
ENDTAB
  0
TABLE
  2
LAYER
  70
1
  0
LAYER
  2
BLACK
  70
0
  62
7
  6
CONTINUOUS
  0
ENDTAB
  0
ENDSEC
  0
SECTION
  2
ENTITIES
0
LINE
8
BLACK
6
CONTINUOUS
10
1.9744094488188977
20
-1.2964566929133858
11
8.0403543307086611
21
-1.2964566929133858
0
LINE
8
BLACK
6
CONTINUOUS
10
8.0403543307086611
20
-1.2964566929133858
11
8.0403543307086611
21
-6.1596456692913382
0
LINE
8
BLACK
6
CONTINUOUS
10
8.0403543307086611
20
-6.1596456692913382
11
1.9744094488188977
21
-6.1596456692913382
0
LINE
8
BLACK
6
CONTINUOUS
10
1.9744094488188977
20
-6.1596456692913382
11
1.9744094488188977
21
-1.2964566929133858
0
LINE
8
BLACK
6
CONTINUOUS
10
2.3617125984251968
20
-4.8173228346456689
11
2.4798228346456694
21
-4.935433070866142
0
LINE
8
BLACK
6
CONTINUOUS
10
2.4798228346456694
20
-4.8173228346456689
11
2.3617125984251968
21
-4.935433070866142
0
LINE
8
BLACK
6
CONTINUOUS
10
2.3617125984251968
20
-5.2673228346456691
11
2.4798228346456694
21
-5.3854330708661413
0
LINE
8
BLACK
6
CONTINUOUS
10
2.4798228346456694
20
-5.2673228346456691
11
2.3617125984251968
21
-5.3854330708661413
0
CIRCLE
8
BLACK
10
2.1555118110236222
20
-1.5059055118110236
40
0.062992125984252
0
CIRCLE
8
BLACK
10
2.1555118110236222
20
-5.9350393700787398
40
0.062992125984252
0
CIRCLE
8
BLACK
10
7.8395669291338583
20
-1.5059055118110236
40
0.062992125984252
0
CIRCLE
8
BLACK
10
7.8395669291338583
20
-5.9350393700787398
40
0.062992125984252
0
LINE
8
BLACK
6
CONTINUOUS
10
2.0751089763779529
20
-6.2842455905511807
11
2.0751089763779529
21
-6.2055054330708659
0
LINE
8
BLACK
6
CONTINUOUS
10
2.0751089763779529
20
-6.2055054330708659
11
2.0938566141732284
21
-6.2055054330708659
0
LINE
8
BLACK
6
CONTINUOUS
10
2.0938566141732284
20
-6.2055054330708659
11
2.1051052362204725
21
-6.209254960629921
0
LINE
8
BLACK
6
CONTINUOUS
10
2.1051052362204725
20
-6.209254960629921
11
2.1126042913385827
21
-6.2167540157480312
0
LINE
8
BLACK
6
CONTINUOUS
10
2.1126042913385827
20
-6.2167540157480312
11
2.1163538188976379
21
-6.2242530708661414
0
LINE
8
BLACK
6
CONTINUOUS
10
2.1163538188976379
20
-6.2242530708661414
11
2.120103346456693
21
-6.2392511811023619
0
LINE
8
BLACK
6
CONTINUOUS
10
2.120103346456693
20
-6.2392511811023619
11
2.120103346456693
21
-6.250499803149606
0
LINE
8
BLACK
6
CONTINUOUS
10
2.120103346456693
20
-6.250499803149606
11
2.1163538188976379
21
-6.2654979133858264
0
LINE
8
BLACK
6
CONTINUOUS
10
2.1163538188976379
20
-6.2654979133858264
11
2.1126042913385827
21
-6.2729969685039366
0
LINE
8
BLACK
6
CONTINUOUS
10
2.1126042913385827
20
-6.2729969685039366
11
2.1051052362204725
21
-6.2804960629921256
0
LINE
8
BLACK
6
CONTINUOUS
10
2.1051052362204725
20
-6.2804960629921256
11
2.0938566141732284
21
-6.2842455905511807
0
LINE
8
BLACK
6
CONTINUOUS
10
2.0938566141732284
20
-6.2842455905511807
11
2.0751089763779529
21
-6.2842455905511807
0
LINE
8
BLACK
6
CONTINUOUS
10
2.1538491338582677
20
-6.2842455905511807
11
2.1538491338582677
21
-6.2317521259842517
0
LINE
8
BLACK
6
CONTINUOUS
10
2.1538491338582677
20
-6.2467502755905508
11
2.1575986614173228
21
-6.2392511811023619
0
LINE
8
BLACK
6
CONTINUOUS
10
2.1575986614173228
20
-6.2392511811023619
11
2.1613481889763779
21
-6.2355016535433068
0
LINE
8
BLACK
6
CONTINUOUS
10
2.1613481889763779
20
-6.2355016535433068
11
2.1688472440944881
21
-6.2317521259842517
0
LINE
8
BLACK
6
CONTINUOUS
10
2.1688472440944881
20
-6.2317521259842517
11
2.1763463385826771
21
-6.2317521259842517
0
LINE
8
BLACK
6
CONTINUOUS
10
2.2025930314960629
20
-6.2842455905511807
11
2.2025930314960629
21
-6.2317521259842517
0
LINE
8
BLACK
6
CONTINUOUS
10
2.2025930314960629
20
-6.2055054330708659
11
2.1988435039370078
21
-6.209254960629921
0
LINE
8
BLACK
6
CONTINUOUS
10
2.1988435039370078
20
-6.209254960629921
11
2.2025930314960629
21
-6.2130044881889761
0
LINE
8
BLACK
6
CONTINUOUS
10
2.2025930314960629
20
-6.2130044881889761
11
2.206342559055118
21
-6.209254960629921
0
LINE
8
BLACK
6
CONTINUOUS
10
2.206342559055118
20
-6.209254960629921
11
2.2025930314960629
21
-6.2055054330708659
0
LINE
8
BLACK
6
CONTINUOUS
10
2.2025930314960629
20
-6.2055054330708659
11
2.2025930314960629
21
-6.2130044881889761
0
LINE
8
BLACK
6
CONTINUOUS
10
2.2513369291338581
20
-6.2842455905511807
11
2.2438378740157479
21
-6.2804960629921256
0
LINE
8
BLACK
6
CONTINUOUS
10
2.2438378740157479
20
-6.2804960629921256
11
2.2400883464566927
21
-6.2729969685039366
0
LINE
8
BLACK
6
CONTINUOUS
10
2.2400883464566927
20
-6.2729969685039366
11
2.2400883464566927
21
-6.2055054330708659
0
LINE
8
BLACK
6
CONTINUOUS
10
2.292581771653543
20
-6.2842455905511807
11
2.2850827165354328
21
-6.2804960629921256
0
LINE
8
BLACK
6
CONTINUOUS
10
2.2850827165354328
20
-6.2804960629921256
11
2.2813331889763777
21
-6.2729969685039366
0
LINE
8
BLACK
6
CONTINUOUS
10
2.2813331889763777
20
-6.2729969685039366
11
2.2813331889763777
21
-6.2055054330708659
0
LINE
8
BLACK
6
CONTINUOUS
10
2.3825705511811024
20
-6.2842455905511807
11
2.3825705511811024
21
-6.2055054330708659
0
LINE
8
BLACK
6
CONTINUOUS
10
2.3825705511811024
20
-6.2055054330708659
11
2.4088172834645669
21
-6.2617483858267713
0
LINE
8
BLACK
6
CONTINUOUS
10
2.4088172834645669
20
-6.2617483858267713
11
2.4350639763779527
21
-6.2055054330708659
0
LINE
8
BLACK
6
CONTINUOUS
10
2.4350639763779527
20
-6.2055054330708659
11
2.4350639763779527
21
-6.2842455905511807
0
LINE
8
BLACK
6
CONTINUOUS
10
2.5063050787401573
20
-6.2842455905511807
11
2.5063050787401573
21
-6.2430007480314957
0
LINE
8
BLACK
6
CONTINUOUS
10
2.5063050787401573
20
-6.2430007480314957
11
2.5025555511811022
21
-6.2355016535433068
0
LINE
8
BLACK
6
CONTINUOUS
10
2.5025555511811022
20
-6.2355016535433068
11
2.495056496062992
21
-6.2317521259842517
0
LINE
8
BLACK
6
CONTINUOUS
10
2.495056496062992
20
-6.2317521259842517
11
2.4800583464566928
21
-6.2317521259842517
0
LINE
8
BLACK
6
CONTINUOUS
10
2.4800583464566928
20
-6.2317521259842517
11
2.4725592913385825
21
-6.2355016535433068
0
LINE
8
BLACK
6
CONTINUOUS
10
2.5063050787401573
20
-6.2804960629921256
11
2.4988060236220471
21
-6.2842455905511807
0
LINE
8
BLACK
6
CONTINUOUS
10
2.4988060236220471
20
-6.2842455905511807
11
2.4800583464566928
21
-6.2842455905511807
0
LINE
8
BLACK
6
CONTINUOUS
10
2.4800583464566928
20
-6.2842455905511807
11
2.4725592913385825
21
-6.2804960629921256
0
LINE
8
BLACK
6
CONTINUOUS
10
2.4725592913385825
20
-6.2804960629921256
11
2.4688097637795274
21
-6.2729969685039366
0
LINE
8
BLACK
6
CONTINUOUS
10
2.4688097637795274
20
-6.2729969685039366
11
2.4688097637795274
21
-6.2654979133858264
0
LINE
8
BLACK
6
CONTINUOUS
10
2.4688097637795274
20
-6.2654979133858264
11
2.4725592913385825
21
-6.2579988582677162
0
LINE
8
BLACK
6
CONTINUOUS
10
2.4725592913385825
20
-6.2579988582677162
11
2.4800583464566928
21
-6.2542493307086611
0
LINE
8
BLACK
6
CONTINUOUS
10
2.4800583464566928
20
-6.2542493307086611
11
2.4988060236220471
21
-6.2542493307086611
0
LINE
8
BLACK
6
CONTINUOUS
10
2.4988060236220471
20
-6.2542493307086611
11
2.5063050787401573
21
-6.250499803149606
0
LINE
8
BLACK
6
CONTINUOUS
10
2.5438003937007871
20
-6.2317521259842517
11
2.5438003937007871
21
-6.3104922834645665
0
LINE
8
BLACK
6
CONTINUOUS
10
2.5438003937007871
20
-6.2355016535433068
11
2.5512994488188974
21
-6.2317521259842517
0
LINE
8
BLACK
6
CONTINUOUS
10
2.5512994488188974
20
-6.2317521259842517
11
2.566297598425197
21
-6.2317521259842517
0
LINE
8
BLACK
6
CONTINUOUS
10
2.566297598425197
20
-6.2317521259842517
11
2.5737966535433072
21
-6.2355016535433068
0
LINE
8
BLACK
6
CONTINUOUS
10
2.5737966535433072
20
-6.2355016535433068
11
2.5775461811023623
21
-6.2392511811023619
0
LINE
8
BLACK
6
CONTINUOUS
10
2.5775461811023623
20
-6.2392511811023619
11
2.5812957086614174
21
-6.2467502755905508
0
LINE
8
BLACK
6
CONTINUOUS
10
2.5812957086614174
20
-6.2467502755905508
11
2.5812957086614174
21
-6.2692474409448815
0
LINE
8
BLACK
6
CONTINUOUS
10
2.5812957086614174
20
-6.2692474409448815
11
2.5775461811023623
21
-6.2767464960629917
0
LINE
8
BLACK
6
CONTINUOUS
10
2.5775461811023623
20
-6.2767464960629917
11
2.5737966535433072
21
-6.2804960629921256
0
LINE
8
BLACK
6
CONTINUOUS
10
2.5737966535433072
20
-6.2804960629921256
11
2.566297598425197
21
-6.2842455905511807
0
LINE
8
BLACK
6
CONTINUOUS
10
2.566297598425197
20
-6.2842455905511807
11
2.5512994488188974
21
-6.2842455905511807
0
LINE
8
BLACK
6
CONTINUOUS
10
2.5512994488188974
20
-6.2842455905511807
11
2.5438003937007871
21
-6.2804960629921256
0
LINE
8
BLACK
6
CONTINUOUS
10
2.6150414960629922
20
-6.2767464960629917
11
2.6187910236220473
21
-6.2804960629921256
0
LINE
8
BLACK
6
CONTINUOUS
10
2.6187910236220473
20
-6.2804960629921256
11
2.6150414960629922
21
-6.2842455905511807
0
LINE
8
BLACK
6
CONTINUOUS
10
2.6150414960629922
20
-6.2842455905511807
11
2.6112919685039371
21
-6.2804960629921256
0
LINE
8
BLACK
6
CONTINUOUS
10
2.6112919685039371
20
-6.2804960629921256
11
2.6150414960629922
21
-6.2767464960629917
0
LINE
8
BLACK
6
CONTINUOUS
10
2.6150414960629922
20
-6.2767464960629917
11
2.6150414960629922
21
-6.2842455905511807
0
LINE
8
BLACK
6
CONTINUOUS
10
2.6150414960629922
20
-6.2355016535433068
11
2.6187910236220473
21
-6.2392511811023619
0
LINE
8
BLACK
6
CONTINUOUS
10
2.6187910236220473
20
-6.2392511811023619
11
2.6150414960629922
21
-6.2430007480314957
0
LINE
8
BLACK
6
CONTINUOUS
10
2.6150414960629922
20
-6.2430007480314957
11
2.6112919685039371
21
-6.2392511811023619
0
LINE
8
BLACK
6
CONTINUOUS
10
2.6112919685039371
20
-6.2392511811023619
11
2.6150414960629922
21
-6.2355016535433068
0
LINE
8
BLACK
6
CONTINUOUS
10
2.6150414960629922
20
-6.2355016535433068
11
2.6150414960629922
21
-6.2430007480314957
0
LINE
8
BLACK
6
CONTINUOUS
10
1.8937007874015748
20
-6.3742125984251965
11
1.9724409448818898
21
-6.4529527559055113
0
LINE
8
BLACK
6
CONTINUOUS
10
1.9724409448818898
20
-6.3742125984251965
11
1.8937007874015748
21
-6.4529527559055113
0
LINE
8
BLACK
6
CONTINUOUS
10
2.0676099212598427
20
-6.370859763779527
11
2.1163538188976379
21
-6.370859763779527
0
LINE
8
BLACK
6
CONTINUOUS
10
2.1163538188976379
20
-6.370859763779527
11
2.0901070866141733
21
-6.4008559842519688
0
LINE
8
BLACK
6
CONTINUOUS
10
2.0901070866141733
20
-6.4008559842519688
11
2.1013557086614174
21
-6.4008559842519688
0
LINE
8
BLACK
6
CONTINUOUS
10
2.1013557086614174
20
-6.4008559842519688
11
2.1088547637795276
21
-6.4046055118110239
0
LINE
8
BLACK
6
CONTINUOUS
10
2.1088547637795276
20
-6.4046055118110239
11
2.1126042913385827
21
-6.4083550787401578
0
LINE
8
BLACK
6
CONTINUOUS
10
2.1126042913385827
20
-6.4083550787401578
11
2.1163538188976379
21
-6.415854133858268
0
LINE
8
BLACK
6
CONTINUOUS
10
2.1163538188976379
20
-6.415854133858268
11
2.1163538188976379
21
-6.4346017716535435
0
LINE
8
BLACK
6
CONTINUOUS
10
2.1163538188976379
20
-6.4346017716535435
11
2.1126042913385827
21
-6.4421008267716537
0
LINE
8
BLACK
6
CONTINUOUS
10
2.1126042913385827
20
-6.4421008267716537
11
2.1088547637795276
21
-6.4458503937007876
0
LINE
8
BLACK
6
CONTINUOUS
10
2.1088547637795276
20
-6.4458503937007876
11
2.1013557086614174
21
-6.4495999212598427
0
LINE
8
BLACK
6
CONTINUOUS
10
2.1013557086614174
20
-6.4495999212598427
11
2.078858503937008
21
-6.4495999212598427
0
LINE
8
BLACK
6
CONTINUOUS
10
2.078858503937008
20
-6.4495999212598427
11
2.0713594488188978
21
-6.4458503937007876
0
LINE
8
BLACK
6
CONTINUOUS
10
2.0713594488188978
20
-6.4458503937007876
11
2.0676099212598427
21
-6.4421008267716537
0
LINE
8
BLACK
6
CONTINUOUS
10
2.1500996062992126
20
-6.4421008267716537
11
2.1538491338582677
21
-6.4458503937007876
0
LINE
8
BLACK
6
CONTINUOUS
10
2.1538491338582677
20
-6.4458503937007876
11
2.1500996062992126
21
-6.4495999212598427
0
LINE
8
BLACK
6
CONTINUOUS
10
2.1500996062992126
20
-6.4495999212598427
11
2.1463500787401575
21
-6.4458503937007876
0
LINE
8
BLACK
6
CONTINUOUS
10
2.1463500787401575
20
-6.4458503937007876
11
2.1500996062992126
21
-6.4421008267716537
0
LINE
8
BLACK
6
CONTINUOUS
10
2.1500996062992126
20
-6.4421008267716537
11
2.1500996062992126
21
-6.4495999212598427
0
LINE
8
BLACK
6
CONTINUOUS
10
2.2025930314960629
20
-6.370859763779527
11
2.2100921259842519
21
-6.370859763779527
0
LINE
8
BLACK
6
CONTINUOUS
10
2.2100921259842519
20
-6.370859763779527
11
2.2175911811023621
21
-6.3746092913385821
0
LINE
8
BLACK
6
CONTINUOUS
10
2.2175911811023621
20
-6.3746092913385821
11
2.2213407086614172
21
-6.3783588188976372
0
LINE
8
BLACK
6
CONTINUOUS
10
2.2213407086614172
20
-6.3783588188976372
11
2.2250902362204723
21
-6.3858578740157474
0
LINE
8
BLACK
6
CONTINUOUS
10
2.2250902362204723
20
-6.3858578740157474
11
2.2288397637795274
21
-6.4008559842519688
0
LINE
8
BLACK
6
CONTINUOUS
10
2.2288397637795274
20
-6.4008559842519688
11
2.2288397637795274
21
-6.4196036614173231
0
LINE
8
BLACK
6
CONTINUOUS
10
2.2288397637795274
20
-6.4196036614173231
11
2.2250902362204723
21
-6.4346017716535435
0
LINE
8
BLACK
6
CONTINUOUS
10
2.2250902362204723
20
-6.4346017716535435
11
2.2213407086614172
21
-6.4421008267716537
0
LINE
8
BLACK
6
CONTINUOUS
10
2.2213407086614172
20
-6.4421008267716537
11
2.2175911811023621
21
-6.4458503937007876
0
LINE
8
BLACK
6
CONTINUOUS
10
2.2175911811023621
20
-6.4458503937007876
11
2.2100921259842519
21
-6.4495999212598427
0
LINE
8
BLACK
6
CONTINUOUS
10
2.2100921259842519
20
-6.4495999212598427
11
2.2025930314960629
21
-6.4495999212598427
0
LINE
8
BLACK
6
CONTINUOUS
10
2.2025930314960629
20
-6.4495999212598427
11
2.1950939763779527
21
-6.4458503937007876
0
LINE
8
BLACK
6
CONTINUOUS
10
2.1950939763779527
20
-6.4458503937007876
11
2.1913444488188976
21
-6.4421008267716537
0
LINE
8
BLACK
6
CONTINUOUS
10
2.1913444488188976
20
-6.4421008267716537
11
2.1875949212598425
21
-6.4346017716535435
0
LINE
8
BLACK
6
CONTINUOUS
10
2.1875949212598425
20
-6.4346017716535435
11
2.1838453937007873
21
-6.4196036614173231
0
LINE
8
BLACK
6
CONTINUOUS
10
2.1838453937007873
20
-6.4196036614173231
11
2.1838453937007873
21
-6.4008559842519688
0
LINE
8
BLACK
6
CONTINUOUS
10
2.1838453937007873
20
-6.4008559842519688
11
2.1875949212598425
21
-6.3858578740157474
0
LINE
8
BLACK
6
CONTINUOUS
10
2.1875949212598425
20
-6.3858578740157474
11
2.1913444488188976
21
-6.3783588188976372
0
LINE
8
BLACK
6
CONTINUOUS
10
2.1913444488188976
20
-6.3783588188976372
11
2.1950939763779527
21
-6.3746092913385821
0
LINE
8
BLACK
6
CONTINUOUS
10
2.1950939763779527
20
-6.3746092913385821
11
2.2025930314960629
21
-6.370859763779527
0
LINE
8
BLACK
6
CONTINUOUS
10
2.2775836614173226
20
-6.370859763779527
11
2.2850827559055116
21
-6.370859763779527
0
LINE
8
BLACK
6
CONTINUOUS
10
2.2850827559055116
20
-6.370859763779527
11
2.2925818110236218
21
-6.3746092913385821
0
LINE
8
BLACK
6
CONTINUOUS
10
2.2925818110236218
20
-6.3746092913385821
11
2.2963313385826769
21
-6.3783588188976372
0
LINE
8
BLACK
6
CONTINUOUS
10
2.2963313385826769
20
-6.3783588188976372
11
2.300080866141732
21
-6.3858578740157474
0
LINE
8
BLACK
6
CONTINUOUS
10
2.300080866141732
20
-6.3858578740157474
11
2.3038303937007876
21
-6.4008559842519688
0
LINE
8
BLACK
6
CONTINUOUS
10
2.3038303937007876
20
-6.4008559842519688
11
2.3038303937007876
21
-6.4196036614173231
0
LINE
8
BLACK
6
CONTINUOUS
10
2.3038303937007876
20
-6.4196036614173231
11
2.300080866141732
21
-6.4346017716535435
0
LINE
8
BLACK
6
CONTINUOUS
10
2.300080866141732
20
-6.4346017716535435
11
2.2963313385826769
21
-6.4421008267716537
0
LINE
8
BLACK
6
CONTINUOUS
10
2.2963313385826769
20
-6.4421008267716537
11
2.2925818110236218
21
-6.4458503937007876
0
LINE
8
BLACK
6
CONTINUOUS
10
2.2925818110236218
20
-6.4458503937007876
11
2.2850827559055116
21
-6.4495999212598427
0
LINE
8
BLACK
6
CONTINUOUS
10
2.2850827559055116
20
-6.4495999212598427
11
2.2775836614173226
21
-6.4495999212598427
0
LINE
8
BLACK
6
CONTINUOUS
10
2.2775836614173226
20
-6.4495999212598427
11
2.2700846062992124
21
-6.4458503937007876
0
LINE
8
BLACK
6
CONTINUOUS
10
2.2700846062992124
20
-6.4458503937007876
11
2.2663350787401573
21
-6.4421008267716537
0
LINE
8
BLACK
6
CONTINUOUS
10
2.2663350787401573
20
-6.4421008267716537
11
2.2625855511811022
21
-6.4346017716535435
0
LINE
8
BLACK
6
CONTINUOUS
10
2.2625855511811022
20
-6.4346017716535435
11
2.2588360236220471
21
-6.4196036614173231
0
LINE
8
BLACK
6
CONTINUOUS
10
2.2588360236220471
20
-6.4196036614173231
11
2.2588360236220471
21
-6.4008559842519688
0
LINE
8
BLACK
6
CONTINUOUS
10
2.2588360236220471
20
-6.4008559842519688
11
2.2625855511811022
21
-6.3858578740157474
0
LINE
8
BLACK
6
CONTINUOUS
10
2.2625855511811022
20
-6.3858578740157474
11
2.2663350787401573
21
-6.3783588188976372
0
LINE
8
BLACK
6
CONTINUOUS
10
2.2663350787401573
20
-6.3783588188976372
11
2.2700846062992124
21
-6.3746092913385821
0
LINE
8
BLACK
6
CONTINUOUS
10
2.2700846062992124
20
-6.3746092913385821
11
2.2775836614173226
21
-6.370859763779527
0
LINE
8
BLACK
6
CONTINUOUS
10
2.3525742913385828
20
-6.370859763779527
11
2.3600733858267717
21
-6.370859763779527
0
LINE
8
BLACK
6
CONTINUOUS
10
2.3600733858267717
20
-6.370859763779527
11
2.367572440944882
21
-6.3746092913385821
0
LINE
8
BLACK
6
CONTINUOUS
10
2.367572440944882
20
-6.3746092913385821
11
2.3713219685039371
21
-6.3783588188976372
0
LINE
8
BLACK
6
CONTINUOUS
10
2.3713219685039371
20
-6.3783588188976372
11
2.3750714960629922
21
-6.3858578740157474
0
LINE
8
BLACK
6
CONTINUOUS
10
2.3750714960629922
20
-6.3858578740157474
11
2.3788210236220473
21
-6.4008559842519688
0
LINE
8
BLACK
6
CONTINUOUS
10
2.3788210236220473
20
-6.4008559842519688
11
2.3788210236220473
21
-6.4196036614173231
0
LINE
8
BLACK
6
CONTINUOUS
10
2.3788210236220473
20
-6.4196036614173231
11
2.3750714960629922
21
-6.4346017716535435
0
LINE
8
BLACK
6
CONTINUOUS
10
2.3750714960629922
20
-6.4346017716535435
11
2.3713219685039371
21
-6.4421008267716537
0
LINE
8
BLACK
6
CONTINUOUS
10
2.3713219685039371
20
-6.4421008267716537
11
2.367572440944882
21
-6.4458503937007876
0
LINE
8
BLACK
6
CONTINUOUS
10
2.367572440944882
20
-6.4458503937007876
11
2.3600733858267717
21
-6.4495999212598427
0
LINE
8
BLACK
6
CONTINUOUS
10
2.3600733858267717
20
-6.4495999212598427
11
2.3525742913385828
21
-6.4495999212598427
0
LINE
8
BLACK
6
CONTINUOUS
10
2.3525742913385828
20
-6.4495999212598427
11
2.3450752362204725
21
-6.4458503937007876
0
LINE
8
BLACK
6
CONTINUOUS
10
2.3450752362204725
20
-6.4458503937007876
11
2.3413257086614174
21
-6.4421008267716537
0
LINE
8
BLACK
6
CONTINUOUS
10
2.3413257086614174
20
-6.4421008267716537
11
2.3375761811023623
21
-6.4346017716535435
0
LINE
8
BLACK
6
CONTINUOUS
10
2.3375761811023623
20
-6.4346017716535435
11
2.3338266535433072
21
-6.4196036614173231
0
LINE
8
BLACK
6
CONTINUOUS
10
2.3338266535433072
20
-6.4196036614173231
11
2.3338266535433072
21
-6.4008559842519688
0
LINE
8
BLACK
6
CONTINUOUS
10
2.3338266535433072
20
-6.4008559842519688
11
2.3375761811023623
21
-6.3858578740157474
0
LINE
8
BLACK
6
CONTINUOUS
10
2.3375761811023623
20
-6.3858578740157474
11
2.3413257086614174
21
-6.3783588188976372
0
LINE
8
BLACK
6
CONTINUOUS
10
2.3413257086614174
20
-6.3783588188976372
11
2.3450752362204725
21
-6.3746092913385821
0
LINE
8
BLACK
6
CONTINUOUS
10
2.3450752362204725
20
-6.3746092913385821
11
2.3525742913385828
21
-6.370859763779527
0
LINE
8
BLACK
6
CONTINUOUS
10
2.412566811023622
20
-6.4495999212598427
11
2.412566811023622
21
-6.3971064566929137
0
LINE
8
BLACK
6
CONTINUOUS
10
2.412566811023622
20
-6.4046055118110239
11
2.4163163385826771
21
-6.4008559842519688
0
LINE
8
BLACK
6
CONTINUOUS
10
2.4163163385826771
20
-6.4008559842519688
11
2.4238153937007874
21
-6.3971064566929137
0
LINE
8
BLACK
6
CONTINUOUS
10
2.4238153937007874
20
-6.3971064566929137
11
2.4350640157480314
21
-6.3971064566929137
0
LINE
8
BLACK
6
CONTINUOUS
10
2.4350640157480314
20
-6.3971064566929137
11
2.4425630708661417
21
-6.4008559842519688
0
LINE
8
BLACK
6
CONTINUOUS
10
2.4425630708661417
20
-6.4008559842519688
11
2.4463125984251968
21
-6.4083550787401578
0
LINE
8
BLACK
6
CONTINUOUS
10
2.4463125984251968
20
-6.4083550787401578
11
2.4463125984251968
21
-6.4495999212598427
0
LINE
8
BLACK
6
CONTINUOUS
10
2.4463125984251968
20
-6.4083550787401578
11
2.4500621259842519
21
-6.4008559842519688
0
LINE
8
BLACK
6
CONTINUOUS
10
2.4500621259842519
20
-6.4008559842519688
11
2.4575611811023621
21
-6.3971064566929137
0
LINE
8
BLACK
6
CONTINUOUS
10
2.4575611811023621
20
-6.3971064566929137
11
2.4688097637795274
21
-6.3971064566929137
0
LINE
8
BLACK
6
CONTINUOUS
10
2.4688097637795274
20
-6.3971064566929137
11
2.4763088582677164
21
-6.4008559842519688
0
LINE
8
BLACK
6
CONTINUOUS
10
2.4763088582677164
20
-6.4008559842519688
11
2.4800583858267715
21
-6.4083550787401578
0
LINE
8
BLACK
6
CONTINUOUS
10
2.4800583858267715
20
-6.4083550787401578
11
2.4800583858267715
21
-6.4495999212598427
0
LINE
8
BLACK
6
CONTINUOUS
10
2.5175537007874014
20
-6.4495999212598427
11
2.5175537007874014
21
-6.3971064566929137
0
LINE
8
BLACK
6
CONTINUOUS
10
2.5175537007874014
20
-6.4046055118110239
11
2.5213032283464565
21
-6.4008559842519688
0
LINE
8
BLACK
6
CONTINUOUS
10
2.5213032283464565
20
-6.4008559842519688
11
2.5288022834645667
21
-6.3971064566929137
0
LINE
8
BLACK
6
CONTINUOUS
10
2.5288022834645667
20
-6.3971064566929137
11
2.5400509055118108
21
-6.3971064566929137
0
LINE
8
BLACK
6
CONTINUOUS
10
2.5400509055118108
20
-6.3971064566929137
11
2.547549960629921
21
-6.4008559842519688
0
LINE
8
BLACK
6
CONTINUOUS
10
2.547549960629921
20
-6.4008559842519688
11
2.5512994881889761
21
-6.4083550787401578
0
LINE
8
BLACK
6
CONTINUOUS
10
2.5512994881889761
20
-6.4083550787401578
11
2.5512994881889761
21
-6.4495999212598427
0
LINE
8
BLACK
6
CONTINUOUS
10
2.5512994881889761
20
-6.4083550787401578
11
2.5550490157480312
21
-6.4008559842519688
0
LINE
8
BLACK
6
CONTINUOUS
10
2.5550490157480312
20
-6.4008559842519688
11
2.5625480708661419
21
-6.3971064566929137
0
LINE
8
BLACK
6
CONTINUOUS
10
2.5625480708661419
20
-6.3971064566929137
11
2.5737966535433072
21
-6.3971064566929137
0
LINE
8
BLACK
6
CONTINUOUS
10
2.5737966535433072
20
-6.3971064566929137
11
2.5812957480314962
21
-6.4008559842519688
0
LINE
8
BLACK
6
CONTINUOUS
10
2.5812957480314962
20
-6.4008559842519688
11
2.5850452755905513
21
-6.4083550787401578
0
LINE
8
BLACK
6
CONTINUOUS
10
2.5850452755905513
20
-6.4083550787401578
11
2.5850452755905513
21
-6.4495999212598427
0
LINE
8
BLACK
6
CONTINUOUS
10
2.7387760629921258
20
-6.3671102362204719
11
2.6712845275590551
21
-6.4683475590551183
0
LINE
8
BLACK
6
CONTINUOUS
10
2.8400134251968505
20
-6.370859763779527
11
2.8475125196850395
21
-6.370859763779527
0
LINE
8
BLACK
6
CONTINUOUS
10
2.8475125196850395
20
-6.370859763779527
11
2.8550115748031497
21
-6.3746092913385821
0
LINE
8
BLACK
6
CONTINUOUS
10
2.8550115748031497
20
-6.3746092913385821
11
2.8587611023622048
21
-6.3783588188976372
0
LINE
8
BLACK
6
CONTINUOUS
10
2.8587611023622048
20
-6.3783588188976372
11
2.8625106299212599
21
-6.3858578740157474
0
LINE
8
BLACK
6
CONTINUOUS
10
2.8625106299212599
20
-6.3858578740157474
11
2.866260157480315
21
-6.4008559842519688
0
LINE
8
BLACK
6
CONTINUOUS
10
2.866260157480315
20
-6.4008559842519688
11
2.866260157480315
21
-6.4196036614173231
0
LINE
8
BLACK
6
CONTINUOUS
10
2.866260157480315
20
-6.4196036614173231
11
2.8625106299212599
21
-6.4346017716535435
0
LINE
8
BLACK
6
CONTINUOUS
10
2.8625106299212599
20
-6.4346017716535435
11
2.8587611023622048
21
-6.4421008267716537
0
LINE
8
BLACK
6
CONTINUOUS
10
2.8587611023622048
20
-6.4421008267716537
11
2.8550115748031497
21
-6.4458503937007876
0
LINE
8
BLACK
6
CONTINUOUS
10
2.8550115748031497
20
-6.4458503937007876
11
2.8475125196850395
21
-6.4495999212598427
0
LINE
8
BLACK
6
CONTINUOUS
10
2.8475125196850395
20
-6.4495999212598427
11
2.8400134251968505
21
-6.4495999212598427
0
LINE
8
BLACK
6
CONTINUOUS
10
2.8400134251968505
20
-6.4495999212598427
11
2.8325143700787403
21
-6.4458503937007876
0
LINE
8
BLACK
6
CONTINUOUS
10
2.8325143700787403
20
-6.4458503937007876
11
2.8287648425196852
21
-6.4421008267716537
0
LINE
8
BLACK
6
CONTINUOUS
10
2.8287648425196852
20
-6.4421008267716537
11
2.8250153149606301
21
-6.4346017716535435
0
LINE
8
BLACK
6
CONTINUOUS
10
2.8250153149606301
20
-6.4346017716535435
11
2.8212657874015745
21
-6.4196036614173231
0
LINE
8
BLACK
6
CONTINUOUS
10
2.8212657874015745
20
-6.4196036614173231
11
2.8212657874015745
21
-6.4008559842519688
0
LINE
8
BLACK
6
CONTINUOUS
10
2.8212657874015745
20
-6.4008559842519688
11
2.8250153149606301
21
-6.3858578740157474
0
LINE
8
BLACK
6
CONTINUOUS
10
2.8250153149606301
20
-6.3858578740157474
11
2.8287648425196852
21
-6.3783588188976372
0
LINE
8
BLACK
6
CONTINUOUS
10
2.8287648425196852
20
-6.3783588188976372
11
2.8325143700787403
21
-6.3746092913385821
0
LINE
8
BLACK
6
CONTINUOUS
10
2.8325143700787403
20
-6.3746092913385821
11
2.8400134251968505
21
-6.370859763779527
0
LINE
8
BLACK
6
CONTINUOUS
10
2.9000059448818898
20
-6.4421008267716537
11
2.9037554724409449
21
-6.4458503937007876
0
LINE
8
BLACK
6
CONTINUOUS
10
2.9037554724409449
20
-6.4458503937007876
11
2.9000059448818898
21
-6.4495999212598427
0
LINE
8
BLACK
6
CONTINUOUS
10
2.9000059448818898
20
-6.4495999212598427
11
2.8962564173228347
21
-6.4458503937007876
0
LINE
8
BLACK
6
CONTINUOUS
10
2.8962564173228347
20
-6.4458503937007876
11
2.9000059448818898
21
-6.4421008267716537
0
LINE
8
BLACK
6
CONTINUOUS
10
2.9000059448818898
20
-6.4421008267716537
11
2.9000059448818898
21
-6.4495999212598427
0
LINE
8
BLACK
6
CONTINUOUS
10
2.9787461023622046
20
-6.4495999212598427
11
2.9337517322834645
21
-6.4495999212598427
0
LINE
8
BLACK
6
CONTINUOUS
10
2.9562488976377952
20
-6.4495999212598427
11
2.9562488976377952
21
-6.370859763779527
0
LINE
8
BLACK
6
CONTINUOUS
10
2.9562488976377952
20
-6.370859763779527
11
2.948749842519685
21
-6.3821083464566923
0
LINE
8
BLACK
6
CONTINUOUS
10
2.948749842519685
20
-6.3821083464566923
11
2.9412507874015748
21
-6.3896074015748034
0
LINE
8
BLACK
6
CONTINUOUS
10
2.9412507874015748
20
-6.3896074015748034
11
2.9337517322834645
21
-6.3933569291338586
0
LINE
8
BLACK
6
CONTINUOUS
10
3.0537367322834643
20
-6.4495999212598427
11
3.0087423622047242
21
-6.4495999212598427
0
LINE
8
BLACK
6
CONTINUOUS
10
3.0312395275590549
20
-6.4495999212598427
11
3.0312395275590549
21
-6.370859763779527
0
LINE
8
BLACK
6
CONTINUOUS
10
3.0312395275590549
20
-6.370859763779527
11
3.0237404724409447
21
-6.3821083464566923
0
LINE
8
BLACK
6
CONTINUOUS
10
3.0237404724409447
20
-6.3821083464566923
11
3.0162414173228345
21
-6.3896074015748034
0
LINE
8
BLACK
6
CONTINUOUS
10
3.0162414173228345
20
-6.3896074015748034
11
3.0087423622047242
21
-6.3933569291338586
0
LINE
8
BLACK
6
CONTINUOUS
10
3.0987311023622048
20
-6.4046055118110239
11
3.0912320472440946
21
-6.4008559842519688
0
LINE
8
BLACK
6
CONTINUOUS
10
3.0912320472440946
20
-6.4008559842519688
11
3.0874825196850395
21
-6.3971064566929137
0
LINE
8
BLACK
6
CONTINUOUS
10
3.0874825196850395
20
-6.3971064566929137
11
3.0837329921259844
21
-6.3896074015748034
0
LINE
8
BLACK
6
CONTINUOUS
10
3.0837329921259844
20
-6.3896074015748034
11
3.0837329921259844
21
-6.3858578740157474
0
LINE
8
BLACK
6
CONTINUOUS
10
3.0837329921259844
20
-6.3858578740157474
11
3.0874825196850395
21
-6.3783588188976372
0
LINE
8
BLACK
6
CONTINUOUS
10
3.0874825196850395
20
-6.3783588188976372
11
3.0912320472440946
21
-6.3746092913385821
0
LINE
8
BLACK
6
CONTINUOUS
10
3.0912320472440946
20
-6.3746092913385821
11
3.0987311023622048
21
-6.370859763779527
0
LINE
8
BLACK
6
CONTINUOUS
10
3.0987311023622048
20
-6.370859763779527
11
3.113729251968504
21
-6.370859763779527
0
LINE
8
BLACK
6
CONTINUOUS
10
3.113729251968504
20
-6.370859763779527
11
3.1212283070866143
21
-6.3746092913385821
0
LINE
8
BLACK
6
CONTINUOUS
10
3.1212283070866143
20
-6.3746092913385821
11
3.1249778346456694
21
-6.3783588188976372
0
LINE
8
BLACK
6
CONTINUOUS
10
3.1249778346456694
20
-6.3783588188976372
11
3.1287273622047245
21
-6.3858578740157474
0
LINE
8
BLACK
6
CONTINUOUS
10
3.1287273622047245
20
-6.3858578740157474
11
3.1287273622047245
21
-6.3896074015748034
0
LINE
8
BLACK
6
CONTINUOUS
10
3.1287273622047245
20
-6.3896074015748034
11
3.1249778346456694
21
-6.3971064566929137
0
LINE
8
BLACK
6
CONTINUOUS
10
3.1249778346456694
20
-6.3971064566929137
11
3.1212283070866143
21
-6.4008559842519688
0
LINE
8
BLACK
6
CONTINUOUS
10
3.1212283070866143
20
-6.4008559842519688
11
3.113729251968504
21
-6.4046055118110239
0
LINE
8
BLACK
6
CONTINUOUS
10
3.113729251968504
20
-6.4046055118110239
11
3.0987311023622048
21
-6.4046055118110239
0
LINE
8
BLACK
6
CONTINUOUS
10
3.0987311023622048
20
-6.4046055118110239
11
3.0912320472440946
21
-6.4083550787401578
0
LINE
8
BLACK
6
CONTINUOUS
10
3.0912320472440946
20
-6.4083550787401578
11
3.0874825196850395
21
-6.4121046062992129
0
LINE
8
BLACK
6
CONTINUOUS
10
3.0874825196850395
20
-6.4121046062992129
11
3.0837329921259844
21
-6.4196036614173231
0
LINE
8
BLACK
6
CONTINUOUS
10
3.0837329921259844
20
-6.4196036614173231
11
3.0837329921259844
21
-6.4346017716535435
0
LINE
8
BLACK
6
CONTINUOUS
10
3.0837329921259844
20
-6.4346017716535435
11
3.0874825196850395
21
-6.4421008267716537
0
LINE
8
BLACK
6
CONTINUOUS
10
3.0874825196850395
20
-6.4421008267716537
11
3.0912320472440946
21
-6.4458503937007876
0
LINE
8
BLACK
6
CONTINUOUS
10
3.0912320472440946
20
-6.4458503937007876
11
3.0987311023622048
21
-6.4495999212598427
0
LINE
8
BLACK
6
CONTINUOUS
10
3.0987311023622048
20
-6.4495999212598427
11
3.113729251968504
21
-6.4495999212598427
0
LINE
8
BLACK
6
CONTINUOUS
10
3.113729251968504
20
-6.4495999212598427
11
3.1212283070866143
21
-6.4458503937007876
0
LINE
8
BLACK
6
CONTINUOUS
10
3.1212283070866143
20
-6.4458503937007876
11
3.1249778346456694
21
-6.4421008267716537
0
LINE
8
BLACK
6
CONTINUOUS
10
3.1249778346456694
20
-6.4421008267716537
11
3.1287273622047245
21
-6.4346017716535435
0
LINE
8
BLACK
6
CONTINUOUS
10
3.1287273622047245
20
-6.4346017716535435
11
3.1287273622047245
21
-6.4196036614173231
0
LINE
8
BLACK
6
CONTINUOUS
10
3.1287273622047245
20
-6.4196036614173231
11
3.1249778346456694
21
-6.4121046062992129
0
LINE
8
BLACK
6
CONTINUOUS
10
3.1249778346456694
20
-6.4121046062992129
11
3.1212283070866143
21
-6.4083550787401578
0
LINE
8
BLACK
6
CONTINUOUS
10
3.1212283070866143
20
-6.4083550787401578
11
3.113729251968504
21
-6.4046055118110239
0
LINE
8
BLACK
6
CONTINUOUS
10
3.2037179921259842
20
-6.4495999212598427
11
3.1587236220472441
21
-6.4495999212598427
0
LINE
8
BLACK
6
CONTINUOUS
10
3.1812207874015748
20
-6.4495999212598427
11
3.1812207874015748
21
-6.370859763779527
0
LINE
8
BLACK
6
CONTINUOUS
10
3.1812207874015748
20
-6.370859763779527
11
3.1737217322834645
21
-6.3821083464566923
0
LINE
8
BLACK
6
CONTINUOUS
10
3.1737217322834645
20
-6.3821083464566923
11
3.1662226771653543
21
-6.3896074015748034
0
LINE
8
BLACK
6
CONTINUOUS
10
3.1662226771653543
20
-6.3896074015748034
11
3.1587236220472441
21
-6.3933569291338586
0
LINE
8
BLACK
6
CONTINUOUS
10
3.2337142519685038
20
-6.370859763779527
11
3.2337142519685038
21
-6.3858578740157474
0
LINE
8
BLACK
6
CONTINUOUS
10
3.2637105118110235
20
-6.370859763779527
11
3.2637105118110235
21
-6.3858578740157474
0
LINE
8
BLACK
6
CONTINUOUS
10
3.3799460236220473
20
-6.4795961417322836
11
3.3761964566929135
21
-6.4758466141732285
0
LINE
8
BLACK
6
CONTINUOUS
10
3.3761964566929135
20
-6.4758466141732285
11
3.3686974015748032
21
-6.4645980314960632
0
LINE
8
BLACK
6
CONTINUOUS
10
3.3686974015748032
20
-6.4645980314960632
11
3.3649478740157481
21
-6.4570989763779529
0
LINE
8
BLACK
6
CONTINUOUS
10
3.3649478740157481
20
-6.4570989763779529
11
3.361198346456693
21
-6.4458503937007876
0
LINE
8
BLACK
6
CONTINUOUS
10
3.361198346456693
20
-6.4458503937007876
11
3.3574488188976379
21
-6.4271027165354333
0
LINE
8
BLACK
6
CONTINUOUS
10
3.3574488188976379
20
-6.4271027165354333
11
3.3574488188976379
21
-6.4121046062992129
0
LINE
8
BLACK
6
CONTINUOUS
10
3.3574488188976379
20
-6.4121046062992129
11
3.361198346456693
21
-6.3933569291338586
0
LINE
8
BLACK
6
CONTINUOUS
10
3.361198346456693
20
-6.3933569291338586
11
3.3649478740157481
21
-6.3821083464566923
0
LINE
8
BLACK
6
CONTINUOUS
10
3.3649478740157481
20
-6.3821083464566923
11
3.3686974015748032
21
-6.3746092913385821
0
LINE
8
BLACK
6
CONTINUOUS
10
3.3686974015748032
20
-6.3746092913385821
11
3.3761964566929135
21
-6.363360669291338
0
LINE
8
BLACK
6
CONTINUOUS
10
3.3761964566929135
20
-6.363360669291338
11
3.3799460236220473
21
-6.3596111417322829
0
LINE
8
BLACK
6
CONTINUOUS
10
3.4061927165354331
20
-6.3783588188976372
11
3.4099422440944882
21
-6.3746092913385821
0
LINE
8
BLACK
6
CONTINUOUS
10
3.4099422440944882
20
-6.3746092913385821
11
3.4174412992125984
21
-6.370859763779527
0
LINE
8
BLACK
6
CONTINUOUS
10
3.4174412992125984
20
-6.370859763779527
11
3.4361889763779527
21
-6.370859763779527
0
LINE
8
BLACK
6
CONTINUOUS
10
3.4361889763779527
20
-6.370859763779527
11
3.443688031496063
21
-6.3746092913385821
0
LINE
8
BLACK
6
CONTINUOUS
10
3.443688031496063
20
-6.3746092913385821
11
3.4474375590551181
21
-6.3783588188976372
0
LINE
8
BLACK
6
CONTINUOUS
10
3.4474375590551181
20
-6.3783588188976372
11
3.4511870866141732
21
-6.3858578740157474
0
LINE
8
BLACK
6
CONTINUOUS
10
3.4511870866141732
20
-6.3858578740157474
11
3.4511870866141732
21
-6.3933569291338586
0
LINE
8
BLACK
6
CONTINUOUS
10
3.4511870866141732
20
-6.3933569291338586
11
3.4474375590551181
21
-6.4046055118110239
0
LINE
8
BLACK
6
CONTINUOUS
10
3.4474375590551181
20
-6.4046055118110239
11
3.402443188976378
21
-6.4495999212598427
0
LINE
8
BLACK
6
CONTINUOUS
10
3.402443188976378
20
-6.4495999212598427
11
3.4511870866141732
21
-6.4495999212598427
0
LINE
8
BLACK
6
CONTINUOUS
10
3.5449253937007872
20
-6.4495999212598427
11
3.5449253937007872
21
-6.370859763779527
0
LINE
8
BLACK
6
CONTINUOUS
10
3.5786711811023619
20
-6.4495999212598427
11
3.5786711811023619
21
-6.4083550787401578
0
LINE
8
BLACK
6
CONTINUOUS
10
3.5786711811023619
20
-6.4083550787401578
11
3.5749216535433068
21
-6.4008559842519688
0
LINE
8
BLACK
6
CONTINUOUS
10
3.5749216535433068
20
-6.4008559842519688
11
3.5674225984251966
21
-6.3971064566929137
0
LINE
8
BLACK
6
CONTINUOUS
10
3.5674225984251966
20
-6.3971064566929137
11
3.5561739763779525
21
-6.3971064566929137
0
LINE
8
BLACK
6
CONTINUOUS
10
3.5561739763779525
20
-6.3971064566929137
11
3.5486749212598423
21
-6.4008559842519688
0
LINE
8
BLACK
6
CONTINUOUS
10
3.5486749212598423
20
-6.4008559842519688
11
3.5449253937007872
21
-6.4046055118110239
0
LINE
8
BLACK
6
CONTINUOUS
10
3.6274150787401576
20
-6.4495999212598427
11
3.6199160236220473
21
-6.4458503937007876
0
LINE
8
BLACK
6
CONTINUOUS
10
3.6199160236220473
20
-6.4458503937007876
11
3.6161664960629922
21
-6.4421008267716537
0
LINE
8
BLACK
6
CONTINUOUS
10
3.6161664960629922
20
-6.4421008267716537
11
3.6124169685039371
21
-6.4346017716535435
0
LINE
8
BLACK
6
CONTINUOUS
10
3.6124169685039371
20
-6.4346017716535435
11
3.6124169685039371
21
-6.4121046062992129
0
LINE
8
BLACK
6
CONTINUOUS
10
3.6124169685039371
20
-6.4121046062992129
11
3.6161664960629922
21
-6.4046055118110239
0
LINE
8
BLACK
6
CONTINUOUS
10
3.6161664960629922
20
-6.4046055118110239
11
3.6199160236220473
21
-6.4008559842519688
0
LINE
8
BLACK
6
CONTINUOUS
10
3.6199160236220473
20
-6.4008559842519688
11
3.6274150787401576
21
-6.3971064566929137
0
LINE
8
BLACK
6
CONTINUOUS
10
3.6274150787401576
20
-6.3971064566929137
11
3.6386637007874016
21
-6.3971064566929137
0
LINE
8
BLACK
6
CONTINUOUS
10
3.6386637007874016
20
-6.3971064566929137
11
3.6461627559055119
21
-6.4008559842519688
0
LINE
8
BLACK
6
CONTINUOUS
10
3.6461627559055119
20
-6.4008559842519688
11
3.649912283464567
21
-6.4046055118110239
0
LINE
8
BLACK
6
CONTINUOUS
10
3.649912283464567
20
-6.4046055118110239
11
3.6536618110236221
21
-6.4121046062992129
0
LINE
8
BLACK
6
CONTINUOUS
10
3.6536618110236221
20
-6.4121046062992129
11
3.6536618110236221
21
-6.4346017716535435
0
LINE
8
BLACK
6
CONTINUOUS
10
3.6536618110236221
20
-6.4346017716535435
11
3.649912283464567
21
-6.4421008267716537
0
LINE
8
BLACK
6
CONTINUOUS
10
3.649912283464567
20
-6.4421008267716537
11
3.6461627559055119
21
-6.4458503937007876
0
LINE
8
BLACK
6
CONTINUOUS
10
3.6461627559055119
20
-6.4458503937007876
11
3.6386637007874016
21
-6.4495999212598427
0
LINE
8
BLACK
6
CONTINUOUS
10
3.6386637007874016
20
-6.4495999212598427
11
3.6274150787401576
21
-6.4495999212598427
0
LINE
8
BLACK
6
CONTINUOUS
10
3.6986561811023622
20
-6.4495999212598427
11
3.6911571259842519
21
-6.4458503937007876
0
LINE
8
BLACK
6
CONTINUOUS
10
3.6911571259842519
20
-6.4458503937007876
11
3.6874075984251968
21
-6.4383512992125986
0
LINE
8
BLACK
6
CONTINUOUS
10
3.6874075984251968
20
-6.4383512992125986
11
3.6874075984251968
21
-6.370859763779527
0
LINE
8
BLACK
6
CONTINUOUS
10
3.7586487007874014
20
-6.4458503937007876
11
3.7511496456692912
21
-6.4495999212598427
0
LINE
8
BLACK
6
CONTINUOUS
10
3.7511496456692912
20
-6.4495999212598427
11
3.736151496062992
21
-6.4495999212598427
0
LINE
8
BLACK
6
CONTINUOUS
10
3.736151496062992
20
-6.4495999212598427
11
3.7286524409448818
21
-6.4458503937007876
0
LINE
8
BLACK
6
CONTINUOUS
10
3.7286524409448818
20
-6.4458503937007876
11
3.7249029133858267
21
-6.4383512992125986
0
LINE
8
BLACK
6
CONTINUOUS
10
3.7249029133858267
20
-6.4383512992125986
11
3.7249029133858267
21
-6.4083550787401578
0
LINE
8
BLACK
6
CONTINUOUS
10
3.7249029133858267
20
-6.4083550787401578
11
3.7286524409448818
21
-6.4008559842519688
0
LINE
8
BLACK
6
CONTINUOUS
10
3.7286524409448818
20
-6.4008559842519688
11
3.736151496062992
21
-6.3971064566929137
0
LINE
8
BLACK
6
CONTINUOUS
10
3.736151496062992
20
-6.3971064566929137
11
3.7511496456692912
21
-6.3971064566929137
0
LINE
8
BLACK
6
CONTINUOUS
10
3.7511496456692912
20
-6.3971064566929137
11
3.7586487007874014
21
-6.4008559842519688
0
LINE
8
BLACK
6
CONTINUOUS
10
3.7586487007874014
20
-6.4008559842519688
11
3.7623982283464565
21
-6.4083550787401578
0
LINE
8
BLACK
6
CONTINUOUS
10
3.7623982283464565
20
-6.4083550787401578
11
3.7623982283464565
21
-6.415854133858268
0
LINE
8
BLACK
6
CONTINUOUS
10
3.7623982283464565
20
-6.415854133858268
11
3.7249029133858267
21
-6.4233531889763782
0
LINE
8
BLACK
6
CONTINUOUS
10
3.7923944881889762
20
-6.4458503937007876
11
3.7998935433070864
21
-6.4495999212598427
0
LINE
8
BLACK
6
CONTINUOUS
10
3.7998935433070864
20
-6.4495999212598427
11
3.8148916535433068
21
-6.4495999212598427
0
LINE
8
BLACK
6
CONTINUOUS
10
3.8148916535433068
20
-6.4495999212598427
11
3.8223907480314958
21
-6.4458503937007876
0
LINE
8
BLACK
6
CONTINUOUS
10
3.8223907480314958
20
-6.4458503937007876
11
3.8261402755905509
21
-6.4383512992125986
0
LINE
8
BLACK
6
CONTINUOUS
10
3.8261402755905509
20
-6.4383512992125986
11
3.8261402755905509
21
-6.4346017716535435
0
LINE
8
BLACK
6
CONTINUOUS
10
3.8261402755905509
20
-6.4346017716535435
11
3.8223907480314958
21
-6.4271027165354333
0
LINE
8
BLACK
6
CONTINUOUS
10
3.8223907480314958
20
-6.4271027165354333
11
3.8148916535433068
21
-6.4233531889763782
0
LINE
8
BLACK
6
CONTINUOUS
10
3.8148916535433068
20
-6.4233531889763782
11
3.8036430708661415
21
-6.4233531889763782
0
LINE
8
BLACK
6
CONTINUOUS
10
3.8036430708661415
20
-6.4233531889763782
11
3.7961440157480313
21
-6.4196036614173231
0
LINE
8
BLACK
6
CONTINUOUS
10
3.7961440157480313
20
-6.4196036614173231
11
3.7923944881889762
21
-6.4121046062992129
0
LINE
8
BLACK
6
CONTINUOUS
10
3.7923944881889762
20
-6.4121046062992129
11
3.7923944881889762
21
-6.4083550787401578
0
LINE
8
BLACK
6
CONTINUOUS
10
3.7923944881889762
20
-6.4083550787401578
11
3.7961440157480313
21
-6.4008559842519688
0
LINE
8
BLACK
6
CONTINUOUS
10
3.7961440157480313
20
-6.4008559842519688
11
3.8036430708661415
21
-6.3971064566929137
0
LINE
8
BLACK
6
CONTINUOUS
10
3.8036430708661415
20
-6.3971064566929137
11
3.8148916535433068
21
-6.3971064566929137
0
LINE
8
BLACK
6
CONTINUOUS
10
3.8148916535433068
20
-6.3971064566929137
11
3.8223907480314958
21
-6.4008559842519688
0
LINE
8
BLACK
6
CONTINUOUS
10
3.8523870078740154
20
-6.4795961417322836
11
3.856136535433071
21
-6.4758466141732285
0
LINE
8
BLACK
6
CONTINUOUS
10
3.856136535433071
20
-6.4758466141732285
11
3.8636355905511812
21
-6.4645980314960632
0
LINE
8
BLACK
6
CONTINUOUS
10
3.8636355905511812
20
-6.4645980314960632
11
3.8673851181102363
21
-6.4570989763779529
0
LINE
8
BLACK
6
CONTINUOUS
10
3.8673851181102363
20
-6.4570989763779529
11
3.8711346456692914
21
-6.4458503937007876
0
LINE
8
BLACK
6
CONTINUOUS
10
3.8711346456692914
20
-6.4458503937007876
11
3.8748841732283466
21
-6.4271027165354333
0
LINE
8
BLACK
6
CONTINUOUS
10
3.8748841732283466
20
-6.4271027165354333
11
3.8748841732283466
21
-6.4121046062992129
0
LINE
8
BLACK
6
CONTINUOUS
10
3.8748841732283466
20
-6.4121046062992129
11
3.8711346456692914
21
-6.3933569291338586
0
LINE
8
BLACK
6
CONTINUOUS
10
3.8711346456692914
20
-6.3933569291338586
11
3.8673851181102363
21
-6.3821083464566923
0
LINE
8
BLACK
6
CONTINUOUS
10
3.8673851181102363
20
-6.3821083464566923
11
3.8636355905511812
21
-6.3746092913385821
0
LINE
8
BLACK
6
CONTINUOUS
10
3.8636355905511812
20
-6.3746092913385821
11
3.856136535433071
21
-6.363360669291338
0
LINE
8
BLACK
6
CONTINUOUS
10
3.856136535433071
20
-6.363360669291338
11
3.8523870078740154
21
-6.3596111417322829
0
LINE
8
BLACK
6
CONTINUOUS
10
3.9948692125984251
20
-6.4795961417322836
11
3.9911196456692912
21
-6.4758466141732285
0
LINE
8
BLACK
6
CONTINUOUS
10
3.9911196456692912
20
-6.4758466141732285
11
3.983620590551181
21
-6.4645980314960632
0
LINE
8
BLACK
6
CONTINUOUS
10
3.983620590551181
20
-6.4645980314960632
11
3.9798710629921259
21
-6.4570989763779529
0
LINE
8
BLACK
6
CONTINUOUS
10
3.9798710629921259
20
-6.4570989763779529
11
3.9761215354330708
21
-6.4458503937007876
0
LINE
8
BLACK
6
CONTINUOUS
10
3.9761215354330708
20
-6.4458503937007876
11
3.9723720078740157
21
-6.4271027165354333
0
LINE
8
BLACK
6
CONTINUOUS
10
3.9723720078740157
20
-6.4271027165354333
11
3.9723720078740157
21
-6.4121046062992129
0
LINE
8
BLACK
6
CONTINUOUS
10
3.9723720078740157
20
-6.4121046062992129
11
3.9761215354330708
21
-6.3933569291338586
0
LINE
8
BLACK
6
CONTINUOUS
10
3.9761215354330708
20
-6.3933569291338586
11
3.9798710629921259
21
-6.3821083464566923
0
LINE
8
BLACK
6
CONTINUOUS
10
3.9798710629921259
20
-6.3821083464566923
11
3.983620590551181
21
-6.3746092913385821
0
LINE
8
BLACK
6
CONTINUOUS
10
3.983620590551181
20
-6.3746092913385821
11
3.9911196456692912
21
-6.363360669291338
0
LINE
8
BLACK
6
CONTINUOUS
10
3.9911196456692912
20
-6.363360669291338
11
3.9948692125984251
21
-6.3596111417322829
0
LINE
8
BLACK
6
CONTINUOUS
10
4.0248654330708664
20
-6.3971064566929137
11
4.0248654330708664
21
-6.4495999212598427
0
LINE
8
BLACK
6
CONTINUOUS
10
4.0248654330708664
20
-6.4046055118110239
11
4.0286149606299215
21
-6.4008559842519688
0
LINE
8
BLACK
6
CONTINUOUS
10
4.0286149606299215
20
-6.4008559842519688
11
4.0361140157480317
21
-6.3971064566929137
0
LINE
8
BLACK
6
CONTINUOUS
10
4.0361140157480317
20
-6.3971064566929137
11
4.0473626377952758
21
-6.3971064566929137
0
LINE
8
BLACK
6
CONTINUOUS
10
4.0473626377952758
20
-6.3971064566929137
11
4.0548616929133861
21
-6.4008559842519688
0
LINE
8
BLACK
6
CONTINUOUS
10
4.0548616929133861
20
-6.4008559842519688
11
4.0586112204724412
21
-6.4083550787401578
0
LINE
8
BLACK
6
CONTINUOUS
10
4.0586112204724412
20
-6.4083550787401578
11
4.0586112204724412
21
-6.4495999212598427
0
LINE
8
BLACK
6
CONTINUOUS
10
4.1073551181102363
20
-6.4495999212598427
11
4.0998560629921261
21
-6.4458503937007876
0
LINE
8
BLACK
6
CONTINUOUS
10
4.0998560629921261
20
-6.4458503937007876
11
4.096106535433071
21
-6.4421008267716537
0
LINE
8
BLACK
6
CONTINUOUS
10
4.096106535433071
20
-6.4421008267716537
11
4.0923570078740159
21
-6.4346017716535435
0
LINE
8
BLACK
6
CONTINUOUS
10
4.0923570078740159
20
-6.4346017716535435
11
4.0923570078740159
21
-6.4121046062992129
0
LINE
8
BLACK
6
CONTINUOUS
10
4.0923570078740159
20
-6.4121046062992129
11
4.096106535433071
21
-6.4046055118110239
0
LINE
8
BLACK
6
CONTINUOUS
10
4.096106535433071
20
-6.4046055118110239
11
4.0998560629921261
21
-6.4008559842519688
0
LINE
8
BLACK
6
CONTINUOUS
10
4.0998560629921261
20
-6.4008559842519688
11
4.1073551181102363
21
-6.3971064566929137
0
LINE
8
BLACK
6
CONTINUOUS
10
4.1073551181102363
20
-6.3971064566929137
11
4.1186037401574804
21
-6.3971064566929137
0
LINE
8
BLACK
6
CONTINUOUS
10
4.1186037401574804
20
-6.3971064566929137
11
4.1261027952755907
21
-6.4008559842519688
0
LINE
8
BLACK
6
CONTINUOUS
10
4.1261027952755907
20
-6.4008559842519688
11
4.1298523228346458
21
-6.4046055118110239
0
LINE
8
BLACK
6
CONTINUOUS
10
4.1298523228346458
20
-6.4046055118110239
11
4.1336018503937009
21
-6.4121046062992129
0
LINE
8
BLACK
6
CONTINUOUS
10
4.1336018503937009
20
-6.4121046062992129
11
4.1336018503937009
21
-6.4346017716535435
0
LINE
8
BLACK
6
CONTINUOUS
10
4.1336018503937009
20
-6.4346017716535435
11
4.1298523228346458
21
-6.4421008267716537
0
LINE
8
BLACK
6
CONTINUOUS
10
4.1298523228346458
20
-6.4421008267716537
11
4.1261027952755907
21
-6.4458503937007876
0
LINE
8
BLACK
6
CONTINUOUS
10
4.1261027952755907
20
-6.4458503937007876
11
4.1186037401574804
21
-6.4495999212598427
0
LINE
8
BLACK
6
CONTINUOUS
10
4.1186037401574804
20
-6.4495999212598427
11
4.1073551181102363
21
-6.4495999212598427
0
LINE
8
BLACK
6
CONTINUOUS
10
4.1560990551181103
20
-6.3971064566929137
11
4.1860952755905512
21
-6.3971064566929137
0
LINE
8
BLACK
6
CONTINUOUS
10
4.1673476377952756
20
-6.370859763779527
11
4.1673476377952756
21
-6.4383512992125986
0
LINE
8
BLACK
6
CONTINUOUS
10
4.1673476377952756
20
-6.4383512992125986
11
4.1710971653543307
21
-6.4458503937007876
0
LINE
8
BLACK
6
CONTINUOUS
10
4.1710971653543307
20
-6.4458503937007876
11
4.1785962204724409
21
-6.4495999212598427
0
LINE
8
BLACK
6
CONTINUOUS
10
4.1785962204724409
20
-6.4495999212598427
11
4.1860952755905512
21
-6.4495999212598427
0
LINE
8
BLACK
6
CONTINUOUS
10
4.272334527559055
20
-6.3971064566929137
11
4.272334527559055
21
-6.4758466141732285
0
LINE
8
BLACK
6
CONTINUOUS
10
4.272334527559055
20
-6.4008559842519688
11
4.2798335826771652
21
-6.3971064566929137
0
LINE
8
BLACK
6
CONTINUOUS
10
4.2798335826771652
20
-6.3971064566929137
11
4.2948317322834644
21
-6.3971064566929137
0
LINE
8
BLACK
6
CONTINUOUS
10
4.2948317322834644
20
-6.3971064566929137
11
4.3023307874015746
21
-6.4008559842519688
0
LINE
8
BLACK
6
CONTINUOUS
10
4.3023307874015746
20
-6.4008559842519688
11
4.3060803149606297
21
-6.4046055118110239
0
LINE
8
BLACK
6
CONTINUOUS
10
4.3060803149606297
20
-6.4046055118110239
11
4.3098298425196848
21
-6.4121046062992129
0
LINE
8
BLACK
6
CONTINUOUS
10
4.3098298425196848
20
-6.4121046062992129
11
4.3098298425196848
21
-6.4346017716535435
0
LINE
8
BLACK
6
CONTINUOUS
10
4.3098298425196848
20
-6.4346017716535435
11
4.3060803149606297
21
-6.4421008267716537
0
LINE
8
BLACK
6
CONTINUOUS
10
4.3060803149606297
20
-6.4421008267716537
11
4.3023307874015746
21
-6.4458503937007876
0
LINE
8
BLACK
6
CONTINUOUS
10
4.3023307874015746
20
-6.4458503937007876
11
4.2948317322834644
21
-6.4495999212598427
0
LINE
8
BLACK
6
CONTINUOUS
10
4.2948317322834644
20
-6.4495999212598427
11
4.2798335826771652
21
-6.4495999212598427
0
LINE
8
BLACK
6
CONTINUOUS
10
4.2798335826771652
20
-6.4495999212598427
11
4.272334527559055
21
-6.4458503937007876
0
LINE
8
BLACK
6
CONTINUOUS
10
4.3548242125984249
20
-6.4495999212598427
11
4.3473251574803147
21
-6.4458503937007876
0
LINE
8
BLACK
6
CONTINUOUS
10
4.3473251574803147
20
-6.4458503937007876
11
4.3435756299212596
21
-6.4383512992125986
0
LINE
8
BLACK
6
CONTINUOUS
10
4.3435756299212596
20
-6.4383512992125986
11
4.3435756299212596
21
-6.370859763779527
0
LINE
8
BLACK
6
CONTINUOUS
10
4.4185662598425193
20
-6.4495999212598427
11
4.4185662598425193
21
-6.4083550787401578
0
LINE
8
BLACK
6
CONTINUOUS
10
4.4185662598425193
20
-6.4083550787401578
11
4.4148167322834642
21
-6.4008559842519688
0
LINE
8
BLACK
6
CONTINUOUS
10
4.4148167322834642
20
-6.4008559842519688
11
4.4073176771653539
21
-6.3971064566929137
0
LINE
8
BLACK
6
CONTINUOUS
10
4.4073176771653539
20
-6.3971064566929137
11
4.3923195275590547
21
-6.3971064566929137
0
LINE
8
BLACK
6
CONTINUOUS
10
4.3923195275590547
20
-6.3971064566929137
11
4.3848204724409445
21
-6.4008559842519688
0
LINE
8
BLACK
6
CONTINUOUS
10
4.4185662598425193
20
-6.4458503937007876
11
4.4110672047244091
21
-6.4495999212598427
0
LINE
8
BLACK
6
CONTINUOUS
10
4.4110672047244091
20
-6.4495999212598427
11
4.3923195275590547
21
-6.4495999212598427
0
LINE
8
BLACK
6
CONTINUOUS
10
4.3923195275590547
20
-6.4495999212598427
11
4.3848204724409445
21
-6.4458503937007876
0
LINE
8
BLACK
6
CONTINUOUS
10
4.3848204724409445
20
-6.4458503937007876
11
4.3810709448818894
21
-6.4383512992125986
0
LINE
8
BLACK
6
CONTINUOUS
10
4.3810709448818894
20
-6.4383512992125986
11
4.3810709448818894
21
-6.4308522440944884
0
LINE
8
BLACK
6
CONTINUOUS
10
4.3810709448818894
20
-6.4308522440944884
11
4.3848204724409445
21
-6.4233531889763782
0
LINE
8
BLACK
6
CONTINUOUS
10
4.3848204724409445
20
-6.4233531889763782
11
4.3923195275590547
21
-6.4196036614173231
0
LINE
8
BLACK
6
CONTINUOUS
10
4.3923195275590547
20
-6.4196036614173231
11
4.4110672047244091
21
-6.4196036614173231
0
LINE
8
BLACK
6
CONTINUOUS
10
4.4110672047244091
20
-6.4196036614173231
11
4.4185662598425193
21
-6.415854133858268
0
LINE
8
BLACK
6
CONTINUOUS
10
4.4448129921259838
20
-6.3971064566929137
11
4.4748092125984247
21
-6.3971064566929137
0
LINE
8
BLACK
6
CONTINUOUS
10
4.4560615748031491
20
-6.370859763779527
11
4.4560615748031491
21
-6.4383512992125986
0
LINE
8
BLACK
6
CONTINUOUS
10
4.4560615748031491
20
-6.4383512992125986
11
4.4598111023622042
21
-6.4458503937007876
0
LINE
8
BLACK
6
CONTINUOUS
10
4.4598111023622042
20
-6.4458503937007876
11
4.4673101574803145
21
-6.4495999212598427
0
LINE
8
BLACK
6
CONTINUOUS
10
4.4673101574803145
20
-6.4495999212598427
11
4.4748092125984247
21
-6.4495999212598427
0
LINE
8
BLACK
6
CONTINUOUS
10
4.5310522047244097
20
-6.4458503937007876
11
4.5235531496062995
21
-6.4495999212598427
0
LINE
8
BLACK
6
CONTINUOUS
10
4.5235531496062995
20
-6.4495999212598427
11
4.5085550000000003
21
-6.4495999212598427
0
LINE
8
BLACK
6
CONTINUOUS
10
4.5085550000000003
20
-6.4495999212598427
11
4.5010559448818901
21
-6.4458503937007876
0
LINE
8
BLACK
6
CONTINUOUS
10
4.5010559448818901
20
-6.4458503937007876
11
4.497306417322835
21
-6.4383512992125986
0
LINE
8
BLACK
6
CONTINUOUS
10
4.497306417322835
20
-6.4383512992125986
11
4.497306417322835
21
-6.4083550787401578
0
LINE
8
BLACK
6
CONTINUOUS
10
4.497306417322835
20
-6.4083550787401578
11
4.5010559448818901
21
-6.4008559842519688
0
LINE
8
BLACK
6
CONTINUOUS
10
4.5010559448818901
20
-6.4008559842519688
11
4.5085550000000003
21
-6.3971064566929137
0
LINE
8
BLACK
6
CONTINUOUS
10
4.5085550000000003
20
-6.3971064566929137
11
4.5235531496062995
21
-6.3971064566929137
0
LINE
8
BLACK
6
CONTINUOUS
10
4.5235531496062995
20
-6.3971064566929137
11
4.5310522047244097
21
-6.4008559842519688
0
LINE
8
BLACK
6
CONTINUOUS
10
4.5310522047244097
20
-6.4008559842519688
11
4.5348017322834648
21
-6.4083550787401578
0
LINE
8
BLACK
6
CONTINUOUS
10
4.5348017322834648
20
-6.4083550787401578
11
4.5348017322834648
21
-6.415854133858268
0
LINE
8
BLACK
6
CONTINUOUS
10
4.5348017322834648
20
-6.415854133858268
11
4.497306417322835
21
-6.4233531889763782
0
LINE
8
BLACK
6
CONTINUOUS
10
4.6022933070866143
20
-6.4495999212598427
11
4.6022933070866143
21
-6.370859763779527
0
LINE
8
BLACK
6
CONTINUOUS
10
4.6022933070866143
20
-6.4458503937007876
11
4.5947942519685041
21
-6.4495999212598427
0
LINE
8
BLACK
6
CONTINUOUS
10
4.5947942519685041
20
-6.4495999212598427
11
4.5797961023622049
21
-6.4495999212598427
0
LINE
8
BLACK
6
CONTINUOUS
10
4.5797961023622049
20
-6.4495999212598427
11
4.5722970472440947
21
-6.4458503937007876
0
LINE
8
BLACK
6
CONTINUOUS
10
4.5722970472440947
20
-6.4458503937007876
11
4.5685475196850396
21
-6.4421008267716537
0
LINE
8
BLACK
6
CONTINUOUS
10
4.5685475196850396
20
-6.4421008267716537
11
4.5647979921259845
21
-6.4346017716535435
0
LINE
8
BLACK
6
CONTINUOUS
10
4.5647979921259845
20
-6.4346017716535435
11
4.5647979921259845
21
-6.4121046062992129
0
LINE
8
BLACK
6
CONTINUOUS
10
4.5647979921259845
20
-6.4121046062992129
11
4.5685475196850396
21
-6.4046055118110239
0
LINE
8
BLACK
6
CONTINUOUS
10
4.5685475196850396
20
-6.4046055118110239
11
4.5722970472440947
21
-6.4008559842519688
0
LINE
8
BLACK
6
CONTINUOUS
10
4.5722970472440947
20
-6.4008559842519688
11
4.5797961023622049
21
-6.3971064566929137
0
LINE
8
BLACK
6
CONTINUOUS
10
4.5797961023622049
20
-6.3971064566929137
11
4.5947942519685041
21
-6.3971064566929137
0
LINE
8
BLACK
6
CONTINUOUS
10
4.5947942519685041
20
-6.3971064566929137
11
4.6022933070866143
21
-6.4008559842519688
0
LINE
8
BLACK
6
CONTINUOUS
10
4.632289566929134
20
-6.4795961417322836
11
4.6360390944881891
21
-6.4758466141732285
0
LINE
8
BLACK
6
CONTINUOUS
10
4.6360390944881891
20
-6.4758466141732285
11
4.6435381496062993
21
-6.4645980314960632
0
LINE
8
BLACK
6
CONTINUOUS
10
4.6435381496062993
20
-6.4645980314960632
11
4.6472876771653544
21
-6.4570989763779529
0
LINE
8
BLACK
6
CONTINUOUS
10
4.6472876771653544
20
-6.4570989763779529
11
4.6510372047244095
21
-6.4458503937007876
0
LINE
8
BLACK
6
CONTINUOUS
10
4.6510372047244095
20
-6.4458503937007876
11
4.6547867322834646
21
-6.4271027165354333
0
LINE
8
BLACK
6
CONTINUOUS
10
4.6547867322834646
20
-6.4271027165354333
11
4.6547867322834646
21
-6.4121046062992129
0
LINE
8
BLACK
6
CONTINUOUS
10
4.6547867322834646
20
-6.4121046062992129
11
4.6510372047244095
21
-6.3933569291338586
0
LINE
8
BLACK
6
CONTINUOUS
10
4.6510372047244095
20
-6.3933569291338586
11
4.6472876771653544
21
-6.3821083464566923
0
LINE
8
BLACK
6
CONTINUOUS
10
4.6472876771653544
20
-6.3821083464566923
11
4.6435381496062993
21
-6.3746092913385821
0
LINE
8
BLACK
6
CONTINUOUS
10
4.6435381496062993
20
-6.3746092913385821
11
4.6360390944881891
21
-6.363360669291338
0
LINE
8
BLACK
6
CONTINUOUS
10
4.6360390944881891
20
-6.363360669291338
11
4.632289566929134
21
-6.3596111417322829
0
CIRCLE
8
BLACK
10
1.9330708661417322
20
-6.5395669291338585
40
0.0393700787401575
0
LINE
8
BLACK
6
CONTINUOUS
10
2.0676099212598427
20
-6.4968440157480316
11
2.1163538188976379
21
-6.4968440157480316
0
LINE
8
BLACK
6
CONTINUOUS
10
2.1163538188976379
20
-6.4968440157480316
11
2.0901070866141733
21
-6.5268402362204725
0
LINE
8
BLACK
6
CONTINUOUS
10
2.0901070866141733
20
-6.5268402362204725
11
2.1013557086614174
21
-6.5268402362204725
0
LINE
8
BLACK
6
CONTINUOUS
10
2.1013557086614174
20
-6.5268402362204725
11
2.1088547637795276
21
-6.5305897637795276
0
LINE
8
BLACK
6
CONTINUOUS
10
2.1088547637795276
20
-6.5305897637795276
11
2.1126042913385827
21
-6.5343393307086615
0
LINE
8
BLACK
6
CONTINUOUS
10
2.1126042913385827
20
-6.5343393307086615
11
2.1163538188976379
21
-6.5418383858267717
0
LINE
8
BLACK
6
CONTINUOUS
10
2.1163538188976379
20
-6.5418383858267717
11
2.1163538188976379
21
-6.5605860236220472
0
LINE
8
BLACK
6
CONTINUOUS
10
2.1163538188976379
20
-6.5605860236220472
11
2.1126042913385827
21
-6.5680850787401575
0
LINE
8
BLACK
6
CONTINUOUS
10
2.1126042913385827
20
-6.5680850787401575
11
2.1088547637795276
21
-6.5718346456692913
0
LINE
8
BLACK
6
CONTINUOUS
10
2.1088547637795276
20
-6.5718346456692913
11
2.1013557086614174
21
-6.5755841732283464
0
LINE
8
BLACK
6
CONTINUOUS
10
2.1013557086614174
20
-6.5755841732283464
11
2.078858503937008
21
-6.5755841732283464
0
LINE
8
BLACK
6
CONTINUOUS
10
2.078858503937008
20
-6.5755841732283464
11
2.0713594488188978
21
-6.5718346456692913
0
LINE
8
BLACK
6
CONTINUOUS
10
2.0713594488188978
20
-6.5718346456692913
11
2.0676099212598427
21
-6.5680850787401575
0
LINE
8
BLACK
6
CONTINUOUS
10
2.1500996062992126
20
-6.5680850787401575
11
2.1538491338582677
21
-6.5718346456692913
0
LINE
8
BLACK
6
CONTINUOUS
10
2.1538491338582677
20
-6.5718346456692913
11
2.1500996062992126
21
-6.5755841732283464
0
LINE
8
BLACK
6
CONTINUOUS
10
2.1500996062992126
20
-6.5755841732283464
11
2.1463500787401575
21
-6.5718346456692913
0
LINE
8
BLACK
6
CONTINUOUS
10
2.1463500787401575
20
-6.5718346456692913
11
2.1500996062992126
21
-6.5680850787401575
0
LINE
8
BLACK
6
CONTINUOUS
10
2.1500996062992126
20
-6.5680850787401575
11
2.1500996062992126
21
-6.5755841732283464
0
LINE
8
BLACK
6
CONTINUOUS
10
2.1838453937007873
20
-6.5043430708661418
11
2.1875949212598425
21
-6.5005935433070867
0
LINE
8
BLACK
6
CONTINUOUS
10
2.1875949212598425
20
-6.5005935433070867
11
2.1950939763779527
21
-6.4968440157480316
0
LINE
8
BLACK
6
CONTINUOUS
10
2.1950939763779527
20
-6.4968440157480316
11
2.213841653543307
21
-6.4968440157480316
0
LINE
8
BLACK
6
CONTINUOUS
10
2.213841653543307
20
-6.4968440157480316
11
2.2213407086614172
21
-6.5005935433070867
0
LINE
8
BLACK
6
CONTINUOUS
10
2.2213407086614172
20
-6.5005935433070867
11
2.2250902362204723
21
-6.5043430708661418
0
LINE
8
BLACK
6
CONTINUOUS
10
2.2250902362204723
20
-6.5043430708661418
11
2.2288397637795274
21
-6.511842125984252
0
LINE
8
BLACK
6
CONTINUOUS
10
2.2288397637795274
20
-6.511842125984252
11
2.2288397637795274
21
-6.5193411811023623
0
LINE
8
BLACK
6
CONTINUOUS
10
2.2288397637795274
20
-6.5193411811023623
11
2.2250902362204723
21
-6.5305897637795276
0
LINE
8
BLACK
6
CONTINUOUS
10
2.2250902362204723
20
-6.5305897637795276
11
2.1800958661417322
21
-6.5755841732283464
0
LINE
8
BLACK
6
CONTINUOUS
10
2.1800958661417322
20
-6.5755841732283464
11
2.2288397637795274
21
-6.5755841732283464
0
LINE
8
BLACK
6
CONTINUOUS
10
2.2775836614173226
20
-6.4968440157480316
11
2.2850827559055116
21
-6.4968440157480316
0
LINE
8
BLACK
6
CONTINUOUS
10
2.2850827559055116
20
-6.4968440157480316
11
2.2925818110236218
21
-6.5005935433070867
0
LINE
8
BLACK
6
CONTINUOUS
10
2.2925818110236218
20
-6.5005935433070867
11
2.2963313385826769
21
-6.5043430708661418
0
LINE
8
BLACK
6
CONTINUOUS
10
2.2963313385826769
20
-6.5043430708661418
11
2.300080866141732
21
-6.511842125984252
0
LINE
8
BLACK
6
CONTINUOUS
10
2.300080866141732
20
-6.511842125984252
11
2.3038303937007876
21
-6.5268402362204725
0
LINE
8
BLACK
6
CONTINUOUS
10
2.3038303937007876
20
-6.5268402362204725
11
2.3038303937007876
21
-6.5455879133858268
0
LINE
8
BLACK
6
CONTINUOUS
10
2.3038303937007876
20
-6.5455879133858268
11
2.300080866141732
21
-6.5605860236220472
0
LINE
8
BLACK
6
CONTINUOUS
10
2.300080866141732
20
-6.5605860236220472
11
2.2963313385826769
21
-6.5680850787401575
0
LINE
8
BLACK
6
CONTINUOUS
10
2.2963313385826769
20
-6.5680850787401575
11
2.2925818110236218
21
-6.5718346456692913
0
LINE
8
BLACK
6
CONTINUOUS
10
2.2925818110236218
20
-6.5718346456692913
11
2.2850827559055116
21
-6.5755841732283464
0
LINE
8
BLACK
6
CONTINUOUS
10
2.2850827559055116
20
-6.5755841732283464
11
2.2775836614173226
21
-6.5755841732283464
0
LINE
8
BLACK
6
CONTINUOUS
10
2.2775836614173226
20
-6.5755841732283464
11
2.2700846062992124
21
-6.5718346456692913
0
LINE
8
BLACK
6
CONTINUOUS
10
2.2700846062992124
20
-6.5718346456692913
11
2.2663350787401573
21
-6.5680850787401575
0
LINE
8
BLACK
6
CONTINUOUS
10
2.2663350787401573
20
-6.5680850787401575
11
2.2625855511811022
21
-6.5605860236220472
0
LINE
8
BLACK
6
CONTINUOUS
10
2.2625855511811022
20
-6.5605860236220472
11
2.2588360236220471
21
-6.5455879133858268
0
LINE
8
BLACK
6
CONTINUOUS
10
2.2588360236220471
20
-6.5455879133858268
11
2.2588360236220471
21
-6.5268402362204725
0
LINE
8
BLACK
6
CONTINUOUS
10
2.2588360236220471
20
-6.5268402362204725
11
2.2625855511811022
21
-6.511842125984252
0
LINE
8
BLACK
6
CONTINUOUS
10
2.2625855511811022
20
-6.511842125984252
11
2.2663350787401573
21
-6.5043430708661418
0
LINE
8
BLACK
6
CONTINUOUS
10
2.2663350787401573
20
-6.5043430708661418
11
2.2700846062992124
21
-6.5005935433070867
0
LINE
8
BLACK
6
CONTINUOUS
10
2.2700846062992124
20
-6.5005935433070867
11
2.2775836614173226
21
-6.4968440157480316
0
LINE
8
BLACK
6
CONTINUOUS
10
2.3525742913385828
20
-6.4968440157480316
11
2.3600733858267717
21
-6.4968440157480316
0
LINE
8
BLACK
6
CONTINUOUS
10
2.3600733858267717
20
-6.4968440157480316
11
2.367572440944882
21
-6.5005935433070867
0
LINE
8
BLACK
6
CONTINUOUS
10
2.367572440944882
20
-6.5005935433070867
11
2.3713219685039371
21
-6.5043430708661418
0
LINE
8
BLACK
6
CONTINUOUS
10
2.3713219685039371
20
-6.5043430708661418
11
2.3750714960629922
21
-6.511842125984252
0
LINE
8
BLACK
6
CONTINUOUS
10
2.3750714960629922
20
-6.511842125984252
11
2.3788210236220473
21
-6.5268402362204725
0
LINE
8
BLACK
6
CONTINUOUS
10
2.3788210236220473
20
-6.5268402362204725
11
2.3788210236220473
21
-6.5455879133858268
0
LINE
8
BLACK
6
CONTINUOUS
10
2.3788210236220473
20
-6.5455879133858268
11
2.3750714960629922
21
-6.5605860236220472
0
LINE
8
BLACK
6
CONTINUOUS
10
2.3750714960629922
20
-6.5605860236220472
11
2.3713219685039371
21
-6.5680850787401575
0
LINE
8
BLACK
6
CONTINUOUS
10
2.3713219685039371
20
-6.5680850787401575
11
2.367572440944882
21
-6.5718346456692913
0
LINE
8
BLACK
6
CONTINUOUS
10
2.367572440944882
20
-6.5718346456692913
11
2.3600733858267717
21
-6.5755841732283464
0
LINE
8
BLACK
6
CONTINUOUS
10
2.3600733858267717
20
-6.5755841732283464
11
2.3525742913385828
21
-6.5755841732283464
0
LINE
8
BLACK
6
CONTINUOUS
10
2.3525742913385828
20
-6.5755841732283464
11
2.3450752362204725
21
-6.5718346456692913
0
LINE
8
BLACK
6
CONTINUOUS
10
2.3450752362204725
20
-6.5718346456692913
11
2.3413257086614174
21
-6.5680850787401575
0
LINE
8
BLACK
6
CONTINUOUS
10
2.3413257086614174
20
-6.5680850787401575
11
2.3375761811023623
21
-6.5605860236220472
0
LINE
8
BLACK
6
CONTINUOUS
10
2.3375761811023623
20
-6.5605860236220472
11
2.3338266535433072
21
-6.5455879133858268
0
LINE
8
BLACK
6
CONTINUOUS
10
2.3338266535433072
20
-6.5455879133858268
11
2.3338266535433072
21
-6.5268402362204725
0
LINE
8
BLACK
6
CONTINUOUS
10
2.3338266535433072
20
-6.5268402362204725
11
2.3375761811023623
21
-6.511842125984252
0
LINE
8
BLACK
6
CONTINUOUS
10
2.3375761811023623
20
-6.511842125984252
11
2.3413257086614174
21
-6.5043430708661418
0
LINE
8
BLACK
6
CONTINUOUS
10
2.3413257086614174
20
-6.5043430708661418
11
2.3450752362204725
21
-6.5005935433070867
0
LINE
8
BLACK
6
CONTINUOUS
10
2.3450752362204725
20
-6.5005935433070867
11
2.3525742913385828
21
-6.4968440157480316
0
LINE
8
BLACK
6
CONTINUOUS
10
2.412566811023622
20
-6.5755841732283464
11
2.412566811023622
21
-6.5230907086614174
0
LINE
8
BLACK
6
CONTINUOUS
10
2.412566811023622
20
-6.5305897637795276
11
2.4163163385826771
21
-6.5268402362204725
0
LINE
8
BLACK
6
CONTINUOUS
10
2.4163163385826771
20
-6.5268402362204725
11
2.4238153937007874
21
-6.5230907086614174
0
LINE
8
BLACK
6
CONTINUOUS
10
2.4238153937007874
20
-6.5230907086614174
11
2.4350640157480314
21
-6.5230907086614174
0
LINE
8
BLACK
6
CONTINUOUS
10
2.4350640157480314
20
-6.5230907086614174
11
2.4425630708661417
21
-6.5268402362204725
0
LINE
8
BLACK
6
CONTINUOUS
10
2.4425630708661417
20
-6.5268402362204725
11
2.4463125984251968
21
-6.5343393307086615
0
LINE
8
BLACK
6
CONTINUOUS
10
2.4463125984251968
20
-6.5343393307086615
11
2.4463125984251968
21
-6.5755841732283464
0
LINE
8
BLACK
6
CONTINUOUS
10
2.4463125984251968
20
-6.5343393307086615
11
2.4500621259842519
21
-6.5268402362204725
0
LINE
8
BLACK
6
CONTINUOUS
10
2.4500621259842519
20
-6.5268402362204725
11
2.4575611811023621
21
-6.5230907086614174
0
LINE
8
BLACK
6
CONTINUOUS
10
2.4575611811023621
20
-6.5230907086614174
11
2.4688097637795274
21
-6.5230907086614174
0
LINE
8
BLACK
6
CONTINUOUS
10
2.4688097637795274
20
-6.5230907086614174
11
2.4763088582677164
21
-6.5268402362204725
0
LINE
8
BLACK
6
CONTINUOUS
10
2.4763088582677164
20
-6.5268402362204725
11
2.4800583858267715
21
-6.5343393307086615
0
LINE
8
BLACK
6
CONTINUOUS
10
2.4800583858267715
20
-6.5343393307086615
11
2.4800583858267715
21
-6.5755841732283464
0
LINE
8
BLACK
6
CONTINUOUS
10
2.5175537007874014
20
-6.5755841732283464
11
2.5175537007874014
21
-6.5230907086614174
0
LINE
8
BLACK
6
CONTINUOUS
10
2.5175537007874014
20
-6.5305897637795276
11
2.5213032283464565
21
-6.5268402362204725
0
LINE
8
BLACK
6
CONTINUOUS
10
2.5213032283464565
20
-6.5268402362204725
11
2.5288022834645667
21
-6.5230907086614174
0
LINE
8
BLACK
6
CONTINUOUS
10
2.5288022834645667
20
-6.5230907086614174
11
2.5400509055118108
21
-6.5230907086614174
0
LINE
8
BLACK
6
CONTINUOUS
10
2.5400509055118108
20
-6.5230907086614174
11
2.547549960629921
21
-6.5268402362204725
0
LINE
8
BLACK
6
CONTINUOUS
10
2.547549960629921
20
-6.5268402362204725
11
2.5512994881889761
21
-6.5343393307086615
0
LINE
8
BLACK
6
CONTINUOUS
10
2.5512994881889761
20
-6.5343393307086615
11
2.5512994881889761
21
-6.5755841732283464
0
LINE
8
BLACK
6
CONTINUOUS
10
2.5512994881889761
20
-6.5343393307086615
11
2.5550490157480312
21
-6.5268402362204725
0
LINE
8
BLACK
6
CONTINUOUS
10
2.5550490157480312
20
-6.5268402362204725
11
2.5625480708661419
21
-6.5230907086614174
0
LINE
8
BLACK
6
CONTINUOUS
10
2.5625480708661419
20
-6.5230907086614174
11
2.5737966535433072
21
-6.5230907086614174
0
LINE
8
BLACK
6
CONTINUOUS
10
2.5737966535433072
20
-6.5230907086614174
11
2.5812957480314962
21
-6.5268402362204725
0
LINE
8
BLACK
6
CONTINUOUS
10
2.5812957480314962
20
-6.5268402362204725
11
2.5850452755905513
21
-6.5343393307086615
0
LINE
8
BLACK
6
CONTINUOUS
10
2.5850452755905513
20
-6.5343393307086615
11
2.5850452755905513
21
-6.5755841732283464
0
LINE
8
BLACK
6
CONTINUOUS
10
2.7387760629921258
20
-6.4930944881889765
11
2.6712845275590551
21
-6.594331811023622
0
LINE
8
BLACK
6
CONTINUOUS
10
2.8400134251968505
20
-6.4968440157480316
11
2.8475125196850395
21
-6.4968440157480316
0
LINE
8
BLACK
6
CONTINUOUS
10
2.8475125196850395
20
-6.4968440157480316
11
2.8550115748031497
21
-6.5005935433070867
0
LINE
8
BLACK
6
CONTINUOUS
10
2.8550115748031497
20
-6.5005935433070867
11
2.8587611023622048
21
-6.5043430708661418
0
LINE
8
BLACK
6
CONTINUOUS
10
2.8587611023622048
20
-6.5043430708661418
11
2.8625106299212599
21
-6.511842125984252
0
LINE
8
BLACK
6
CONTINUOUS
10
2.8625106299212599
20
-6.511842125984252
11
2.866260157480315
21
-6.5268402362204725
0
LINE
8
BLACK
6
CONTINUOUS
10
2.866260157480315
20
-6.5268402362204725
11
2.866260157480315
21
-6.5455879133858268
0
LINE
8
BLACK
6
CONTINUOUS
10
2.866260157480315
20
-6.5455879133858268
11
2.8625106299212599
21
-6.5605860236220472
0
LINE
8
BLACK
6
CONTINUOUS
10
2.8625106299212599
20
-6.5605860236220472
11
2.8587611023622048
21
-6.5680850787401575
0
LINE
8
BLACK
6
CONTINUOUS
10
2.8587611023622048
20
-6.5680850787401575
11
2.8550115748031497
21
-6.5718346456692913
0
LINE
8
BLACK
6
CONTINUOUS
10
2.8550115748031497
20
-6.5718346456692913
11
2.8475125196850395
21
-6.5755841732283464
0
LINE
8
BLACK
6
CONTINUOUS
10
2.8475125196850395
20
-6.5755841732283464
11
2.8400134251968505
21
-6.5755841732283464
0
LINE
8
BLACK
6
CONTINUOUS
10
2.8400134251968505
20
-6.5755841732283464
11
2.8325143700787403
21
-6.5718346456692913
0
LINE
8
BLACK
6
CONTINUOUS
10
2.8325143700787403
20
-6.5718346456692913
11
2.8287648425196852
21
-6.5680850787401575
0
LINE
8
BLACK
6
CONTINUOUS
10
2.8287648425196852
20
-6.5680850787401575
11
2.8250153149606301
21
-6.5605860236220472
0
LINE
8
BLACK
6
CONTINUOUS
10
2.8250153149606301
20
-6.5605860236220472
11
2.8212657874015745
21
-6.5455879133858268
0
LINE
8
BLACK
6
CONTINUOUS
10
2.8212657874015745
20
-6.5455879133858268
11
2.8212657874015745
21
-6.5268402362204725
0
LINE
8
BLACK
6
CONTINUOUS
10
2.8212657874015745
20
-6.5268402362204725
11
2.8250153149606301
21
-6.511842125984252
0
LINE
8
BLACK
6
CONTINUOUS
10
2.8250153149606301
20
-6.511842125984252
11
2.8287648425196852
21
-6.5043430708661418
0
LINE
8
BLACK
6
CONTINUOUS
10
2.8287648425196852
20
-6.5043430708661418
11
2.8325143700787403
21
-6.5005935433070867
0
LINE
8
BLACK
6
CONTINUOUS
10
2.8325143700787403
20
-6.5005935433070867
11
2.8400134251968505
21
-6.4968440157480316
0
LINE
8
BLACK
6
CONTINUOUS
10
2.9000059448818898
20
-6.5680850787401575
11
2.9037554724409449
21
-6.5718346456692913
0
LINE
8
BLACK
6
CONTINUOUS
10
2.9037554724409449
20
-6.5718346456692913
11
2.9000059448818898
21
-6.5755841732283464
0
LINE
8
BLACK
6
CONTINUOUS
10
2.9000059448818898
20
-6.5755841732283464
11
2.8962564173228347
21
-6.5718346456692913
0
LINE
8
BLACK
6
CONTINUOUS
10
2.8962564173228347
20
-6.5718346456692913
11
2.9000059448818898
21
-6.5680850787401575
0
LINE
8
BLACK
6
CONTINUOUS
10
2.9000059448818898
20
-6.5680850787401575
11
2.9000059448818898
21
-6.5755841732283464
0
LINE
8
BLACK
6
CONTINUOUS
10
2.9787461023622046
20
-6.5755841732283464
11
2.9337517322834645
21
-6.5755841732283464
0
LINE
8
BLACK
6
CONTINUOUS
10
2.9562488976377952
20
-6.5755841732283464
11
2.9562488976377952
21
-6.4968440157480316
0
LINE
8
BLACK
6
CONTINUOUS
10
2.9562488976377952
20
-6.4968440157480316
11
2.948749842519685
21
-6.5080925984251969
0
LINE
8
BLACK
6
CONTINUOUS
10
2.948749842519685
20
-6.5080925984251969
11
2.9412507874015748
21
-6.5155916535433072
0
LINE
8
BLACK
6
CONTINUOUS
10
2.9412507874015748
20
-6.5155916535433072
11
2.9337517322834645
21
-6.5193411811023623
0
LINE
8
BLACK
6
CONTINUOUS
10
3.0087423622047242
20
-6.5043430708661418
11
3.0124918897637794
21
-6.5005935433070867
0
LINE
8
BLACK
6
CONTINUOUS
10
3.0124918897637794
20
-6.5005935433070867
11
3.0199909448818896
21
-6.4968440157480316
0
LINE
8
BLACK
6
CONTINUOUS
10
3.0199909448818896
20
-6.4968440157480316
11
3.0387386220472439
21
-6.4968440157480316
0
LINE
8
BLACK
6
CONTINUOUS
10
3.0387386220472439
20
-6.4968440157480316
11
3.0462376771653541
21
-6.5005935433070867
0
LINE
8
BLACK
6
CONTINUOUS
10
3.0462376771653541
20
-6.5005935433070867
11
3.0499872047244092
21
-6.5043430708661418
0
LINE
8
BLACK
6
CONTINUOUS
10
3.0499872047244092
20
-6.5043430708661418
11
3.0537367322834643
21
-6.511842125984252
0
LINE
8
BLACK
6
CONTINUOUS
10
3.0537367322834643
20
-6.511842125984252
11
3.0537367322834643
21
-6.5193411811023623
0
LINE
8
BLACK
6
CONTINUOUS
10
3.0537367322834643
20
-6.5193411811023623
11
3.0499872047244092
21
-6.5305897637795276
0
LINE
8
BLACK
6
CONTINUOUS
10
3.0499872047244092
20
-6.5305897637795276
11
3.0049928346456691
21
-6.5755841732283464
0
LINE
8
BLACK
6
CONTINUOUS
10
3.0049928346456691
20
-6.5755841732283464
11
3.0537367322834643
21
-6.5755841732283464
0
LINE
8
BLACK
6
CONTINUOUS
10
3.1212283070866143
20
-6.4968440157480316
11
3.1062301574803151
21
-6.4968440157480316
0
LINE
8
BLACK
6
CONTINUOUS
10
3.1062301574803151
20
-6.4968440157480316
11
3.0987311023622048
21
-6.5005935433070867
0
LINE
8
BLACK
6
CONTINUOUS
10
3.0987311023622048
20
-6.5005935433070867
11
3.0949815748031497
21
-6.5043430708661418
0
LINE
8
BLACK
6
CONTINUOUS
10
3.0949815748031497
20
-6.5043430708661418
11
3.0874825196850395
21
-6.5155916535433072
0
LINE
8
BLACK
6
CONTINUOUS
10
3.0874825196850395
20
-6.5155916535433072
11
3.0837329921259844
21
-6.5305897637795276
0
LINE
8
BLACK
6
CONTINUOUS
10
3.0837329921259844
20
-6.5305897637795276
11
3.0837329921259844
21
-6.5605860236220472
0
LINE
8
BLACK
6
CONTINUOUS
10
3.0837329921259844
20
-6.5605860236220472
11
3.0874825196850395
21
-6.5680850787401575
0
LINE
8
BLACK
6
CONTINUOUS
10
3.0874825196850395
20
-6.5680850787401575
11
3.0912320472440946
21
-6.5718346456692913
0
LINE
8
BLACK
6
CONTINUOUS
10
3.0912320472440946
20
-6.5718346456692913
11
3.0987311023622048
21
-6.5755841732283464
0
LINE
8
BLACK
6
CONTINUOUS
10
3.0987311023622048
20
-6.5755841732283464
11
3.113729251968504
21
-6.5755841732283464
0
LINE
8
BLACK
6
CONTINUOUS
10
3.113729251968504
20
-6.5755841732283464
11
3.1212283070866143
21
-6.5718346456692913
0
LINE
8
BLACK
6
CONTINUOUS
10
3.1212283070866143
20
-6.5718346456692913
11
3.1249778346456694
21
-6.5680850787401575
0
LINE
8
BLACK
6
CONTINUOUS
10
3.1249778346456694
20
-6.5680850787401575
11
3.1287273622047245
21
-6.5605860236220472
0
LINE
8
BLACK
6
CONTINUOUS
10
3.1287273622047245
20
-6.5605860236220472
11
3.1287273622047245
21
-6.5418383858267717
0
LINE
8
BLACK
6
CONTINUOUS
10
3.1287273622047245
20
-6.5418383858267717
11
3.1249778346456694
21
-6.5343393307086615
0
LINE
8
BLACK
6
CONTINUOUS
10
3.1249778346456694
20
-6.5343393307086615
11
3.1212283070866143
21
-6.5305897637795276
0
LINE
8
BLACK
6
CONTINUOUS
10
3.1212283070866143
20
-6.5305897637795276
11
3.113729251968504
21
-6.5268402362204725
0
LINE
8
BLACK
6
CONTINUOUS
10
3.113729251968504
20
-6.5268402362204725
11
3.0987311023622048
21
-6.5268402362204725
0
LINE
8
BLACK
6
CONTINUOUS
10
3.0987311023622048
20
-6.5268402362204725
11
3.0912320472440946
21
-6.5305897637795276
0
LINE
8
BLACK
6
CONTINUOUS
10
3.0912320472440946
20
-6.5305897637795276
11
3.0874825196850395
21
-6.5343393307086615
0
LINE
8
BLACK
6
CONTINUOUS
10
3.0874825196850395
20
-6.5343393307086615
11
3.0837329921259844
21
-6.5418383858267717
0
LINE
8
BLACK
6
CONTINUOUS
10
3.1774712598425197
20
-6.4968440157480316
11
3.1849703543307086
21
-6.4968440157480316
0
LINE
8
BLACK
6
CONTINUOUS
10
3.1849703543307086
20
-6.4968440157480316
11
3.1924694094488189
21
-6.5005935433070867
0
LINE
8
BLACK
6
CONTINUOUS
10
3.1924694094488189
20
-6.5005935433070867
11
3.196218937007874
21
-6.5043430708661418
0
LINE
8
BLACK
6
CONTINUOUS
10
3.196218937007874
20
-6.5043430708661418
11
3.1999684645669291
21
-6.511842125984252
0
LINE
8
BLACK
6
CONTINUOUS
10
3.1999684645669291
20
-6.511842125984252
11
3.2037179921259842
21
-6.5268402362204725
0
LINE
8
BLACK
6
CONTINUOUS
10
3.2037179921259842
20
-6.5268402362204725
11
3.2037179921259842
21
-6.5455879133858268
0
LINE
8
BLACK
6
CONTINUOUS
10
3.2037179921259842
20
-6.5455879133858268
11
3.1999684645669291
21
-6.5605860236220472
0
LINE
8
BLACK
6
CONTINUOUS
10
3.1999684645669291
20
-6.5605860236220472
11
3.196218937007874
21
-6.5680850787401575
0
LINE
8
BLACK
6
CONTINUOUS
10
3.196218937007874
20
-6.5680850787401575
11
3.1924694094488189
21
-6.5718346456692913
0
LINE
8
BLACK
6
CONTINUOUS
10
3.1924694094488189
20
-6.5718346456692913
11
3.1849703543307086
21
-6.5755841732283464
0
LINE
8
BLACK
6
CONTINUOUS
10
3.1849703543307086
20
-6.5755841732283464
11
3.1774712598425197
21
-6.5755841732283464
0
LINE
8
BLACK
6
CONTINUOUS
10
3.1774712598425197
20
-6.5755841732283464
11
3.1699722047244094
21
-6.5718346456692913
0
LINE
8
BLACK
6
CONTINUOUS
10
3.1699722047244094
20
-6.5718346456692913
11
3.1662226771653543
21
-6.5680850787401575
0
LINE
8
BLACK
6
CONTINUOUS
10
3.1662226771653543
20
-6.5680850787401575
11
3.1624731496062992
21
-6.5605860236220472
0
LINE
8
BLACK
6
CONTINUOUS
10
3.1624731496062992
20
-6.5605860236220472
11
3.1587236220472441
21
-6.5455879133858268
0
LINE
8
BLACK
6
CONTINUOUS
10
3.1587236220472441
20
-6.5455879133858268
11
3.1587236220472441
21
-6.5268402362204725
0
LINE
8
BLACK
6
CONTINUOUS
10
3.1587236220472441
20
-6.5268402362204725
11
3.1624731496062992
21
-6.511842125984252
0
LINE
8
BLACK
6
CONTINUOUS
10
3.1624731496062992
20
-6.511842125984252
11
3.1662226771653543
21
-6.5043430708661418
0
LINE
8
BLACK
6
CONTINUOUS
10
3.1662226771653543
20
-6.5043430708661418
11
3.1699722047244094
21
-6.5005935433070867
0
LINE
8
BLACK
6
CONTINUOUS
10
3.1699722047244094
20
-6.5005935433070867
11
3.1774712598425197
21
-6.4968440157480316
0
LINE
8
BLACK
6
CONTINUOUS
10
3.2337142519685038
20
-6.4968440157480316
11
3.2337142519685038
21
-6.511842125984252
0
LINE
8
BLACK
6
CONTINUOUS
10
3.2637105118110235
20
-6.4968440157480316
11
3.2637105118110235
21
-6.511842125984252
0
LINE
8
BLACK
6
CONTINUOUS
10
3.3799460236220473
20
-6.6055803937007873
11
3.3761964566929135
21
-6.6018308661417322
0
LINE
8
BLACK
6
CONTINUOUS
10
3.3761964566929135
20
-6.6018308661417322
11
3.3686974015748032
21
-6.5905822834645669
0
LINE
8
BLACK
6
CONTINUOUS
10
3.3686974015748032
20
-6.5905822834645669
11
3.3649478740157481
21
-6.5830832283464567
0
LINE
8
BLACK
6
CONTINUOUS
10
3.3649478740157481
20
-6.5830832283464567
11
3.361198346456693
21
-6.5718346456692913
0
LINE
8
BLACK
6
CONTINUOUS
10
3.361198346456693
20
-6.5718346456692913
11
3.3574488188976379
21
-6.553086968503937
0
LINE
8
BLACK
6
CONTINUOUS
10
3.3574488188976379
20
-6.553086968503937
11
3.3574488188976379
21
-6.5380888582677166
0
LINE
8
BLACK
6
CONTINUOUS
10
3.3574488188976379
20
-6.5380888582677166
11
3.361198346456693
21
-6.5193411811023623
0
LINE
8
BLACK
6
CONTINUOUS
10
3.361198346456693
20
-6.5193411811023623
11
3.3649478740157481
21
-6.5080925984251969
0
LINE
8
BLACK
6
CONTINUOUS
10
3.3649478740157481
20
-6.5080925984251969
11
3.3686974015748032
21
-6.5005935433070867
0
LINE
8
BLACK
6
CONTINUOUS
10
3.3686974015748032
20
-6.5005935433070867
11
3.3761964566929135
21
-6.4893449212598426
0
LINE
8
BLACK
6
CONTINUOUS
10
3.3761964566929135
20
-6.4893449212598426
11
3.3799460236220473
21
-6.4855953937007875
0
LINE
8
BLACK
6
CONTINUOUS
10
3.443688031496063
20
-6.5230907086614174
11
3.443688031496063
21
-6.5755841732283464
0
LINE
8
BLACK
6
CONTINUOUS
10
3.4249403543307086
20
-6.4930944881889765
11
3.4061927165354331
21
-6.5493374409448819
0
LINE
8
BLACK
6
CONTINUOUS
10
3.4061927165354331
20
-6.5493374409448819
11
3.4549366141732283
21
-6.5493374409448819
0
LINE
8
BLACK
6
CONTINUOUS
10
3.5449253937007872
20
-6.5755841732283464
11
3.5449253937007872
21
-6.4968440157480316
0
LINE
8
BLACK
6
CONTINUOUS
10
3.5786711811023619
20
-6.5755841732283464
11
3.5786711811023619
21
-6.5343393307086615
0
LINE
8
BLACK
6
CONTINUOUS
10
3.5786711811023619
20
-6.5343393307086615
11
3.5749216535433068
21
-6.5268402362204725
0
LINE
8
BLACK
6
CONTINUOUS
10
3.5749216535433068
20
-6.5268402362204725
11
3.5674225984251966
21
-6.5230907086614174
0
LINE
8
BLACK
6
CONTINUOUS
10
3.5674225984251966
20
-6.5230907086614174
11
3.5561739763779525
21
-6.5230907086614174
0
LINE
8
BLACK
6
CONTINUOUS
10
3.5561739763779525
20
-6.5230907086614174
11
3.5486749212598423
21
-6.5268402362204725
0
LINE
8
BLACK
6
CONTINUOUS
10
3.5486749212598423
20
-6.5268402362204725
11
3.5449253937007872
21
-6.5305897637795276
0
LINE
8
BLACK
6
CONTINUOUS
10
3.6274150787401576
20
-6.5755841732283464
11
3.6199160236220473
21
-6.5718346456692913
0
LINE
8
BLACK
6
CONTINUOUS
10
3.6199160236220473
20
-6.5718346456692913
11
3.6161664960629922
21
-6.5680850787401575
0
LINE
8
BLACK
6
CONTINUOUS
10
3.6161664960629922
20
-6.5680850787401575
11
3.6124169685039371
21
-6.5605860236220472
0
LINE
8
BLACK
6
CONTINUOUS
10
3.6124169685039371
20
-6.5605860236220472
11
3.6124169685039371
21
-6.5380888582677166
0
LINE
8
BLACK
6
CONTINUOUS
10
3.6124169685039371
20
-6.5380888582677166
11
3.6161664960629922
21
-6.5305897637795276
0
LINE
8
BLACK
6
CONTINUOUS
10
3.6161664960629922
20
-6.5305897637795276
11
3.6199160236220473
21
-6.5268402362204725
0
LINE
8
BLACK
6
CONTINUOUS
10
3.6199160236220473
20
-6.5268402362204725
11
3.6274150787401576
21
-6.5230907086614174
0
LINE
8
BLACK
6
CONTINUOUS
10
3.6274150787401576
20
-6.5230907086614174
11
3.6386637007874016
21
-6.5230907086614174
0
LINE
8
BLACK
6
CONTINUOUS
10
3.6386637007874016
20
-6.5230907086614174
11
3.6461627559055119
21
-6.5268402362204725
0
LINE
8
BLACK
6
CONTINUOUS
10
3.6461627559055119
20
-6.5268402362204725
11
3.649912283464567
21
-6.5305897637795276
0
LINE
8
BLACK
6
CONTINUOUS
10
3.649912283464567
20
-6.5305897637795276
11
3.6536618110236221
21
-6.5380888582677166
0
LINE
8
BLACK
6
CONTINUOUS
10
3.6536618110236221
20
-6.5380888582677166
11
3.6536618110236221
21
-6.5605860236220472
0
LINE
8
BLACK
6
CONTINUOUS
10
3.6536618110236221
20
-6.5605860236220472
11
3.649912283464567
21
-6.5680850787401575
0
LINE
8
BLACK
6
CONTINUOUS
10
3.649912283464567
20
-6.5680850787401575
11
3.6461627559055119
21
-6.5718346456692913
0
LINE
8
BLACK
6
CONTINUOUS
10
3.6461627559055119
20
-6.5718346456692913
11
3.6386637007874016
21
-6.5755841732283464
0
LINE
8
BLACK
6
CONTINUOUS
10
3.6386637007874016
20
-6.5755841732283464
11
3.6274150787401576
21
-6.5755841732283464
0
LINE
8
BLACK
6
CONTINUOUS
10
3.6986561811023622
20
-6.5755841732283464
11
3.6911571259842519
21
-6.5718346456692913
0
LINE
8
BLACK
6
CONTINUOUS
10
3.6911571259842519
20
-6.5718346456692913
11
3.6874075984251968
21
-6.5643355511811023
0
LINE
8
BLACK
6
CONTINUOUS
10
3.6874075984251968
20
-6.5643355511811023
11
3.6874075984251968
21
-6.4968440157480316
0
LINE
8
BLACK
6
CONTINUOUS
10
3.7586487007874014
20
-6.5718346456692913
11
3.7511496456692912
21
-6.5755841732283464
0
LINE
8
BLACK
6
CONTINUOUS
10
3.7511496456692912
20
-6.5755841732283464
11
3.736151496062992
21
-6.5755841732283464
0
LINE
8
BLACK
6
CONTINUOUS
10
3.736151496062992
20
-6.5755841732283464
11
3.7286524409448818
21
-6.5718346456692913
0
LINE
8
BLACK
6
CONTINUOUS
10
3.7286524409448818
20
-6.5718346456692913
11
3.7249029133858267
21
-6.5643355511811023
0
LINE
8
BLACK
6
CONTINUOUS
10
3.7249029133858267
20
-6.5643355511811023
11
3.7249029133858267
21
-6.5343393307086615
0
LINE
8
BLACK
6
CONTINUOUS
10
3.7249029133858267
20
-6.5343393307086615
11
3.7286524409448818
21
-6.5268402362204725
0
LINE
8
BLACK
6
CONTINUOUS
10
3.7286524409448818
20
-6.5268402362204725
11
3.736151496062992
21
-6.5230907086614174
0
LINE
8
BLACK
6
CONTINUOUS
10
3.736151496062992
20
-6.5230907086614174
11
3.7511496456692912
21
-6.5230907086614174
0
LINE
8
BLACK
6
CONTINUOUS
10
3.7511496456692912
20
-6.5230907086614174
11
3.7586487007874014
21
-6.5268402362204725
0
LINE
8
BLACK
6
CONTINUOUS
10
3.7586487007874014
20
-6.5268402362204725
11
3.7623982283464565
21
-6.5343393307086615
0
LINE
8
BLACK
6
CONTINUOUS
10
3.7623982283464565
20
-6.5343393307086615
11
3.7623982283464565
21
-6.5418383858267717
0
LINE
8
BLACK
6
CONTINUOUS
10
3.7623982283464565
20
-6.5418383858267717
11
3.7249029133858267
21
-6.5493374409448819
0
LINE
8
BLACK
6
CONTINUOUS
10
3.7923944881889762
20
-6.5718346456692913
11
3.7998935433070864
21
-6.5755841732283464
0
LINE
8
BLACK
6
CONTINUOUS
10
3.7998935433070864
20
-6.5755841732283464
11
3.8148916535433068
21
-6.5755841732283464
0
LINE
8
BLACK
6
CONTINUOUS
10
3.8148916535433068
20
-6.5755841732283464
11
3.8223907480314958
21
-6.5718346456692913
0
LINE
8
BLACK
6
CONTINUOUS
10
3.8223907480314958
20
-6.5718346456692913
11
3.8261402755905509
21
-6.5643355511811023
0
LINE
8
BLACK
6
CONTINUOUS
10
3.8261402755905509
20
-6.5643355511811023
11
3.8261402755905509
21
-6.5605860236220472
0
LINE
8
BLACK
6
CONTINUOUS
10
3.8261402755905509
20
-6.5605860236220472
11
3.8223907480314958
21
-6.553086968503937
0
LINE
8
BLACK
6
CONTINUOUS
10
3.8223907480314958
20
-6.553086968503937
11
3.8148916535433068
21
-6.5493374409448819
0
LINE
8
BLACK
6
CONTINUOUS
10
3.8148916535433068
20
-6.5493374409448819
11
3.8036430708661415
21
-6.5493374409448819
0
LINE
8
BLACK
6
CONTINUOUS
10
3.8036430708661415
20
-6.5493374409448819
11
3.7961440157480313
21
-6.5455879133858268
0
LINE
8
BLACK
6
CONTINUOUS
10
3.7961440157480313
20
-6.5455879133858268
11
3.7923944881889762
21
-6.5380888582677166
0
LINE
8
BLACK
6
CONTINUOUS
10
3.7923944881889762
20
-6.5380888582677166
11
3.7923944881889762
21
-6.5343393307086615
0
LINE
8
BLACK
6
CONTINUOUS
10
3.7923944881889762
20
-6.5343393307086615
11
3.7961440157480313
21
-6.5268402362204725
0
LINE
8
BLACK
6
CONTINUOUS
10
3.7961440157480313
20
-6.5268402362204725
11
3.8036430708661415
21
-6.5230907086614174
0
LINE
8
BLACK
6
CONTINUOUS
10
3.8036430708661415
20
-6.5230907086614174
11
3.8148916535433068
21
-6.5230907086614174
0
LINE
8
BLACK
6
CONTINUOUS
10
3.8148916535433068
20
-6.5230907086614174
11
3.8223907480314958
21
-6.5268402362204725
0
LINE
8
BLACK
6
CONTINUOUS
10
3.8523870078740154
20
-6.6055803937007873
11
3.856136535433071
21
-6.6018308661417322
0
LINE
8
BLACK
6
CONTINUOUS
10
3.856136535433071
20
-6.6018308661417322
11
3.8636355905511812
21
-6.5905822834645669
0
LINE
8
BLACK
6
CONTINUOUS
10
3.8636355905511812
20
-6.5905822834645669
11
3.8673851181102363
21
-6.5830832283464567
0
LINE
8
BLACK
6
CONTINUOUS
10
3.8673851181102363
20
-6.5830832283464567
11
3.8711346456692914
21
-6.5718346456692913
0
LINE
8
BLACK
6
CONTINUOUS
10
3.8711346456692914
20
-6.5718346456692913
11
3.8748841732283466
21
-6.553086968503937
0
LINE
8
BLACK
6
CONTINUOUS
10
3.8748841732283466
20
-6.553086968503937
11
3.8748841732283466
21
-6.5380888582677166
0
LINE
8
BLACK
6
CONTINUOUS
10
3.8748841732283466
20
-6.5380888582677166
11
3.8711346456692914
21
-6.5193411811023623
0
LINE
8
BLACK
6
CONTINUOUS
10
3.8711346456692914
20
-6.5193411811023623
11
3.8673851181102363
21
-6.5080925984251969
0
LINE
8
BLACK
6
CONTINUOUS
10
3.8673851181102363
20
-6.5080925984251969
11
3.8636355905511812
21
-6.5005935433070867
0
LINE
8
BLACK
6
CONTINUOUS
10
3.8636355905511812
20
-6.5005935433070867
11
3.856136535433071
21
-6.4893449212598426
0
LINE
8
BLACK
6
CONTINUOUS
10
3.856136535433071
20
-6.4893449212598426
11
3.8523870078740154
21
-6.4855953937007875
0
LINE
8
BLACK
6
CONTINUOUS
10
3.9948692125984251
20
-6.6055803937007873
11
3.9911196456692912
21
-6.6018308661417322
0
LINE
8
BLACK
6
CONTINUOUS
10
3.9911196456692912
20
-6.6018308661417322
11
3.983620590551181
21
-6.5905822834645669
0
LINE
8
BLACK
6
CONTINUOUS
10
3.983620590551181
20
-6.5905822834645669
11
3.9798710629921259
21
-6.5830832283464567
0
LINE
8
BLACK
6
CONTINUOUS
10
3.9798710629921259
20
-6.5830832283464567
11
3.9761215354330708
21
-6.5718346456692913
0
LINE
8
BLACK
6
CONTINUOUS
10
3.9761215354330708
20
-6.5718346456692913
11
3.9723720078740157
21
-6.553086968503937
0
LINE
8
BLACK
6
CONTINUOUS
10
3.9723720078740157
20
-6.553086968503937
11
3.9723720078740157
21
-6.5380888582677166
0
LINE
8
BLACK
6
CONTINUOUS
10
3.9723720078740157
20
-6.5380888582677166
11
3.9761215354330708
21
-6.5193411811023623
0
LINE
8
BLACK
6
CONTINUOUS
10
3.9761215354330708
20
-6.5193411811023623
11
3.9798710629921259
21
-6.5080925984251969
0
LINE
8
BLACK
6
CONTINUOUS
10
3.9798710629921259
20
-6.5080925984251969
11
3.983620590551181
21
-6.5005935433070867
0
LINE
8
BLACK
6
CONTINUOUS
10
3.983620590551181
20
-6.5005935433070867
11
3.9911196456692912
21
-6.4893449212598426
0
LINE
8
BLACK
6
CONTINUOUS
10
3.9911196456692912
20
-6.4893449212598426
11
3.9948692125984251
21
-6.4855953937007875
0
LINE
8
BLACK
6
CONTINUOUS
10
4.0248654330708664
20
-6.5230907086614174
11
4.0248654330708664
21
-6.5755841732283464
0
LINE
8
BLACK
6
CONTINUOUS
10
4.0248654330708664
20
-6.5305897637795276
11
4.0286149606299215
21
-6.5268402362204725
0
LINE
8
BLACK
6
CONTINUOUS
10
4.0286149606299215
20
-6.5268402362204725
11
4.0361140157480317
21
-6.5230907086614174
0
LINE
8
BLACK
6
CONTINUOUS
10
4.0361140157480317
20
-6.5230907086614174
11
4.0473626377952758
21
-6.5230907086614174
0
LINE
8
BLACK
6
CONTINUOUS
10
4.0473626377952758
20
-6.5230907086614174
11
4.0548616929133861
21
-6.5268402362204725
0
LINE
8
BLACK
6
CONTINUOUS
10
4.0548616929133861
20
-6.5268402362204725
11
4.0586112204724412
21
-6.5343393307086615
0
LINE
8
BLACK
6
CONTINUOUS
10
4.0586112204724412
20
-6.5343393307086615
11
4.0586112204724412
21
-6.5755841732283464
0
LINE
8
BLACK
6
CONTINUOUS
10
4.1073551181102363
20
-6.5755841732283464
11
4.0998560629921261
21
-6.5718346456692913
0
LINE
8
BLACK
6
CONTINUOUS
10
4.0998560629921261
20
-6.5718346456692913
11
4.096106535433071
21
-6.5680850787401575
0
LINE
8
BLACK
6
CONTINUOUS
10
4.096106535433071
20
-6.5680850787401575
11
4.0923570078740159
21
-6.5605860236220472
0
LINE
8
BLACK
6
CONTINUOUS
10
4.0923570078740159
20
-6.5605860236220472
11
4.0923570078740159
21
-6.5380888582677166
0
LINE
8
BLACK
6
CONTINUOUS
10
4.0923570078740159
20
-6.5380888582677166
11
4.096106535433071
21
-6.5305897637795276
0
LINE
8
BLACK
6
CONTINUOUS
10
4.096106535433071
20
-6.5305897637795276
11
4.0998560629921261
21
-6.5268402362204725
0
LINE
8
BLACK
6
CONTINUOUS
10
4.0998560629921261
20
-6.5268402362204725
11
4.1073551181102363
21
-6.5230907086614174
0
LINE
8
BLACK
6
CONTINUOUS
10
4.1073551181102363
20
-6.5230907086614174
11
4.1186037401574804
21
-6.5230907086614174
0
LINE
8
BLACK
6
CONTINUOUS
10
4.1186037401574804
20
-6.5230907086614174
11
4.1261027952755907
21
-6.5268402362204725
0
LINE
8
BLACK
6
CONTINUOUS
10
4.1261027952755907
20
-6.5268402362204725
11
4.1298523228346458
21
-6.5305897637795276
0
LINE
8
BLACK
6
CONTINUOUS
10
4.1298523228346458
20
-6.5305897637795276
11
4.1336018503937009
21
-6.5380888582677166
0
LINE
8
BLACK
6
CONTINUOUS
10
4.1336018503937009
20
-6.5380888582677166
11
4.1336018503937009
21
-6.5605860236220472
0
LINE
8
BLACK
6
CONTINUOUS
10
4.1336018503937009
20
-6.5605860236220472
11
4.1298523228346458
21
-6.5680850787401575
0
LINE
8
BLACK
6
CONTINUOUS
10
4.1298523228346458
20
-6.5680850787401575
11
4.1261027952755907
21
-6.5718346456692913
0
LINE
8
BLACK
6
CONTINUOUS
10
4.1261027952755907
20
-6.5718346456692913
11
4.1186037401574804
21
-6.5755841732283464
0
LINE
8
BLACK
6
CONTINUOUS
10
4.1186037401574804
20
-6.5755841732283464
11
4.1073551181102363
21
-6.5755841732283464
0
LINE
8
BLACK
6
CONTINUOUS
10
4.1560990551181103
20
-6.5230907086614174
11
4.1860952755905512
21
-6.5230907086614174
0
LINE
8
BLACK
6
CONTINUOUS
10
4.1673476377952756
20
-6.4968440157480316
11
4.1673476377952756
21
-6.5643355511811023
0
LINE
8
BLACK
6
CONTINUOUS
10
4.1673476377952756
20
-6.5643355511811023
11
4.1710971653543307
21
-6.5718346456692913
0
LINE
8
BLACK
6
CONTINUOUS
10
4.1710971653543307
20
-6.5718346456692913
11
4.1785962204724409
21
-6.5755841732283464
0
LINE
8
BLACK
6
CONTINUOUS
10
4.1785962204724409
20
-6.5755841732283464
11
4.1860952755905512
21
-6.5755841732283464
0
LINE
8
BLACK
6
CONTINUOUS
10
4.272334527559055
20
-6.5230907086614174
11
4.272334527559055
21
-6.6018308661417322
0
LINE
8
BLACK
6
CONTINUOUS
10
4.272334527559055
20
-6.5268402362204725
11
4.2798335826771652
21
-6.5230907086614174
0
LINE
8
BLACK
6
CONTINUOUS
10
4.2798335826771652
20
-6.5230907086614174
11
4.2948317322834644
21
-6.5230907086614174
0
LINE
8
BLACK
6
CONTINUOUS
10
4.2948317322834644
20
-6.5230907086614174
11
4.3023307874015746
21
-6.5268402362204725
0
LINE
8
BLACK
6
CONTINUOUS
10
4.3023307874015746
20
-6.5268402362204725
11
4.3060803149606297
21
-6.5305897637795276
0
LINE
8
BLACK
6
CONTINUOUS
10
4.3060803149606297
20
-6.5305897637795276
11
4.3098298425196848
21
-6.5380888582677166
0
LINE
8
BLACK
6
CONTINUOUS
10
4.3098298425196848
20
-6.5380888582677166
11
4.3098298425196848
21
-6.5605860236220472
0
LINE
8
BLACK
6
CONTINUOUS
10
4.3098298425196848
20
-6.5605860236220472
11
4.3060803149606297
21
-6.5680850787401575
0
LINE
8
BLACK
6
CONTINUOUS
10
4.3060803149606297
20
-6.5680850787401575
11
4.3023307874015746
21
-6.5718346456692913
0
LINE
8
BLACK
6
CONTINUOUS
10
4.3023307874015746
20
-6.5718346456692913
11
4.2948317322834644
21
-6.5755841732283464
0
LINE
8
BLACK
6
CONTINUOUS
10
4.2948317322834644
20
-6.5755841732283464
11
4.2798335826771652
21
-6.5755841732283464
0
LINE
8
BLACK
6
CONTINUOUS
10
4.2798335826771652
20
-6.5755841732283464
11
4.272334527559055
21
-6.5718346456692913
0
LINE
8
BLACK
6
CONTINUOUS
10
4.3548242125984249
20
-6.5755841732283464
11
4.3473251574803147
21
-6.5718346456692913
0
LINE
8
BLACK
6
CONTINUOUS
10
4.3473251574803147
20
-6.5718346456692913
11
4.3435756299212596
21
-6.5643355511811023
0
LINE
8
BLACK
6
CONTINUOUS
10
4.3435756299212596
20
-6.5643355511811023
11
4.3435756299212596
21
-6.4968440157480316
0
LINE
8
BLACK
6
CONTINUOUS
10
4.4185662598425193
20
-6.5755841732283464
11
4.4185662598425193
21
-6.5343393307086615
0
LINE
8
BLACK
6
CONTINUOUS
10
4.4185662598425193
20
-6.5343393307086615
11
4.4148167322834642
21
-6.5268402362204725
0
LINE
8
BLACK
6
CONTINUOUS
10
4.4148167322834642
20
-6.5268402362204725
11
4.4073176771653539
21
-6.5230907086614174
0
LINE
8
BLACK
6
CONTINUOUS
10
4.4073176771653539
20
-6.5230907086614174
11
4.3923195275590547
21
-6.5230907086614174
0
LINE
8
BLACK
6
CONTINUOUS
10
4.3923195275590547
20
-6.5230907086614174
11
4.3848204724409445
21
-6.5268402362204725
0
LINE
8
BLACK
6
CONTINUOUS
10
4.4185662598425193
20
-6.5718346456692913
11
4.4110672047244091
21
-6.5755841732283464
0
LINE
8
BLACK
6
CONTINUOUS
10
4.4110672047244091
20
-6.5755841732283464
11
4.3923195275590547
21
-6.5755841732283464
0
LINE
8
BLACK
6
CONTINUOUS
10
4.3923195275590547
20
-6.5755841732283464
11
4.3848204724409445
21
-6.5718346456692913
0
LINE
8
BLACK
6
CONTINUOUS
10
4.3848204724409445
20
-6.5718346456692913
11
4.3810709448818894
21
-6.5643355511811023
0
LINE
8
BLACK
6
CONTINUOUS
10
4.3810709448818894
20
-6.5643355511811023
11
4.3810709448818894
21
-6.5568364960629921
0
LINE
8
BLACK
6
CONTINUOUS
10
4.3810709448818894
20
-6.5568364960629921
11
4.3848204724409445
21
-6.5493374409448819
0
LINE
8
BLACK
6
CONTINUOUS
10
4.3848204724409445
20
-6.5493374409448819
11
4.3923195275590547
21
-6.5455879133858268
0
LINE
8
BLACK
6
CONTINUOUS
10
4.3923195275590547
20
-6.5455879133858268
11
4.4110672047244091
21
-6.5455879133858268
0
LINE
8
BLACK
6
CONTINUOUS
10
4.4110672047244091
20
-6.5455879133858268
11
4.4185662598425193
21
-6.5418383858267717
0
LINE
8
BLACK
6
CONTINUOUS
10
4.4448129921259838
20
-6.5230907086614174
11
4.4748092125984247
21
-6.5230907086614174
0
LINE
8
BLACK
6
CONTINUOUS
10
4.4560615748031491
20
-6.4968440157480316
11
4.4560615748031491
21
-6.5643355511811023
0
LINE
8
BLACK
6
CONTINUOUS
10
4.4560615748031491
20
-6.5643355511811023
11
4.4598111023622042
21
-6.5718346456692913
0
LINE
8
BLACK
6
CONTINUOUS
10
4.4598111023622042
20
-6.5718346456692913
11
4.4673101574803145
21
-6.5755841732283464
0
LINE
8
BLACK
6
CONTINUOUS
10
4.4673101574803145
20
-6.5755841732283464
11
4.4748092125984247
21
-6.5755841732283464
0
LINE
8
BLACK
6
CONTINUOUS
10
4.5310522047244097
20
-6.5718346456692913
11
4.5235531496062995
21
-6.5755841732283464
0
LINE
8
BLACK
6
CONTINUOUS
10
4.5235531496062995
20
-6.5755841732283464
11
4.5085550000000003
21
-6.5755841732283464
0
LINE
8
BLACK
6
CONTINUOUS
10
4.5085550000000003
20
-6.5755841732283464
11
4.5010559448818901
21
-6.5718346456692913
0
LINE
8
BLACK
6
CONTINUOUS
10
4.5010559448818901
20
-6.5718346456692913
11
4.497306417322835
21
-6.5643355511811023
0
LINE
8
BLACK
6
CONTINUOUS
10
4.497306417322835
20
-6.5643355511811023
11
4.497306417322835
21
-6.5343393307086615
0
LINE
8
BLACK
6
CONTINUOUS
10
4.497306417322835
20
-6.5343393307086615
11
4.5010559448818901
21
-6.5268402362204725
0
LINE
8
BLACK
6
CONTINUOUS
10
4.5010559448818901
20
-6.5268402362204725
11
4.5085550000000003
21
-6.5230907086614174
0
LINE
8
BLACK
6
CONTINUOUS
10
4.5085550000000003
20
-6.5230907086614174
11
4.5235531496062995
21
-6.5230907086614174
0
LINE
8
BLACK
6
CONTINUOUS
10
4.5235531496062995
20
-6.5230907086614174
11
4.5310522047244097
21
-6.5268402362204725
0
LINE
8
BLACK
6
CONTINUOUS
10
4.5310522047244097
20
-6.5268402362204725
11
4.5348017322834648
21
-6.5343393307086615
0
LINE
8
BLACK
6
CONTINUOUS
10
4.5348017322834648
20
-6.5343393307086615
11
4.5348017322834648
21
-6.5418383858267717
0
LINE
8
BLACK
6
CONTINUOUS
10
4.5348017322834648
20
-6.5418383858267717
11
4.497306417322835
21
-6.5493374409448819
0
LINE
8
BLACK
6
CONTINUOUS
10
4.6022933070866143
20
-6.5755841732283464
11
4.6022933070866143
21
-6.4968440157480316
0
LINE
8
BLACK
6
CONTINUOUS
10
4.6022933070866143
20
-6.5718346456692913
11
4.5947942519685041
21
-6.5755841732283464
0
LINE
8
BLACK
6
CONTINUOUS
10
4.5947942519685041
20
-6.5755841732283464
11
4.5797961023622049
21
-6.5755841732283464
0
LINE
8
BLACK
6
CONTINUOUS
10
4.5797961023622049
20
-6.5755841732283464
11
4.5722970472440947
21
-6.5718346456692913
0
LINE
8
BLACK
6
CONTINUOUS
10
4.5722970472440947
20
-6.5718346456692913
11
4.5685475196850396
21
-6.5680850787401575
0
LINE
8
BLACK
6
CONTINUOUS
10
4.5685475196850396
20
-6.5680850787401575
11
4.5647979921259845
21
-6.5605860236220472
0
LINE
8
BLACK
6
CONTINUOUS
10
4.5647979921259845
20
-6.5605860236220472
11
4.5647979921259845
21
-6.5380888582677166
0
LINE
8
BLACK
6
CONTINUOUS
10
4.5647979921259845
20
-6.5380888582677166
11
4.5685475196850396
21
-6.5305897637795276
0
LINE
8
BLACK
6
CONTINUOUS
10
4.5685475196850396
20
-6.5305897637795276
11
4.5722970472440947
21
-6.5268402362204725
0
LINE
8
BLACK
6
CONTINUOUS
10
4.5722970472440947
20
-6.5268402362204725
11
4.5797961023622049
21
-6.5230907086614174
0
LINE
8
BLACK
6
CONTINUOUS
10
4.5797961023622049
20
-6.5230907086614174
11
4.5947942519685041
21
-6.5230907086614174
0
LINE
8
BLACK
6
CONTINUOUS
10
4.5947942519685041
20
-6.5230907086614174
11
4.6022933070866143
21
-6.5268402362204725
0
LINE
8
BLACK
6
CONTINUOUS
10
4.632289566929134
20
-6.6055803937007873
11
4.6360390944881891
21
-6.6018308661417322
0
LINE
8
BLACK
6
CONTINUOUS
10
4.6360390944881891
20
-6.6018308661417322
11
4.6435381496062993
21
-6.5905822834645669
0
LINE
8
BLACK
6
CONTINUOUS
10
4.6435381496062993
20
-6.5905822834645669
11
4.6472876771653544
21
-6.5830832283464567
0
LINE
8
BLACK
6
CONTINUOUS
10
4.6472876771653544
20
-6.5830832283464567
11
4.6510372047244095
21
-6.5718346456692913
0
LINE
8
BLACK
6
CONTINUOUS
10
4.6510372047244095
20
-6.5718346456692913
11
4.6547867322834646
21
-6.553086968503937
0
LINE
8
BLACK
6
CONTINUOUS
10
4.6547867322834646
20
-6.553086968503937
11
4.6547867322834646
21
-6.5380888582677166
0
LINE
8
BLACK
6
CONTINUOUS
10
4.6547867322834646
20
-6.5380888582677166
11
4.6510372047244095
21
-6.5193411811023623
0
LINE
8
BLACK
6
CONTINUOUS
10
4.6510372047244095
20
-6.5193411811023623
11
4.6472876771653544
21
-6.5080925984251969
0
LINE
8
BLACK
6
CONTINUOUS
10
4.6472876771653544
20
-6.5080925984251969
11
4.6435381496062993
21
-6.5005935433070867
0
LINE
8
BLACK
6
CONTINUOUS
10
4.6435381496062993
20
-6.5005935433070867
11
4.6360390944881891
21
-6.4893449212598426
0
LINE
8
BLACK
6
CONTINUOUS
10
4.6360390944881891
20
-6.4893449212598426
11
4.632289566929134
21
-6.4855953937007875
  0
ENDSEC
  0
EOF
