%TF.GenerationSoftware,KiCad,Pcbnew,7.0.10*%
%TF.CreationDate,2025-05-21T01:52:54+02:00*%
%TF.ProjectId,LoadController,4c6f6164-436f-46e7-9472-6f6c6c65722e,rev?*%
%TF.SameCoordinates,Original*%
%TF.FileFunction,Copper,L1,Top*%
%TF.FilePolarity,Positive*%
%FSLAX46Y46*%
G04 Gerber Fmt 4.6, Leading zero omitted, Abs format (unit mm)*
G04 Created by KiCad (PCBNEW 7.0.10) date 2025-05-21 01:52:54*
%MOMM*%
%LPD*%
G01*
G04 APERTURE LIST*
G04 Aperture macros list*
%AMRoundRect*
0 Rectangle with rounded corners*
0 $1 Rounding radius*
0 $2 $3 $4 $5 $6 $7 $8 $9 X,Y pos of 4 corners*
0 Add a 4 corners polygon primitive as box body*
4,1,4,$2,$3,$4,$5,$6,$7,$8,$9,$2,$3,0*
0 Add four circle primitives for the rounded corners*
1,1,$1+$1,$2,$3*
1,1,$1+$1,$4,$5*
1,1,$1+$1,$6,$7*
1,1,$1+$1,$8,$9*
0 Add four rect primitives between the rounded corners*
20,1,$1+$1,$2,$3,$4,$5,0*
20,1,$1+$1,$4,$5,$6,$7,0*
20,1,$1+$1,$6,$7,$8,$9,0*
20,1,$1+$1,$8,$9,$2,$3,0*%
G04 Aperture macros list end*
%TA.AperFunction,SMDPad,CuDef*%
%ADD10RoundRect,0.250000X0.425000X-0.450000X0.425000X0.450000X-0.425000X0.450000X-0.425000X-0.450000X0*%
%TD*%
%TA.AperFunction,SMDPad,CuDef*%
%ADD11RoundRect,0.250000X-0.425000X0.450000X-0.425000X-0.450000X0.425000X-0.450000X0.425000X0.450000X0*%
%TD*%
%TA.AperFunction,SMDPad,CuDef*%
%ADD12RoundRect,0.218750X0.218750X0.256250X-0.218750X0.256250X-0.218750X-0.256250X0.218750X-0.256250X0*%
%TD*%
%TA.AperFunction,SMDPad,CuDef*%
%ADD13RoundRect,0.200000X0.200000X0.275000X-0.200000X0.275000X-0.200000X-0.275000X0.200000X-0.275000X0*%
%TD*%
%TA.AperFunction,SMDPad,CuDef*%
%ADD14RoundRect,0.200000X0.275000X-0.200000X0.275000X0.200000X-0.275000X0.200000X-0.275000X-0.200000X0*%
%TD*%
%TA.AperFunction,SMDPad,CuDef*%
%ADD15RoundRect,0.250000X-0.287500X-0.275000X0.287500X-0.275000X0.287500X0.275000X-0.287500X0.275000X0*%
%TD*%
%TA.AperFunction,SMDPad,CuDef*%
%ADD16RoundRect,0.225000X-0.225000X-0.250000X0.225000X-0.250000X0.225000X0.250000X-0.225000X0.250000X0*%
%TD*%
%TA.AperFunction,SMDPad,CuDef*%
%ADD17RoundRect,0.225000X-0.250000X0.225000X-0.250000X-0.225000X0.250000X-0.225000X0.250000X0.225000X0*%
%TD*%
%TA.AperFunction,SMDPad,CuDef*%
%ADD18RoundRect,0.218750X0.256250X-0.218750X0.256250X0.218750X-0.256250X0.218750X-0.256250X-0.218750X0*%
%TD*%
%TA.AperFunction,SMDPad,CuDef*%
%ADD19RoundRect,0.225000X0.225000X0.250000X-0.225000X0.250000X-0.225000X-0.250000X0.225000X-0.250000X0*%
%TD*%
%TA.AperFunction,SMDPad,CuDef*%
%ADD20RoundRect,0.250000X0.287500X0.275000X-0.287500X0.275000X-0.287500X-0.275000X0.287500X-0.275000X0*%
%TD*%
%TA.AperFunction,ComponentPad*%
%ADD21R,1.600000X1.600000*%
%TD*%
%TA.AperFunction,ComponentPad*%
%ADD22O,1.600000X1.600000*%
%TD*%
%TA.AperFunction,SMDPad,CuDef*%
%ADD23R,2.000000X1.500000*%
%TD*%
%TA.AperFunction,SMDPad,CuDef*%
%ADD24R,2.000000X3.800000*%
%TD*%
%TA.AperFunction,SMDPad,CuDef*%
%ADD25RoundRect,0.075000X0.075000X0.662500X-0.075000X0.662500X-0.075000X-0.662500X0.075000X-0.662500X0*%
%TD*%
%TA.AperFunction,SMDPad,CuDef*%
%ADD26RoundRect,0.075000X0.662500X0.075000X-0.662500X0.075000X-0.662500X-0.075000X0.662500X-0.075000X0*%
%TD*%
%TA.AperFunction,ComponentPad*%
%ADD27R,2.200000X2.200000*%
%TD*%
%TA.AperFunction,ComponentPad*%
%ADD28O,2.200000X2.200000*%
%TD*%
%TA.AperFunction,ComponentPad*%
%ADD29O,1.700000X1.700000*%
%TD*%
%TA.AperFunction,ComponentPad*%
%ADD30R,1.700000X1.700000*%
%TD*%
%TA.AperFunction,SMDPad,CuDef*%
%ADD31R,1.400000X1.200000*%
%TD*%
%TA.AperFunction,SMDPad,CuDef*%
%ADD32RoundRect,0.200000X-0.200000X-0.275000X0.200000X-0.275000X0.200000X0.275000X-0.200000X0.275000X0*%
%TD*%
%TA.AperFunction,SMDPad,CuDef*%
%ADD33R,2.000000X4.500000*%
%TD*%
%TA.AperFunction,SMDPad,CuDef*%
%ADD34RoundRect,0.250000X-0.787500X-1.025000X0.787500X-1.025000X0.787500X1.025000X-0.787500X1.025000X0*%
%TD*%
%TA.AperFunction,ComponentPad*%
%ADD35RoundRect,0.250000X1.550000X-0.650000X1.550000X0.650000X-1.550000X0.650000X-1.550000X-0.650000X0*%
%TD*%
%TA.AperFunction,ComponentPad*%
%ADD36O,3.600000X1.800000*%
%TD*%
%TA.AperFunction,SMDPad,CuDef*%
%ADD37RoundRect,0.225000X0.250000X-0.225000X0.250000X0.225000X-0.250000X0.225000X-0.250000X-0.225000X0*%
%TD*%
%TA.AperFunction,SMDPad,CuDef*%
%ADD38RoundRect,0.200000X-0.275000X0.200000X-0.275000X-0.200000X0.275000X-0.200000X0.275000X0.200000X0*%
%TD*%
%TA.AperFunction,SMDPad,CuDef*%
%ADD39RoundRect,0.218750X-0.218750X-0.381250X0.218750X-0.381250X0.218750X0.381250X-0.218750X0.381250X0*%
%TD*%
%TA.AperFunction,SMDPad,CuDef*%
%ADD40RoundRect,0.250000X-0.275000X0.287500X-0.275000X-0.287500X0.275000X-0.287500X0.275000X0.287500X0*%
%TD*%
%TA.AperFunction,SMDPad,CuDef*%
%ADD41RoundRect,0.218750X-0.218750X-0.256250X0.218750X-0.256250X0.218750X0.256250X-0.218750X0.256250X0*%
%TD*%
%TA.AperFunction,SMDPad,CuDef*%
%ADD42RoundRect,0.051250X-0.698750X-0.153750X0.698750X-0.153750X0.698750X0.153750X-0.698750X0.153750X0*%
%TD*%
%TA.AperFunction,ComponentPad*%
%ADD43R,1.500000X1.050000*%
%TD*%
%TA.AperFunction,ComponentPad*%
%ADD44O,1.500000X1.050000*%
%TD*%
%TA.AperFunction,SMDPad,CuDef*%
%ADD45R,1.000000X1.500000*%
%TD*%
%TA.AperFunction,ComponentPad*%
%ADD46C,3.000000*%
%TD*%
%TA.AperFunction,ComponentPad*%
%ADD47C,2.500000*%
%TD*%
%TA.AperFunction,ComponentPad*%
%ADD48C,4.000000*%
%TD*%
%TA.AperFunction,ComponentPad*%
%ADD49C,1.600000*%
%TD*%
%TA.AperFunction,SMDPad,CuDef*%
%ADD50RoundRect,0.200000X1.550000X0.200000X-1.550000X0.200000X-1.550000X-0.200000X1.550000X-0.200000X0*%
%TD*%
%TA.AperFunction,SMDPad,CuDef*%
%ADD51RoundRect,0.815000X1.485000X0.815000X-1.485000X0.815000X-1.485000X-0.815000X1.485000X-0.815000X0*%
%TD*%
%TA.AperFunction,ComponentPad*%
%ADD52RoundRect,0.250000X-1.550000X0.650000X-1.550000X-0.650000X1.550000X-0.650000X1.550000X0.650000X0*%
%TD*%
%TA.AperFunction,SMDPad,CuDef*%
%ADD53RoundRect,0.075000X-0.875000X-0.225000X0.875000X-0.225000X0.875000X0.225000X-0.875000X0.225000X0*%
%TD*%
%TA.AperFunction,SMDPad,CuDef*%
%ADD54RoundRect,0.218750X-0.381250X0.218750X-0.381250X-0.218750X0.381250X-0.218750X0.381250X0.218750X0*%
%TD*%
%TA.AperFunction,SMDPad,CuDef*%
%ADD55RoundRect,0.150000X-0.150000X0.512500X-0.150000X-0.512500X0.150000X-0.512500X0.150000X0.512500X0*%
%TD*%
%TA.AperFunction,ViaPad*%
%ADD56C,0.800000*%
%TD*%
%TA.AperFunction,Conductor*%
%ADD57C,0.180000*%
%TD*%
%TA.AperFunction,Conductor*%
%ADD58C,0.300000*%
%TD*%
%TA.AperFunction,Conductor*%
%ADD59C,0.250000*%
%TD*%
%TA.AperFunction,Conductor*%
%ADD60C,0.177800*%
%TD*%
%TA.AperFunction,Conductor*%
%ADD61C,0.700000*%
%TD*%
G04 APERTURE END LIST*
D10*
%TO.P,C25,2*%
%TO.N,GND*%
X110905000Y-80100000D03*
%TO.P,C25,1*%
%TO.N,+3.3VADC*%
X110905000Y-82800000D03*
%TD*%
%TO.P,C24,2*%
%TO.N,GND*%
X114305000Y-80075000D03*
%TO.P,C24,1*%
%TO.N,Net-(U2-VDDA)*%
X114305000Y-82775000D03*
%TD*%
D11*
%TO.P,C16,2*%
%TO.N,GND*%
X97450000Y-97800000D03*
%TO.P,C16,1*%
%TO.N,+3.3VADC*%
X97450000Y-95100000D03*
%TD*%
D12*
%TO.P,D5,1,A1*%
%TO.N,/MCU/NRST_R*%
X75087500Y-102275000D03*
%TO.P,D5,2,A2*%
%TO.N,GND*%
X73512500Y-102275000D03*
%TD*%
D13*
%TO.P,R6,1*%
%TO.N,/ETHController/RCT*%
X82430000Y-126895000D03*
%TO.P,R6,2*%
%TO.N,/ETHController/TPINP*%
X80780000Y-126895000D03*
%TD*%
D14*
%TO.P,R23,1*%
%TO.N,Net-(D9-A)*%
X158249999Y-77629999D03*
%TO.P,R23,2*%
%TO.N,Net-(D7-K)*%
X158249999Y-75979999D03*
%TD*%
D15*
%TO.P,C34,1*%
%TO.N,+3.3VADC*%
X153775000Y-100505000D03*
%TO.P,C34,2*%
%TO.N,GND*%
X155200000Y-100505000D03*
%TD*%
D16*
%TO.P,C7,1*%
%TO.N,+3.3VADC*%
X105875000Y-123370000D03*
%TO.P,C7,2*%
%TO.N,GND*%
X107425000Y-123370000D03*
%TD*%
D17*
%TO.P,C23,2*%
%TO.N,GND*%
X70550000Y-101050000D03*
%TO.P,C23,1*%
%TO.N,/MCU/NRST*%
X70550000Y-99500000D03*
%TD*%
D16*
%TO.P,C10,1*%
%TO.N,GND*%
X80612500Y-121475000D03*
%TO.P,C10,2*%
%TO.N,/ETHController/RCT*%
X82162500Y-121475000D03*
%TD*%
D12*
%TO.P,D4,1,A1*%
%TO.N,/MCU/SWO_R*%
X76687500Y-111250000D03*
%TO.P,D4,2,A2*%
%TO.N,GND*%
X75112500Y-111250000D03*
%TD*%
D18*
%TO.P,D2,1,A1*%
%TO.N,/MCU/SWDIO_R*%
X80287500Y-102417500D03*
%TO.P,D2,2,A2*%
%TO.N,GND*%
X80287500Y-100842500D03*
%TD*%
D19*
%TO.P,C40,1*%
%TO.N,Net-(U8-FB)*%
X63975000Y-55700000D03*
%TO.P,C40,2*%
%TO.N,+5V*%
X62425000Y-55700000D03*
%TD*%
D16*
%TO.P,C5,1*%
%TO.N,+3.3VADC*%
X105875000Y-119495000D03*
%TO.P,C5,2*%
%TO.N,GND*%
X107425000Y-119495000D03*
%TD*%
D14*
%TO.P,R30,1*%
%TO.N,Net-(D14-A)*%
X160942500Y-131120000D03*
%TO.P,R30,2*%
%TO.N,Net-(D12-K)*%
X160942500Y-129470000D03*
%TD*%
D20*
%TO.P,L3,2,2*%
%TO.N,+3.3VADC*%
X110830000Y-85375000D03*
%TO.P,L3,1,1*%
%TO.N,Net-(U2-VDDA)*%
X112255000Y-85375000D03*
%TD*%
D17*
%TO.P,C26,2*%
%TO.N,GND*%
X101145000Y-75030000D03*
%TO.P,C26,1*%
%TO.N,+3.3VADC*%
X101145000Y-73480000D03*
%TD*%
D21*
%TO.P,U4,1*%
%TO.N,Net-(R19-Pad2)*%
X141399999Y-76879999D03*
D22*
%TO.P,U4,2*%
%TO.N,GND*%
X141399999Y-79419999D03*
%TO.P,U4,3,NC*%
%TO.N,unconnected-(U4-NC-Pad3)*%
X141399999Y-81959999D03*
%TO.P,U4,4*%
%TO.N,Net-(R21-Pad1)*%
X149019999Y-81959999D03*
%TO.P,U4,5*%
%TO.N,Net-(D7-A)*%
X149019999Y-79419999D03*
%TO.P,U4,6*%
%TO.N,unconnected-(U4-Pad6)*%
X149019999Y-76879999D03*
%TD*%
D16*
%TO.P,C4,1*%
%TO.N,/ETHController/TCT*%
X84830000Y-130045000D03*
%TO.P,C4,2*%
%TO.N,GND*%
X86380000Y-130045000D03*
%TD*%
D17*
%TO.P,C29,1*%
%TO.N,Net-(U3-C2+)*%
X64320000Y-86925000D03*
%TO.P,C29,2*%
%TO.N,Net-(U3-C2-)*%
X64320000Y-88475000D03*
%TD*%
D14*
%TO.P,R14,1*%
%TO.N,/MCU/SWO_R*%
X77687500Y-102475000D03*
%TO.P,R14,2*%
%TO.N,/MCU/SWO*%
X77687500Y-100825000D03*
%TD*%
%TO.P,R19,1*%
%TO.N,/ACLoadControlStage/CT_IN2_L*%
X137950000Y-78475000D03*
%TO.P,R19,2*%
%TO.N,Net-(R19-Pad2)*%
X137950000Y-76825000D03*
%TD*%
D23*
%TO.P,U9,1,VI*%
%TO.N,+5V*%
X74375000Y-46275000D03*
%TO.P,U9,2,GND*%
%TO.N,GND*%
X74375000Y-48575000D03*
D24*
X80675000Y-48575000D03*
D23*
%TO.P,U9,3,VO*%
%TO.N,+3.3VADC*%
X74375000Y-50875000D03*
%TD*%
D25*
%TO.P,U2,48,VDD*%
%TO.N,+3.3VADC*%
X104750000Y-94212500D03*
%TO.P,U2,47,VSS*%
%TO.N,GND*%
X104250000Y-94212500D03*
%TO.P,U2,46,PB9*%
%TO.N,unconnected-(U2-PB9-Pad46)*%
X103750000Y-94212500D03*
%TO.P,U2,45,PB8*%
%TO.N,unconnected-(U2-PB8-Pad45)*%
X103250000Y-94212500D03*
%TO.P,U2,44,BOOT0*%
%TO.N,/MCU/BOOT0*%
X102750000Y-94212500D03*
%TO.P,U2,43,PB7*%
%TO.N,unconnected-(U2-PB7-Pad43)*%
X102250000Y-94212500D03*
%TO.P,U2,42,PB6*%
%TO.N,unconnected-(U2-PB6-Pad42)*%
X101750000Y-94212500D03*
%TO.P,U2,41,PB5*%
%TO.N,unconnected-(U2-PB5-Pad41)*%
X101250000Y-94212500D03*
%TO.P,U2,40,PB4*%
%TO.N,unconnected-(U2-PB4-Pad40)*%
X100750000Y-94212500D03*
%TO.P,U2,39,PB3*%
%TO.N,/MCU/SWO*%
X100250000Y-94212500D03*
%TO.P,U2,38,PA15*%
%TO.N,unconnected-(U2-PA15-Pad38)*%
X99750000Y-94212500D03*
%TO.P,U2,37,PA14*%
%TO.N,/MCU/SWCLK*%
X99250000Y-94212500D03*
D26*
%TO.P,U2,36,VDD*%
%TO.N,+3.3VADC*%
X97837500Y-92800000D03*
%TO.P,U2,35,VSS*%
%TO.N,GND*%
X97837500Y-92300000D03*
%TO.P,U2,34,PA13*%
%TO.N,/MCU/SWDIO*%
X97837500Y-91800000D03*
%TO.P,U2,33,PA12*%
%TO.N,unconnected-(U2-PA12-Pad33)*%
X97837500Y-91300000D03*
%TO.P,U2,32,PA11*%
%TO.N,unconnected-(U2-PA11-Pad32)*%
X97837500Y-90800000D03*
%TO.P,U2,31,PA10*%
%TO.N,/MCU/USART1_RX*%
X97837500Y-90300000D03*
%TO.P,U2,30,PA9*%
%TO.N,/MCU/USART1_TX*%
X97837500Y-89800000D03*
%TO.P,U2,29,PA8*%
%TO.N,unconnected-(U2-PA8-Pad29)*%
X97837500Y-89300000D03*
%TO.P,U2,28,PB15*%
%TO.N,/ACLoadControlStage/CT_IN1_L*%
X97837500Y-88800000D03*
%TO.P,U2,27,PB14*%
%TO.N,/ACLoadControlStage/CT_IN2_L*%
X97837500Y-88300000D03*
%TO.P,U2,26,PB13*%
%TO.N,/ACLoadControlStage/CT_IN2_R*%
X97837500Y-87800000D03*
%TO.P,U2,25,PB12*%
%TO.N,/ACLoadControlStage/CT_IN1_R*%
X97837500Y-87300000D03*
D25*
%TO.P,U2,24,VDD*%
%TO.N,+3.3VADC*%
X99250000Y-85887500D03*
%TO.P,U2,23,VSS*%
%TO.N,GND*%
X99750000Y-85887500D03*
%TO.P,U2,22,PB11*%
%TO.N,unconnected-(U2-PB11-Pad22)*%
X100250000Y-85887500D03*
%TO.P,U2,21,PB10*%
%TO.N,unconnected-(U2-PB10-Pad21)*%
X100750000Y-85887500D03*
%TO.P,U2,20,PB2*%
%TO.N,unconnected-(U2-PB2-Pad20)*%
X101250000Y-85887500D03*
%TO.P,U2,19,PB1*%
%TO.N,unconnected-(U2-PB1-Pad19)*%
X101750000Y-85887500D03*
%TO.P,U2,18,PB0*%
%TO.N,unconnected-(U2-PB0-Pad18)*%
X102250000Y-85887500D03*
%TO.P,U2,17,PA7*%
%TO.N,/ETHController/ETH_MOSI*%
X102750000Y-85887500D03*
%TO.P,U2,16,PA6*%
%TO.N,/ETHController/ETH_MISO*%
X103250000Y-85887500D03*
%TO.P,U2,15,PA5*%
%TO.N,/ETHController/ETH_SCK*%
X103750000Y-85887500D03*
%TO.P,U2,14,PA4*%
%TO.N,unconnected-(U2-PA4-Pad14)*%
X104250000Y-85887500D03*
%TO.P,U2,13,PA3*%
%TO.N,/MCU/TIM2_CH4*%
X104750000Y-85887500D03*
D26*
%TO.P,U2,12,PA2*%
%TO.N,/MCU/TIM2_CH3*%
X106162500Y-87300000D03*
%TO.P,U2,11,PA1*%
%TO.N,/MCU/TIM2_CH2*%
X106162500Y-87800000D03*
%TO.P,U2,10,PA0*%
%TO.N,unconnected-(U2-PA0-Pad10)*%
X106162500Y-88300000D03*
%TO.P,U2,9,VDDA*%
%TO.N,Net-(U2-VDDA)*%
X106162500Y-88800000D03*
%TO.P,U2,8,VSSA*%
%TO.N,GND*%
X106162500Y-89300000D03*
%TO.P,U2,7,NRST*%
%TO.N,/MCU/NRST*%
X106162500Y-89800000D03*
%TO.P,U2,6,PD1*%
%TO.N,/MCU/OSC_OUT*%
X106162500Y-90300000D03*
%TO.P,U2,5,PD0*%
%TO.N,/MCU/OSC_IN*%
X106162500Y-90800000D03*
%TO.P,U2,4,PC15*%
%TO.N,/ETHController/ETH_INT*%
X106162500Y-91300000D03*
%TO.P,U2,3,PC14*%
%TO.N,/ETHController/ETH_RESET*%
X106162500Y-91800000D03*
%TO.P,U2,2,PC13*%
%TO.N,/ETHController/ETH_CS*%
X106162500Y-92300000D03*
%TO.P,U2,1,VBAT*%
%TO.N,+3.3VADC*%
X106162500Y-92800000D03*
%TD*%
D14*
%TO.P,R26,1*%
%TO.N,/ACLoadControlStage/CT_IN1_R*%
X139525000Y-132625000D03*
%TO.P,R26,2*%
%TO.N,Net-(R26-Pad2)*%
X139525000Y-130975000D03*
%TD*%
D27*
%TO.P,D14,1,K*%
%TO.N,Net-(D12-A)*%
X167292500Y-125620000D03*
D28*
%TO.P,D14,2,A*%
%TO.N,Net-(D14-A)*%
X167292500Y-135780000D03*
%TD*%
D29*
%TO.P,J3,10,Pin_10*%
%TO.N,/MCU/SWDIO_R*%
X80197500Y-105835000D03*
%TO.P,J3,9,Pin_9*%
%TO.N,/MCU/SWCLK_R*%
X80197500Y-108375000D03*
%TO.P,J3,8,Pin_8*%
%TO.N,/MCU/SWO_R*%
X77657500Y-105835000D03*
%TO.P,J3,7,Pin_7*%
%TO.N,unconnected-(J3-Pin_7-Pad7)*%
X77657500Y-108375000D03*
%TO.P,J3,6,Pin_6*%
%TO.N,/MCU/NRST_R*%
X75117500Y-105835000D03*
%TO.P,J3,5,Pin_5*%
%TO.N,GND*%
X75117500Y-108375000D03*
%TO.P,J3,4,Pin_4*%
%TO.N,unconnected-(J3-Pin_4-Pad4)*%
X72577500Y-105835000D03*
%TO.P,J3,3,Pin_3*%
%TO.N,GND*%
X72577500Y-108375000D03*
%TO.P,J3,2,Pin_2*%
X70037500Y-105835000D03*
D30*
%TO.P,J3,1,Pin_1*%
%TO.N,+3.3VADC*%
X70037500Y-108375000D03*
%TD*%
D31*
%TO.P,Y2,1,1*%
%TO.N,/MCU/OSC_IN*%
X115630000Y-90900000D03*
%TO.P,Y2,2,2*%
%TO.N,GND*%
X117830000Y-90900000D03*
%TO.P,Y2,3,3*%
X117830000Y-89200000D03*
%TO.P,Y2,4,4*%
%TO.N,Net-(C18-Pad1)*%
X115630000Y-89200000D03*
%TD*%
D21*
%TO.P,U7,1*%
%TO.N,Net-(R26-Pad2)*%
X143142500Y-130970000D03*
D22*
%TO.P,U7,2*%
%TO.N,GND*%
X143142500Y-133510000D03*
%TO.P,U7,3,NC*%
%TO.N,unconnected-(U7-NC-Pad3)*%
X143142500Y-136050000D03*
%TO.P,U7,4*%
%TO.N,Net-(R28-Pad1)*%
X150762500Y-136050000D03*
%TO.P,U7,5*%
%TO.N,Net-(D12-A)*%
X150762500Y-133510000D03*
%TO.P,U7,6*%
%TO.N,unconnected-(U7-Pad6)*%
X150762500Y-130970000D03*
%TD*%
D16*
%TO.P,C6,1*%
%TO.N,/ETHController/TCT*%
X84915000Y-132475000D03*
%TO.P,C6,2*%
%TO.N,GND*%
X86465000Y-132475000D03*
%TD*%
%TO.P,C13,1*%
%TO.N,/ETHController/TCT*%
X85030000Y-136070000D03*
%TO.P,C13,2*%
%TO.N,GND*%
X86580000Y-136070000D03*
%TD*%
D32*
%TO.P,R9,1*%
%TO.N,Net-(J2-Pad2)*%
X73400000Y-140100000D03*
%TO.P,R9,2*%
%TO.N,/ETHController/LEDB*%
X75050000Y-140100000D03*
%TD*%
D33*
%TO.P,Y1,1,1*%
%TO.N,Net-(C2-Pad2)*%
X120712500Y-119450000D03*
%TO.P,Y1,2,2*%
%TO.N,/ETHController/OSC_IN_ETH*%
X120712500Y-127950000D03*
%TD*%
D34*
%TO.P,C41,1*%
%TO.N,+5V*%
X71237500Y-59200000D03*
%TO.P,C41,2*%
%TO.N,GND*%
X77462500Y-59200000D03*
%TD*%
D35*
%TO.P,J5,1,Pin_1*%
%TO.N,/ACLoadControlStage/NO2*%
X195592500Y-82805000D03*
D36*
%TO.P,J5,2,Pin_2*%
%TO.N,/ACLoadControlStage/C2*%
X195592500Y-77725000D03*
%TO.P,J5,3,Pin_3*%
%TO.N,/ACLoadControlStage/NC2*%
X195592500Y-72645000D03*
%TD*%
D37*
%TO.P,C11,1*%
%TO.N,+3.3VADC*%
X105975000Y-129625000D03*
%TO.P,C11,2*%
%TO.N,GND*%
X105975000Y-128075000D03*
%TD*%
D27*
%TO.P,D13,1,K*%
%TO.N,Net-(D11-A)*%
X166625000Y-97300000D03*
D28*
%TO.P,D13,2,A*%
%TO.N,Net-(D13-A)*%
X166625000Y-107460000D03*
%TD*%
D32*
%TO.P,R28,1*%
%TO.N,Net-(R28-Pad1)*%
X154192500Y-136070000D03*
%TO.P,R28,2*%
%TO.N,Net-(Q4-B)*%
X155842500Y-136070000D03*
%TD*%
%TO.P,R10,2*%
%TO.N,Net-(C18-Pad1)*%
X113430000Y-89150000D03*
%TO.P,R10,1*%
%TO.N,/MCU/OSC_OUT*%
X111780000Y-89150000D03*
%TD*%
D14*
%TO.P,R24,1*%
%TO.N,Net-(D10-A)*%
X158900000Y-53355000D03*
%TO.P,R24,2*%
%TO.N,Net-(D8-K)*%
X158900000Y-51705000D03*
%TD*%
D38*
%TO.P,R3,1*%
%TO.N,Net-(C2-Pad2)*%
X112412500Y-123000000D03*
%TO.P,R3,2*%
%TO.N,/ETHController/OSC_OUT_ETH*%
X112412500Y-124650000D03*
%TD*%
D16*
%TO.P,C31,1*%
%TO.N,Net-(U3-VS-)*%
X72550000Y-92950000D03*
%TO.P,C31,2*%
%TO.N,GND*%
X74100000Y-92950000D03*
%TD*%
D39*
%TO.P,L8,1,1*%
%TO.N,Net-(U8-SW)*%
X68950000Y-46275000D03*
%TO.P,L8,2,2*%
%TO.N,+5V*%
X71075000Y-46275000D03*
%TD*%
D40*
%TO.P,L7,1,1*%
%TO.N,+3.3VADC*%
X153775000Y-103580000D03*
%TO.P,L7,2,2*%
%TO.N,Net-(D11-A)*%
X153775000Y-105005000D03*
%TD*%
D13*
%TO.P,R7,2*%
%TO.N,/ETHController/TPINN*%
X80780000Y-125095000D03*
%TO.P,R7,1*%
%TO.N,/ETHController/RCT*%
X82430000Y-125095000D03*
%TD*%
D21*
%TO.P,U6,1*%
%TO.N,Net-(R25-Pad2)*%
X142605000Y-102465000D03*
D22*
%TO.P,U6,2*%
%TO.N,GND*%
X142605000Y-105005000D03*
%TO.P,U6,3,NC*%
%TO.N,unconnected-(U6-NC-Pad3)*%
X142605000Y-107545000D03*
%TO.P,U6,4*%
%TO.N,Net-(R27-Pad1)*%
X150225000Y-107545000D03*
%TO.P,U6,5*%
%TO.N,Net-(D11-A)*%
X150225000Y-105005000D03*
%TO.P,U6,6*%
%TO.N,unconnected-(U6-Pad6)*%
X150225000Y-102465000D03*
%TD*%
D37*
%TO.P,C20,2*%
%TO.N,GND*%
X94300000Y-92300000D03*
%TO.P,C20,1*%
%TO.N,+3.3VADC*%
X94300000Y-93850000D03*
%TD*%
D32*
%TO.P,R12,1*%
%TO.N,/MCU/SWDIO_R*%
X84237500Y-105880000D03*
%TO.P,R12,2*%
%TO.N,/MCU/SWDIO*%
X85887500Y-105880000D03*
%TD*%
D41*
%TO.P,D3,1,A1*%
%TO.N,/MCU/SWCLK_R*%
X80112500Y-111250000D03*
%TO.P,D3,2,A2*%
%TO.N,GND*%
X81687500Y-111250000D03*
%TD*%
D42*
%TO.P,U3,1,C1+*%
%TO.N,Net-(U3-C1+)*%
X68322500Y-85960750D03*
%TO.P,U3,2,VS+*%
%TO.N,Net-(U3-VS+)*%
X68322500Y-86610750D03*
%TO.P,U3,3,C1-*%
%TO.N,Net-(U3-C1-)*%
X68322500Y-87260750D03*
%TO.P,U3,4,C2+*%
%TO.N,Net-(U3-C2+)*%
X68322500Y-87910750D03*
%TO.P,U3,5,C2-*%
%TO.N,Net-(U3-C2-)*%
X68322500Y-88560750D03*
%TO.P,U3,6,VS-*%
%TO.N,Net-(U3-VS-)*%
X68322500Y-89210750D03*
%TO.P,U3,7,T2OUT*%
%TO.N,/MCU/RS232_RX*%
X68322500Y-89860750D03*
%TO.P,U3,8,R2IN*%
%TO.N,/MCU/RS232_TX*%
X68322500Y-90510750D03*
%TO.P,U3,9,R2OUT*%
%TO.N,/MCU/USART1_RX*%
X74092500Y-90510750D03*
%TO.P,U3,10,T2IN*%
%TO.N,/MCU/USART1_TX*%
X74092500Y-89860750D03*
%TO.P,U3,11,T1IN*%
%TO.N,unconnected-(U3-T1IN-Pad11)*%
X74092500Y-89210750D03*
%TO.P,U3,12,R1OUT*%
%TO.N,unconnected-(U3-R1OUT-Pad12)*%
X74092500Y-88560750D03*
%TO.P,U3,13,R1IN*%
%TO.N,unconnected-(U3-R1IN-Pad13)*%
X74092500Y-87910750D03*
%TO.P,U3,14,T1OUT*%
%TO.N,unconnected-(U3-T1OUT-Pad14)*%
X74092500Y-87260750D03*
%TO.P,U3,15,GND*%
%TO.N,GND*%
X74092500Y-86610750D03*
%TO.P,U3,16,VCC*%
%TO.N,+3.3VADC*%
X74092500Y-85960750D03*
%TD*%
D32*
%TO.P,R8,1*%
%TO.N,Net-(J2-Pad10)*%
X74050000Y-118325000D03*
%TO.P,R8,2*%
%TO.N,/ETHController/LEDA*%
X75700000Y-118325000D03*
%TD*%
D40*
%TO.P,L4,1,1*%
%TO.N,+3.3VADC*%
X153725000Y-54005000D03*
%TO.P,L4,2,2*%
%TO.N,Net-(D10-K)*%
X153725000Y-55430000D03*
%TD*%
D17*
%TO.P,C12,1*%
%TO.N,+3.3VADC*%
X106000000Y-131100000D03*
%TO.P,C12,2*%
%TO.N,GND*%
X106000000Y-132650000D03*
%TD*%
D16*
%TO.P,C9,1*%
%TO.N,/ETHController/RCT*%
X84855000Y-125095000D03*
%TO.P,C9,2*%
%TO.N,GND*%
X86405000Y-125095000D03*
%TD*%
D17*
%TO.P,C3,1*%
%TO.N,Net-(U1-VCAP)*%
X88655000Y-119595000D03*
%TO.P,C3,2*%
%TO.N,GND*%
X88655000Y-121145000D03*
%TD*%
D14*
%TO.P,R29,1*%
%TO.N,Net-(D13-A)*%
X159925000Y-103030000D03*
%TO.P,R29,2*%
%TO.N,Net-(D11-K)*%
X159925000Y-101380000D03*
%TD*%
D43*
%TO.P,Q1,1,E*%
%TO.N,GND*%
X158224999Y-83274999D03*
D44*
%TO.P,Q1,2,B*%
%TO.N,Net-(Q1-B)*%
X158224999Y-82004999D03*
%TO.P,Q1,3,C*%
%TO.N,Net-(D9-A)*%
X158224999Y-80734999D03*
%TD*%
D19*
%TO.P,C30,1*%
%TO.N,Net-(U3-VS+)*%
X70170000Y-82375000D03*
%TO.P,C30,2*%
%TO.N,GND*%
X68620000Y-82375000D03*
%TD*%
D21*
%TO.P,U5,1*%
%TO.N,Net-(R20-Pad2)*%
X142500000Y-52880000D03*
D22*
%TO.P,U5,2*%
%TO.N,GND*%
X142500000Y-55420000D03*
%TO.P,U5,3,NC*%
%TO.N,unconnected-(U5-NC-Pad3)*%
X142500000Y-57960000D03*
%TO.P,U5,4*%
%TO.N,Net-(R22-Pad1)*%
X150120000Y-57960000D03*
%TO.P,U5,5*%
%TO.N,Net-(D10-K)*%
X150120000Y-55420000D03*
%TO.P,U5,6*%
%TO.N,unconnected-(U5-Pad6)*%
X150120000Y-52880000D03*
%TD*%
D18*
%TO.P,D11,1,K*%
%TO.N,Net-(D11-K)*%
X159925000Y-98855000D03*
%TO.P,D11,2,A*%
%TO.N,Net-(D11-A)*%
X159925000Y-97280000D03*
%TD*%
D16*
%TO.P,C19,2*%
%TO.N,GND*%
X100780000Y-82950000D03*
%TO.P,C19,1*%
%TO.N,+3.3VADC*%
X99230000Y-82950000D03*
%TD*%
D45*
%TO.P,D6,4,A*%
%TO.N,+3.3VADC*%
X104170000Y-73430000D03*
%TO.P,D6,3,RK*%
%TO.N,Net-(D6-RK)*%
X105570000Y-73430000D03*
%TO.P,D6,2,GK*%
%TO.N,Net-(D6-GK)*%
X105570000Y-76930000D03*
%TO.P,D6,1,BK*%
%TO.N,Net-(D6-BK)*%
X104170000Y-76930000D03*
%TD*%
D14*
%TO.P,R1,1*%
%TO.N,/ETHController/OSC_IN_ETH*%
X115437500Y-124475000D03*
%TO.P,R1,2*%
%TO.N,Net-(C2-Pad2)*%
X115437500Y-122825000D03*
%TD*%
D28*
%TO.P,D10,2,A*%
%TO.N,Net-(D10-A)*%
X165000000Y-57335000D03*
D27*
%TO.P,D10,1,K*%
%TO.N,Net-(D10-K)*%
X165000000Y-47175000D03*
%TD*%
D16*
%TO.P,C18,1*%
%TO.N,Net-(C18-Pad1)*%
X116300000Y-86700000D03*
%TO.P,C18,2*%
%TO.N,GND*%
X117850000Y-86700000D03*
%TD*%
D20*
%TO.P,C37,1*%
%TO.N,+5V*%
X71025000Y-50775000D03*
%TO.P,C37,2*%
%TO.N,GND*%
X69600000Y-50775000D03*
%TD*%
D14*
%TO.P,R20,1*%
%TO.N,/ACLoadControlStage/CT_IN1_L*%
X138775000Y-54550000D03*
%TO.P,R20,2*%
%TO.N,Net-(R20-Pad2)*%
X138775000Y-52900000D03*
%TD*%
D32*
%TO.P,R31,1*%
%TO.N,+5V*%
X62425000Y-58350000D03*
%TO.P,R31,2*%
%TO.N,Net-(U8-FB)*%
X64075000Y-58350000D03*
%TD*%
D46*
%TO.P,K4,1*%
%TO.N,/ACLoadControlStage/C4*%
X173292500Y-131730000D03*
D47*
%TO.P,K4,2*%
%TO.N,Net-(D14-A)*%
X175242500Y-137780000D03*
D46*
%TO.P,K4,3*%
%TO.N,/ACLoadControlStage/NO4*%
X187442500Y-137780000D03*
%TO.P,K4,4*%
%TO.N,/ACLoadControlStage/NC4*%
X187492500Y-125730000D03*
D47*
%TO.P,K4,5*%
%TO.N,Net-(D12-A)*%
X175242500Y-125780000D03*
%TD*%
D46*
%TO.P,K3,1*%
%TO.N,/ACLoadControlStage/C3*%
X172700000Y-103180000D03*
D47*
%TO.P,K3,2*%
%TO.N,Net-(D13-A)*%
X174650000Y-109230000D03*
D46*
%TO.P,K3,3*%
%TO.N,/ACLoadControlStage/NO3*%
X186850000Y-109230000D03*
%TO.P,K3,4*%
%TO.N,/ACLoadControlStage/NC3*%
X186900000Y-97180000D03*
D47*
%TO.P,K3,5*%
%TO.N,Net-(D11-A)*%
X174650000Y-97230000D03*
%TD*%
D43*
%TO.P,Q4,1,E*%
%TO.N,GND*%
X160967500Y-137360000D03*
D44*
%TO.P,Q4,2,B*%
%TO.N,Net-(Q4-B)*%
X160967500Y-136090000D03*
%TO.P,Q4,3,C*%
%TO.N,Net-(D14-A)*%
X160967500Y-134820000D03*
%TD*%
D46*
%TO.P,K1,1*%
%TO.N,/ACLoadControlStage/C2*%
X171100000Y-77780000D03*
D47*
%TO.P,K1,2*%
%TO.N,Net-(D9-A)*%
X173050000Y-83830000D03*
D46*
%TO.P,K1,3*%
%TO.N,/ACLoadControlStage/NO2*%
X185250000Y-83830000D03*
%TO.P,K1,4*%
%TO.N,/ACLoadControlStage/NC2*%
X185300000Y-71780000D03*
D47*
%TO.P,K1,5*%
%TO.N,Net-(D7-A)*%
X173050000Y-71830000D03*
%TD*%
D17*
%TO.P,C2,1*%
%TO.N,GND*%
X115512500Y-118025000D03*
%TO.P,C2,2*%
%TO.N,Net-(C2-Pad2)*%
X115512500Y-119575000D03*
%TD*%
D18*
%TO.P,D7,1,K*%
%TO.N,Net-(D7-K)*%
X158200000Y-73275000D03*
%TO.P,D7,2,A*%
%TO.N,Net-(D7-A)*%
X158200000Y-71700000D03*
%TD*%
D15*
%TO.P,C39,1*%
%TO.N,+3.3VADC*%
X74350000Y-54725000D03*
%TO.P,C39,2*%
%TO.N,GND*%
X75775000Y-54725000D03*
%TD*%
D14*
%TO.P,R16,2*%
%TO.N,Net-(D6-RK)*%
X107450000Y-79325000D03*
%TO.P,R16,1*%
%TO.N,/MCU/TIM2_CH2*%
X107450000Y-80975000D03*
%TD*%
D48*
%TO.P,J4,0,PAD*%
%TO.N,GND*%
X58250331Y-77235000D03*
X58250331Y-102235000D03*
D21*
%TO.P,J4,1,1*%
%TO.N,unconnected-(J4-Pad1)*%
X58550331Y-95275000D03*
D49*
%TO.P,J4,2,2*%
%TO.N,/MCU/RS232_TX*%
X58550331Y-92505000D03*
%TO.P,J4,3,3*%
%TO.N,/MCU/RS232_RX*%
X58550331Y-89735000D03*
%TO.P,J4,4,4*%
%TO.N,unconnected-(J4-Pad4)*%
X58550331Y-86965000D03*
%TO.P,J4,5,5*%
%TO.N,GND*%
X58550331Y-84195000D03*
%TO.P,J4,6,6*%
%TO.N,unconnected-(J4-Pad6)*%
X55710331Y-93890000D03*
%TO.P,J4,7,7*%
%TO.N,unconnected-(J4-Pad7)*%
X55710331Y-91120000D03*
%TO.P,J4,8,8*%
%TO.N,unconnected-(J4-Pad8)*%
X55710331Y-88350000D03*
%TO.P,J4,9,9*%
%TO.N,unconnected-(J4-Pad9)*%
X55710331Y-85580000D03*
%TD*%
D18*
%TO.P,D12,1,K*%
%TO.N,Net-(D12-K)*%
X160942500Y-127220000D03*
%TO.P,D12,2,A*%
%TO.N,Net-(D12-A)*%
X160942500Y-125645000D03*
%TD*%
D35*
%TO.P,J6,1,Pin_1*%
%TO.N,/ACLoadControlStage/NO1*%
X195592500Y-58205000D03*
D36*
%TO.P,J6,2,Pin_2*%
%TO.N,/ACLoadControlStage/C1*%
X195592500Y-53125000D03*
%TO.P,J6,3,Pin_3*%
%TO.N,/ACLoadControlStage/NC1*%
X195592500Y-48045000D03*
%TD*%
D15*
%TO.P,C32,1*%
%TO.N,+3.3VADC*%
X152474999Y-75304999D03*
%TO.P,C32,2*%
%TO.N,GND*%
X153899999Y-75304999D03*
%TD*%
D13*
%TO.P,R5,1*%
%TO.N,/ETHController/TCT*%
X82302500Y-130045000D03*
%TO.P,R5,2*%
%TO.N,/ETHController/TPOUTN*%
X80652500Y-130045000D03*
%TD*%
%TO.P,R4,1*%
%TO.N,/ETHController/TCT*%
X82362500Y-132475000D03*
%TO.P,R4,2*%
%TO.N,/ETHController/TPOUTP*%
X80712500Y-132475000D03*
%TD*%
D18*
%TO.P,D8,1,K*%
%TO.N,Net-(D8-K)*%
X158900000Y-48775000D03*
%TO.P,D8,2,A*%
%TO.N,Net-(D10-K)*%
X158900000Y-47200000D03*
%TD*%
D37*
%TO.P,C1,1*%
%TO.N,GND*%
X115412500Y-129100000D03*
%TO.P,C1,2*%
%TO.N,/ETHController/OSC_IN_ETH*%
X115412500Y-127550000D03*
%TD*%
D35*
%TO.P,J7,1,Pin_1*%
%TO.N,/ACLoadControlStage/NO3*%
X195692500Y-108205000D03*
D36*
%TO.P,J7,2,Pin_2*%
%TO.N,/ACLoadControlStage/C3*%
X195692500Y-103125000D03*
%TO.P,J7,3,Pin_3*%
%TO.N,/ACLoadControlStage/NC3*%
X195692500Y-98045000D03*
%TD*%
D40*
%TO.P,L5,1,1*%
%TO.N,+3.3VADC*%
X152474999Y-77979999D03*
%TO.P,L5,2,2*%
%TO.N,Net-(D7-A)*%
X152474999Y-79404999D03*
%TD*%
D14*
%TO.P,R17,2*%
%TO.N,Net-(D6-GK)*%
X105600000Y-79325000D03*
%TO.P,R17,1*%
%TO.N,/MCU/TIM2_CH3*%
X105600000Y-80975000D03*
%TD*%
D43*
%TO.P,Q2,1,E*%
%TO.N,GND*%
X158875000Y-59245000D03*
D44*
%TO.P,Q2,2,B*%
%TO.N,Net-(Q2-B)*%
X158875000Y-57975000D03*
%TO.P,Q2,3,C*%
%TO.N,Net-(D10-A)*%
X158875000Y-56705000D03*
%TD*%
D32*
%TO.P,R21,1*%
%TO.N,Net-(R21-Pad1)*%
X151724999Y-81954999D03*
%TO.P,R21,2*%
%TO.N,Net-(Q1-B)*%
X153374999Y-81954999D03*
%TD*%
D50*
%TO.P,J2,1*%
%TO.N,GND*%
X74137500Y-135290000D03*
%TO.P,J2,2*%
%TO.N,Net-(J2-Pad2)*%
X74137500Y-134020000D03*
%TO.P,J2,3,TCT*%
%TO.N,/ETHController/TCT*%
X74137500Y-132750000D03*
%TO.P,J2,4,TD+*%
%TO.N,/ETHController/TPOUTP*%
X74137500Y-131480000D03*
%TO.P,J2,5,TD-*%
%TO.N,/ETHController/TPOUTN*%
X74137500Y-130210000D03*
%TO.P,J2,6,RD+*%
%TO.N,/ETHController/TPINP*%
X74137500Y-128940000D03*
%TO.P,J2,7,RD-*%
%TO.N,/ETHController/TPINN*%
X74137500Y-127670000D03*
%TO.P,J2,8,RCT*%
%TO.N,/ETHController/RCT*%
X74137500Y-126400000D03*
%TO.P,J2,9*%
%TO.N,GND*%
X74137500Y-125130000D03*
%TO.P,J2,10*%
%TO.N,Net-(J2-Pad10)*%
X74137500Y-123860000D03*
D51*
%TO.P,J2,SH*%
%TO.N,GND*%
X56987500Y-136345000D03*
X56987500Y-122805000D03*
%TD*%
D15*
%TO.P,L2,1,1*%
%TO.N,+3.3VADC*%
X80830000Y-136095000D03*
%TO.P,L2,2,2*%
%TO.N,/ETHController/TCT*%
X82255000Y-136095000D03*
%TD*%
D52*
%TO.P,J1,1,Pin_1*%
%TO.N,+24V*%
X58707500Y-48415000D03*
D36*
%TO.P,J1,2,Pin_2*%
%TO.N,GND*%
X58707500Y-53495000D03*
%TD*%
D17*
%TO.P,C27,1*%
%TO.N,Net-(U3-C1+)*%
X64270000Y-83225000D03*
%TO.P,C27,2*%
%TO.N,Net-(U3-C1-)*%
X64270000Y-84775000D03*
%TD*%
D43*
%TO.P,Q3,1,E*%
%TO.N,GND*%
X159925000Y-108845000D03*
D44*
%TO.P,Q3,2,B*%
%TO.N,Net-(Q3-B)*%
X159925000Y-107575000D03*
%TO.P,Q3,3,C*%
%TO.N,Net-(D13-A)*%
X159925000Y-106305000D03*
%TD*%
D32*
%TO.P,R22,1*%
%TO.N,Net-(R22-Pad1)*%
X152550000Y-57955000D03*
%TO.P,R22,2*%
%TO.N,Net-(Q2-B)*%
X154200000Y-57955000D03*
%TD*%
D41*
%TO.P,D1,1,A1*%
%TO.N,+3.3VADC*%
X69987500Y-111250000D03*
%TO.P,D1,2,A2*%
%TO.N,GND*%
X71562500Y-111250000D03*
%TD*%
D20*
%TO.P,C36,1*%
%TO.N,+24V*%
X58650000Y-42975000D03*
%TO.P,C36,2*%
%TO.N,GND*%
X57225000Y-42975000D03*
%TD*%
D32*
%TO.P,R27,1*%
%TO.N,Net-(R27-Pad1)*%
X153200000Y-107530000D03*
%TO.P,R27,2*%
%TO.N,Net-(Q3-B)*%
X154850000Y-107530000D03*
%TD*%
D14*
%TO.P,R18,2*%
%TO.N,Net-(D6-BK)*%
X103625000Y-79325000D03*
%TO.P,R18,1*%
%TO.N,/MCU/TIM2_CH4*%
X103625000Y-80975000D03*
%TD*%
D53*
%TO.P,U1,1,VCAP*%
%TO.N,Net-(U1-VCAP)*%
X91945000Y-119570000D03*
%TO.P,U1,2,VSS*%
%TO.N,GND*%
X91945000Y-120840000D03*
%TO.P,U1,3,CLKOUT*%
%TO.N,unconnected-(U1-CLKOUT-Pad3)*%
X91945000Y-122110000D03*
%TO.P,U1,4,~{INT}*%
%TO.N,/ETHController/ETH_INT*%
X91945000Y-123380000D03*
%TO.P,U1,5*%
%TO.N,N/C*%
X91945000Y-124650000D03*
%TO.P,U1,6,SO*%
%TO.N,/ETHController/ETH_MISO*%
X91945000Y-125920000D03*
%TO.P,U1,7,SI*%
%TO.N,/ETHController/ETH_MOSI*%
X91945000Y-127190000D03*
%TO.P,U1,8,SCK*%
%TO.N,/ETHController/ETH_SCK*%
X91945000Y-128460000D03*
%TO.P,U1,9,~{CS}*%
%TO.N,/ETHController/ETH_CS*%
X91945000Y-129730000D03*
%TO.P,U1,10,~{RESET}*%
%TO.N,/ETHController/ETH_RESET*%
X91945000Y-131000000D03*
%TO.P,U1,11,VSSRX*%
%TO.N,GND*%
X91945000Y-132270000D03*
%TO.P,U1,12,TPIN-*%
%TO.N,/ETHController/TPINN*%
X91945000Y-133540000D03*
%TO.P,U1,13,TPIN+*%
%TO.N,/ETHController/TPINP*%
X91945000Y-134810000D03*
%TO.P,U1,14,RBIAS*%
%TO.N,Net-(U1-RBIAS)*%
X91945000Y-136080000D03*
%TO.P,U1,15,VDDTX*%
%TO.N,+3.3VADC*%
X101155000Y-136080000D03*
%TO.P,U1,16,TPOUT-*%
%TO.N,/ETHController/TPOUTN*%
X101155000Y-134810000D03*
%TO.P,U1,17,TPOUT+*%
%TO.N,/ETHController/TPOUTP*%
X101155000Y-133540000D03*
%TO.P,U1,18,VSSTX*%
%TO.N,GND*%
X101155000Y-132270000D03*
%TO.P,U1,19,VDDRX*%
%TO.N,+3.3VADC*%
X101155000Y-131000000D03*
%TO.P,U1,20,VDDPLL*%
X101155000Y-129730000D03*
%TO.P,U1,21,VSSPLL*%
%TO.N,GND*%
X101155000Y-128460000D03*
%TO.P,U1,22,VSSOSC*%
X101155000Y-127190000D03*
%TO.P,U1,23,OSC1*%
%TO.N,/ETHController/OSC_IN_ETH*%
X101155000Y-125920000D03*
%TO.P,U1,24,OSC2*%
%TO.N,/ETHController/OSC_OUT_ETH*%
X101155000Y-124650000D03*
%TO.P,U1,25,VDDOSC*%
%TO.N,+3.3VADC*%
X101155000Y-123380000D03*
%TO.P,U1,26,LEDB*%
%TO.N,/ETHController/LEDB*%
X101155000Y-122110000D03*
%TO.P,U1,27,LEDA*%
%TO.N,/ETHController/LEDA*%
X101155000Y-120840000D03*
%TO.P,U1,28,VDD*%
%TO.N,+3.3VADC*%
X101155000Y-119570000D03*
%TD*%
D17*
%TO.P,C28,1*%
%TO.N,+3.3VADC*%
X77825000Y-85525000D03*
%TO.P,C28,2*%
%TO.N,GND*%
X77825000Y-87075000D03*
%TD*%
D35*
%TO.P,J8,1,Pin_1*%
%TO.N,/ACLoadControlStage/NO4*%
X195692500Y-136755000D03*
D36*
%TO.P,J8,2,Pin_2*%
%TO.N,/ACLoadControlStage/C4*%
X195692500Y-131675000D03*
%TO.P,J8,3,Pin_3*%
%TO.N,/ACLoadControlStage/NC4*%
X195692500Y-126595000D03*
%TD*%
D16*
%TO.P,C21,2*%
%TO.N,GND*%
X110625000Y-95950000D03*
%TO.P,C21,1*%
%TO.N,+3.3VADC*%
X109075000Y-95950000D03*
%TD*%
%TO.P,C14,1*%
%TO.N,+3.3VADC*%
X104480000Y-136070000D03*
%TO.P,C14,2*%
%TO.N,GND*%
X106030000Y-136070000D03*
%TD*%
%TO.P,C8,1*%
%TO.N,/ETHController/RCT*%
X84880000Y-126895000D03*
%TO.P,C8,2*%
%TO.N,GND*%
X86430000Y-126895000D03*
%TD*%
D27*
%TO.P,D9,1,K*%
%TO.N,Net-(D7-A)*%
X164550000Y-71725000D03*
D28*
%TO.P,D9,2,A*%
%TO.N,Net-(D9-A)*%
X164550000Y-81885000D03*
%TD*%
D54*
%TO.P,L1,1,1*%
%TO.N,+3.3VADC*%
X84950000Y-119350000D03*
%TO.P,L1,2,2*%
%TO.N,/ETHController/RCT*%
X84950000Y-121475000D03*
%TD*%
D46*
%TO.P,K2,1*%
%TO.N,/ACLoadControlStage/C1*%
X171275000Y-53180000D03*
D47*
%TO.P,K2,2*%
%TO.N,Net-(D10-A)*%
X173225000Y-59230000D03*
D46*
%TO.P,K2,3*%
%TO.N,/ACLoadControlStage/NO1*%
X185425000Y-59230000D03*
%TO.P,K2,4*%
%TO.N,/ACLoadControlStage/NC1*%
X185475000Y-47180000D03*
D47*
%TO.P,K2,5*%
%TO.N,Net-(D10-K)*%
X173225000Y-47230000D03*
%TD*%
D32*
%TO.P,R2,1*%
%TO.N,Net-(U1-RBIAS)*%
X91950000Y-138250000D03*
%TO.P,R2,2*%
%TO.N,GND*%
X93600000Y-138250000D03*
%TD*%
%TO.P,R13,1*%
%TO.N,/MCU/SWCLK_R*%
X84237500Y-108450000D03*
%TO.P,R13,2*%
%TO.N,/MCU/SWCLK*%
X85887500Y-108450000D03*
%TD*%
D14*
%TO.P,R25,1*%
%TO.N,/ACLoadControlStage/CT_IN2_R*%
X138975000Y-104125000D03*
%TO.P,R25,2*%
%TO.N,Net-(R25-Pad2)*%
X138975000Y-102475000D03*
%TD*%
D40*
%TO.P,L6,1,1*%
%TO.N,+3.3VADC*%
X154742500Y-132095000D03*
%TO.P,L6,2,2*%
%TO.N,Net-(D12-A)*%
X154742500Y-133520000D03*
%TD*%
D13*
%TO.P,R15,2*%
%TO.N,/MCU/NRST*%
X73512500Y-99505000D03*
%TO.P,R15,1*%
%TO.N,/MCU/NRST_R*%
X75162500Y-99505000D03*
%TD*%
D15*
%TO.P,C35,1*%
%TO.N,+3.3VADC*%
X154792500Y-128970000D03*
%TO.P,C35,2*%
%TO.N,GND*%
X156217500Y-128970000D03*
%TD*%
D32*
%TO.P,R32,1*%
%TO.N,Net-(U8-FB)*%
X66825000Y-58350000D03*
%TO.P,R32,2*%
%TO.N,GND*%
X68475000Y-58350000D03*
%TD*%
D16*
%TO.P,C38,1*%
%TO.N,Net-(U8-SW)*%
X64950000Y-46325000D03*
%TO.P,C38,2*%
%TO.N,Net-(U8-BS)*%
X66500000Y-46325000D03*
%TD*%
D55*
%TO.P,U8,1,GND*%
%TO.N,GND*%
X65887500Y-50842500D03*
%TO.P,U8,2,SW*%
%TO.N,Net-(U8-SW)*%
X64937500Y-50842500D03*
%TO.P,U8,3,VIN*%
%TO.N,+24V*%
X63987500Y-50842500D03*
%TO.P,U8,4,FB*%
%TO.N,Net-(U8-FB)*%
X63987500Y-53117500D03*
%TO.P,U8,5,EN*%
%TO.N,+24V*%
X64937500Y-53117500D03*
%TO.P,U8,6,BS*%
%TO.N,Net-(U8-BS)*%
X65887500Y-53117500D03*
%TD*%
D37*
%TO.P,C22,2*%
%TO.N,GND*%
X109225000Y-87275000D03*
%TO.P,C22,1*%
%TO.N,Net-(U2-VDDA)*%
X109225000Y-88825000D03*
%TD*%
D15*
%TO.P,C33,1*%
%TO.N,+3.3VADC*%
X153725000Y-51130000D03*
%TO.P,C33,2*%
%TO.N,GND*%
X155150000Y-51130000D03*
%TD*%
D16*
%TO.P,C15,1*%
%TO.N,/MCU/OSC_IN*%
X116300000Y-93975000D03*
%TO.P,C15,2*%
%TO.N,GND*%
X117850000Y-93975000D03*
%TD*%
D19*
%TO.P,C17,2*%
%TO.N,GND*%
X104250000Y-97725000D03*
%TO.P,C17,1*%
%TO.N,+3.3VADC*%
X105800000Y-97725000D03*
%TD*%
D13*
%TO.P,R11,1*%
%TO.N,GND*%
X102605000Y-97700000D03*
%TO.P,R11,2*%
%TO.N,/MCU/BOOT0*%
X100955000Y-97700000D03*
%TD*%
D56*
%TO.N,GND*%
X100400000Y-88025000D03*
%TO.N,+3.3VADC*%
X101175000Y-137400000D03*
X104475000Y-137325000D03*
X105875000Y-120950000D03*
%TO.N,GND*%
X110600000Y-94750000D03*
X110625000Y-97175000D03*
X104250000Y-92575000D03*
X119350000Y-86325000D03*
X118850000Y-95200000D03*
X120125000Y-95175000D03*
X120150000Y-93075000D03*
X120150000Y-90925000D03*
X120225000Y-88575000D03*
X120300000Y-86300000D03*
%TO.N,+3.3VADC*%
X109550000Y-85375000D03*
%TO.N,GND*%
X110525000Y-87225000D03*
X104575000Y-89300000D03*
%TO.N,+3.3VADC*%
X97975000Y-82925000D03*
%TO.N,GND*%
X93025000Y-92250000D03*
%TO.N,+3.3VADC*%
X94475000Y-95250000D03*
X95675000Y-95125000D03*
X95775000Y-93975000D03*
%TO.N,GND*%
X101125000Y-76375000D03*
X102100000Y-82975000D03*
X104225000Y-99050000D03*
X97425000Y-99325000D03*
X95750000Y-97725000D03*
X83325000Y-115500000D03*
%TO.N,/ETHController/LEDA*%
X82725000Y-116700000D03*
X99175000Y-120825000D03*
%TO.N,+3.3VADC*%
X80800000Y-137500000D03*
X103850000Y-123370000D03*
%TO.N,GND*%
X108700000Y-123375000D03*
X107425000Y-118300000D03*
X114225000Y-117975000D03*
X115500000Y-116850000D03*
X114150000Y-129050000D03*
X115400000Y-130400000D03*
X106050000Y-134875000D03*
X107275000Y-136050000D03*
X106000000Y-133825000D03*
X107175000Y-132625000D03*
%TO.N,+3.3VADC*%
X107250000Y-131100000D03*
X107250000Y-129625000D03*
%TO.N,GND*%
X105975000Y-126925000D03*
X107275000Y-128025000D03*
X99225000Y-132175000D03*
X99250000Y-128500000D03*
X99250000Y-127200000D03*
X93975000Y-132300000D03*
X56950000Y-138775000D03*
X53975000Y-136275000D03*
X56950000Y-133950000D03*
X56950000Y-120150000D03*
X53825000Y-122800000D03*
X57000000Y-125350000D03*
X71300000Y-125175000D03*
X71575000Y-136350000D03*
X93575000Y-139500000D03*
X94750000Y-138225000D03*
X86575000Y-137400000D03*
X87950000Y-136075000D03*
X87750000Y-132500000D03*
X87575000Y-130050000D03*
X87375000Y-121150000D03*
X88650000Y-122325000D03*
X87725000Y-125125000D03*
X87725000Y-126875000D03*
%TO.N,+3.3VADC*%
X86300000Y-119325000D03*
X83575000Y-119350000D03*
X84975000Y-118150000D03*
%TO.N,GND*%
X80625000Y-120325000D03*
X79350000Y-121500000D03*
X81675000Y-112450000D03*
X82900000Y-111300000D03*
X75125000Y-112475000D03*
X71575000Y-112300000D03*
X74050000Y-111275000D03*
X72700000Y-111250000D03*
X81500000Y-100850000D03*
X80300000Y-99675000D03*
X74050000Y-94175000D03*
X75375000Y-92875000D03*
X68650000Y-81075000D03*
X55975000Y-42975000D03*
X68475000Y-57150000D03*
X75600000Y-59200000D03*
X79500000Y-59175000D03*
X77150000Y-54700000D03*
X75825000Y-53375000D03*
X72500000Y-48575000D03*
X82575000Y-48550000D03*
X65925000Y-49425000D03*
X69675000Y-51950000D03*
X69625000Y-49450000D03*
X76975000Y-138800000D03*
X89925000Y-126750000D03*
X78175000Y-123850000D03*
X101475000Y-117600000D03*
X93625000Y-115550000D03*
X103850000Y-101800000D03*
X98825000Y-104675000D03*
%TO.N,/ETHController/ETH_MISO*%
X99925000Y-103975000D03*
%TO.N,/ETHController/ETH_INT*%
X94225000Y-116675000D03*
X100575000Y-116675000D03*
%TO.N,+3.3VADC*%
X153250000Y-132150000D03*
X153175000Y-128950000D03*
X152275000Y-103550000D03*
X152300000Y-100500000D03*
X151000000Y-75325000D03*
X151025000Y-78000000D03*
X152375000Y-51100000D03*
X152375000Y-54000000D03*
X73625000Y-53050000D03*
X72350000Y-54625000D03*
X72325000Y-53525000D03*
X72350000Y-52400000D03*
%TO.N,/ETHController/ETH_MOSI*%
X101175000Y-100125000D03*
%TO.N,/ETHController/ETH_SCK*%
X102875000Y-102125000D03*
%TO.N,/ETHController/TCT*%
X77100000Y-137525000D03*
X84125000Y-138400000D03*
%TO.N,/ETHController/TPINN*%
X78600000Y-125075000D03*
X89118910Y-127775000D03*
%TO.N,GND*%
X79275000Y-135150000D03*
X77125000Y-132500000D03*
%TO.N,/ETHController/TPOUTP*%
X79275000Y-134000000D03*
X77650000Y-131425000D03*
%TO.N,/MCU/NRST*%
X70550000Y-98000000D03*
X108050000Y-89550000D03*
%TO.N,/ETHController/ETH_SCK*%
X103350000Y-90375000D03*
%TO.N,/ETHController/ETH_MISO*%
X102300000Y-89800000D03*
%TO.N,/ETHController/ETH_MOSI*%
X101175000Y-89025000D03*
%TO.N,GND*%
X79475000Y-88350000D03*
X80975000Y-88325000D03*
X80975000Y-87050000D03*
X79325000Y-87050000D03*
%TO.N,+3.3VADC*%
X80950000Y-85400000D03*
X81025000Y-83825000D03*
X79475000Y-83850000D03*
X78000000Y-83850000D03*
%TO.N,GND*%
X72025000Y-101225000D03*
X71950000Y-102800000D03*
X70050000Y-102875000D03*
%TO.N,+3.3VADC*%
X109050000Y-94425000D03*
X108950000Y-97650000D03*
X106475000Y-95850000D03*
X106375000Y-94500000D03*
%TO.N,GND*%
X112575000Y-80025000D03*
X115225000Y-77900000D03*
X112575000Y-77900000D03*
X110200000Y-77900000D03*
X155150000Y-49650000D03*
X153900000Y-73800000D03*
X155175000Y-99050000D03*
X156225000Y-127500000D03*
%TD*%
D57*
%TO.N,/ETHController/ETH_CS*%
X112125000Y-102950000D02*
X98550000Y-116525000D01*
X112125000Y-93150000D02*
X112125000Y-102950000D01*
X111275000Y-92300000D02*
X112125000Y-93150000D01*
X106162500Y-92300000D02*
X111275000Y-92300000D01*
%TO.N,/ETHController/ETH_RESET*%
X97750000Y-129200000D02*
X95950000Y-131000000D01*
X97750000Y-118225000D02*
X97750000Y-129200000D01*
X95950000Y-131000000D02*
X91945000Y-131000000D01*
X112850000Y-92800000D02*
X112850000Y-103125000D01*
X112850000Y-103125000D02*
X97750000Y-118225000D01*
X111850000Y-91800000D02*
X112850000Y-92800000D01*
X106162500Y-91800000D02*
X111850000Y-91800000D01*
%TO.N,/ETHController/ETH_INT*%
X113475000Y-92350000D02*
X112425000Y-91300000D01*
X112425000Y-91300000D02*
X106162500Y-91300000D01*
X113475000Y-103775000D02*
X113475000Y-92350000D01*
X100575000Y-116675000D02*
X113475000Y-103775000D01*
D58*
%TO.N,+3.3VADC*%
X101155000Y-137380000D02*
X101175000Y-137400000D01*
X101155000Y-136080000D02*
X101155000Y-137380000D01*
X104475000Y-136075000D02*
X104475000Y-137325000D01*
X104480000Y-136070000D02*
X104475000Y-136075000D01*
X97837500Y-94712500D02*
X97450000Y-95100000D01*
X97837500Y-92800000D02*
X97837500Y-94712500D01*
D59*
%TO.N,Net-(C2-Pad2)*%
X115262500Y-123000000D02*
X115437500Y-122825000D01*
X112412500Y-123000000D02*
X115262500Y-123000000D01*
D58*
%TO.N,+3.3VADC*%
X106162500Y-92800000D02*
X106162500Y-94287500D01*
X106162500Y-94287500D02*
X106375000Y-94500000D01*
X106087500Y-94212500D02*
X106375000Y-94500000D01*
X104750000Y-94212500D02*
X106087500Y-94212500D01*
X105875000Y-119495000D02*
X105875000Y-120950000D01*
D59*
%TO.N,GND*%
X110625000Y-94775000D02*
X110600000Y-94750000D01*
X110625000Y-95950000D02*
X110625000Y-94775000D01*
X110625000Y-95950000D02*
X110625000Y-97175000D01*
X104250000Y-94212500D02*
X104250000Y-92575000D01*
D58*
%TO.N,+3.3VADC*%
X110830000Y-85375000D02*
X109550000Y-85375000D01*
D59*
%TO.N,GND*%
X110475000Y-87275000D02*
X110525000Y-87225000D01*
X109225000Y-87275000D02*
X110475000Y-87275000D01*
X106162500Y-89300000D02*
X104575000Y-89300000D01*
D58*
%TO.N,+3.3VADC*%
X98000000Y-82950000D02*
X97975000Y-82925000D01*
X99230000Y-82950000D02*
X98000000Y-82950000D01*
D59*
%TO.N,GND*%
X93075000Y-92300000D02*
X93025000Y-92250000D01*
X94300000Y-92300000D02*
X93075000Y-92300000D01*
X101145000Y-76355000D02*
X101125000Y-76375000D01*
X101145000Y-75030000D02*
X101145000Y-76355000D01*
X102075000Y-82950000D02*
X102100000Y-82975000D01*
X100780000Y-82950000D02*
X102075000Y-82950000D01*
D57*
%TO.N,/ETHController/ETH_SCK*%
X102875000Y-111125000D02*
X97287500Y-116712500D01*
X102875000Y-102125000D02*
X102875000Y-111125000D01*
D59*
%TO.N,GND*%
X104250000Y-99025000D02*
X104225000Y-99050000D01*
X104250000Y-97725000D02*
X104250000Y-99025000D01*
X102630000Y-97725000D02*
X104250000Y-97725000D01*
X102605000Y-97700000D02*
X102630000Y-97725000D01*
%TO.N,/MCU/BOOT0*%
X100955000Y-96895000D02*
X100955000Y-97700000D01*
X102750000Y-95100000D02*
X100955000Y-96895000D01*
X102750000Y-94212500D02*
X102750000Y-95100000D01*
%TO.N,GND*%
X97450000Y-99300000D02*
X97425000Y-99325000D01*
X97450000Y-97800000D02*
X97450000Y-99300000D01*
X97375000Y-97725000D02*
X95750000Y-97725000D01*
X97450000Y-97800000D02*
X97375000Y-97725000D01*
%TO.N,/ETHController/LEDA*%
X81100000Y-118325000D02*
X82725000Y-116700000D01*
X75700000Y-118325000D02*
X81100000Y-118325000D01*
X99190000Y-120840000D02*
X99175000Y-120825000D01*
X101155000Y-120840000D02*
X99190000Y-120840000D01*
D58*
%TO.N,+3.3VADC*%
X80800000Y-136125000D02*
X80800000Y-137500000D01*
X80830000Y-136095000D02*
X80800000Y-136125000D01*
X103850000Y-123370000D02*
X105875000Y-123370000D01*
D59*
%TO.N,GND*%
X108695000Y-123370000D02*
X108700000Y-123375000D01*
X107425000Y-123370000D02*
X108695000Y-123370000D01*
X107425000Y-119495000D02*
X107425000Y-118300000D01*
X114275000Y-118025000D02*
X114225000Y-117975000D01*
X115512500Y-118025000D02*
X114275000Y-118025000D01*
X115512500Y-116862500D02*
X115500000Y-116850000D01*
X115512500Y-118025000D02*
X115512500Y-116862500D01*
X114200000Y-129100000D02*
X114150000Y-129050000D01*
X115412500Y-129100000D02*
X114200000Y-129100000D01*
X115412500Y-130387500D02*
X115400000Y-130400000D01*
X115412500Y-129100000D02*
X115412500Y-130387500D01*
X106050000Y-136050000D02*
X106050000Y-134875000D01*
X106050000Y-136050000D02*
X107275000Y-136050000D01*
X106030000Y-136070000D02*
X106050000Y-136050000D01*
X106000000Y-132650000D02*
X106000000Y-133825000D01*
X107150000Y-132650000D02*
X107175000Y-132625000D01*
X106000000Y-132650000D02*
X107150000Y-132650000D01*
D58*
%TO.N,+3.3VADC*%
X106000000Y-131100000D02*
X107250000Y-131100000D01*
X105975000Y-129625000D02*
X107250000Y-129625000D01*
D59*
%TO.N,GND*%
X105975000Y-128075000D02*
X105975000Y-126925000D01*
X107225000Y-128075000D02*
X107275000Y-128025000D01*
X105975000Y-128075000D02*
X107225000Y-128075000D01*
X99320000Y-132270000D02*
X99225000Y-132175000D01*
X101155000Y-132270000D02*
X99320000Y-132270000D01*
X99290000Y-128460000D02*
X99250000Y-128500000D01*
X101155000Y-128460000D02*
X99290000Y-128460000D01*
X99260000Y-127190000D02*
X99250000Y-127200000D01*
X101155000Y-127190000D02*
X99260000Y-127190000D01*
X93945000Y-132270000D02*
X93975000Y-132300000D01*
X91945000Y-132270000D02*
X93945000Y-132270000D01*
X56987500Y-138737500D02*
X56950000Y-138775000D01*
X56987500Y-136345000D02*
X56987500Y-138737500D01*
X54045000Y-136345000D02*
X53975000Y-136275000D01*
X56987500Y-136345000D02*
X54045000Y-136345000D01*
X56987500Y-133987500D02*
X56950000Y-133950000D01*
X56987500Y-136345000D02*
X56987500Y-133987500D01*
X56987500Y-120187500D02*
X56950000Y-120150000D01*
X56987500Y-122805000D02*
X56987500Y-120187500D01*
X53830000Y-122805000D02*
X53825000Y-122800000D01*
X56987500Y-122805000D02*
X53830000Y-122805000D01*
X56987500Y-125337500D02*
X57000000Y-125350000D01*
X56987500Y-122805000D02*
X56987500Y-125337500D01*
X71345000Y-125130000D02*
X71300000Y-125175000D01*
X74137500Y-125130000D02*
X71345000Y-125130000D01*
X71575000Y-135925000D02*
X71575000Y-136350000D01*
X71775000Y-135725000D02*
X71575000Y-135925000D01*
X72210000Y-135290000D02*
X71775000Y-135725000D01*
X74137500Y-135290000D02*
X72210000Y-135290000D01*
X93600000Y-139475000D02*
X93575000Y-139500000D01*
X93600000Y-138250000D02*
X93600000Y-139475000D01*
X94725000Y-138250000D02*
X94750000Y-138225000D01*
X93600000Y-138250000D02*
X94725000Y-138250000D01*
X86580000Y-137395000D02*
X86575000Y-137400000D01*
X86580000Y-136070000D02*
X86580000Y-137395000D01*
X86585000Y-136075000D02*
X87950000Y-136075000D01*
X86580000Y-136070000D02*
X86585000Y-136075000D01*
X87725000Y-132475000D02*
X87750000Y-132500000D01*
X86465000Y-132475000D02*
X87725000Y-132475000D01*
X86385000Y-130050000D02*
X87575000Y-130050000D01*
X86380000Y-130045000D02*
X86385000Y-130050000D01*
X86465000Y-130130000D02*
X86465000Y-132475000D01*
X86380000Y-130045000D02*
X86465000Y-130130000D01*
X87380000Y-121145000D02*
X87375000Y-121150000D01*
X88655000Y-121145000D02*
X87380000Y-121145000D01*
X88655000Y-122320000D02*
X88650000Y-122325000D01*
X88655000Y-121145000D02*
X88655000Y-122320000D01*
X87695000Y-125095000D02*
X87725000Y-125125000D01*
X86405000Y-125095000D02*
X87695000Y-125095000D01*
X87705000Y-126895000D02*
X87725000Y-126875000D01*
X86430000Y-126895000D02*
X87705000Y-126895000D01*
X86405000Y-125095000D02*
X86405000Y-126870000D01*
X86405000Y-126870000D02*
X86430000Y-126895000D01*
D58*
%TO.N,+3.3VADC*%
X86275000Y-119350000D02*
X86300000Y-119325000D01*
X84950000Y-119350000D02*
X86275000Y-119350000D01*
X84950000Y-119350000D02*
X83575000Y-119350000D01*
X84950000Y-118175000D02*
X84975000Y-118150000D01*
X84950000Y-119350000D02*
X84950000Y-118175000D01*
D59*
%TO.N,GND*%
X80612500Y-121475000D02*
X79375000Y-121475000D01*
X79375000Y-121475000D02*
X79350000Y-121500000D01*
X80612500Y-120337500D02*
X80612500Y-121475000D01*
X80625000Y-120325000D02*
X80612500Y-120337500D01*
X81687500Y-112437500D02*
X81675000Y-112450000D01*
X81687500Y-111250000D02*
X81687500Y-112437500D01*
X82850000Y-111250000D02*
X82900000Y-111300000D01*
X81687500Y-111250000D02*
X82850000Y-111250000D01*
X75112500Y-112462500D02*
X75125000Y-112475000D01*
X75112500Y-111250000D02*
X75112500Y-112462500D01*
X71562500Y-112287500D02*
X71575000Y-112300000D01*
X71562500Y-111250000D02*
X71562500Y-112287500D01*
X74075000Y-111250000D02*
X74050000Y-111275000D01*
X75112500Y-111250000D02*
X74075000Y-111250000D01*
X71562500Y-111250000D02*
X72700000Y-111250000D01*
X81492500Y-100842500D02*
X81500000Y-100850000D01*
X80287500Y-100842500D02*
X81492500Y-100842500D01*
X80287500Y-99687500D02*
X80300000Y-99675000D01*
X80287500Y-100842500D02*
X80287500Y-99687500D01*
X74100000Y-94125000D02*
X74050000Y-94175000D01*
X74100000Y-92950000D02*
X74100000Y-94125000D01*
X75300000Y-92950000D02*
X75375000Y-92875000D01*
X74100000Y-92950000D02*
X75300000Y-92950000D01*
X68620000Y-81105000D02*
X68650000Y-81075000D01*
X68620000Y-82375000D02*
X68620000Y-81105000D01*
X57225000Y-42975000D02*
X55975000Y-42975000D01*
X68475000Y-58350000D02*
X68475000Y-57150000D01*
X77462500Y-59200000D02*
X75600000Y-59200000D01*
X79475000Y-59200000D02*
X79500000Y-59175000D01*
X77462500Y-59200000D02*
X79475000Y-59200000D01*
X77125000Y-54725000D02*
X77150000Y-54700000D01*
X75775000Y-54725000D02*
X77125000Y-54725000D01*
X75775000Y-53425000D02*
X75825000Y-53375000D01*
X75775000Y-54725000D02*
X75775000Y-53425000D01*
X74375000Y-48575000D02*
X72500000Y-48575000D01*
X82550000Y-48575000D02*
X82575000Y-48550000D01*
X80675000Y-48575000D02*
X82550000Y-48575000D01*
X74375000Y-48575000D02*
X80675000Y-48575000D01*
X65887500Y-49462500D02*
X65925000Y-49425000D01*
X65887500Y-50842500D02*
X65887500Y-49462500D01*
X69600000Y-51875000D02*
X69675000Y-51950000D01*
X69600000Y-50775000D02*
X69600000Y-51875000D01*
X69600000Y-49475000D02*
X69625000Y-49450000D01*
X69600000Y-50775000D02*
X69600000Y-49475000D01*
D57*
%TO.N,/ETHController/ETH_MISO*%
X95425000Y-115950000D02*
X99925000Y-111450000D01*
X99925000Y-111450000D02*
X99925000Y-103975000D01*
%TO.N,/ETHController/ETH_INT*%
X93570000Y-123380000D02*
X91945000Y-123380000D01*
X94225000Y-122725000D02*
X93570000Y-123380000D01*
X94225000Y-116675000D02*
X94225000Y-122725000D01*
D58*
%TO.N,+3.3VADC*%
X153305000Y-132095000D02*
X153250000Y-132150000D01*
X154742500Y-132095000D02*
X153305000Y-132095000D01*
X154772500Y-128950000D02*
X153175000Y-128950000D01*
X154792500Y-128970000D02*
X154772500Y-128950000D01*
X154742500Y-129020000D02*
X154792500Y-128970000D01*
X154742500Y-132095000D02*
X154742500Y-129020000D01*
X152305000Y-103580000D02*
X152275000Y-103550000D01*
X153775000Y-103580000D02*
X152305000Y-103580000D01*
X152305000Y-100505000D02*
X152300000Y-100500000D01*
X153775000Y-100505000D02*
X152305000Y-100505000D01*
X153775000Y-103580000D02*
X153775000Y-100505000D01*
X151020001Y-75304999D02*
X151000000Y-75325000D01*
X152474999Y-75304999D02*
X151020001Y-75304999D01*
X151045001Y-77979999D02*
X151025000Y-78000000D01*
X152474999Y-77979999D02*
X151045001Y-77979999D01*
X152474999Y-77979999D02*
X152474999Y-75304999D01*
X152405000Y-51130000D02*
X152375000Y-51100000D01*
X153725000Y-51130000D02*
X152405000Y-51130000D01*
X152380000Y-54005000D02*
X152375000Y-54000000D01*
X153725000Y-54005000D02*
X152380000Y-54005000D01*
X153725000Y-54005000D02*
X153725000Y-51130000D01*
D59*
%TO.N,/ETHController/LEDB*%
X76225000Y-140100000D02*
X75050000Y-140100000D01*
X81750000Y-145625000D02*
X76225000Y-140100000D01*
X119250000Y-145625000D02*
X81750000Y-145625000D01*
X129075000Y-135800000D02*
X119250000Y-145625000D01*
X127300000Y-113625000D02*
X129075000Y-115400000D01*
X112625000Y-113625000D02*
X127300000Y-113625000D01*
X109825000Y-116425000D02*
X112625000Y-113625000D01*
X129075000Y-115400000D02*
X129075000Y-135800000D01*
X108365000Y-122110000D02*
X109825000Y-120650000D01*
X109825000Y-120650000D02*
X109825000Y-116425000D01*
X101155000Y-122110000D02*
X108365000Y-122110000D01*
D58*
%TO.N,+3.3VADC*%
X104470000Y-136080000D02*
X104480000Y-136070000D01*
X101155000Y-136080000D02*
X104470000Y-136080000D01*
D59*
%TO.N,+5V*%
X71025000Y-58987500D02*
X71237500Y-59200000D01*
X71025000Y-50775000D02*
X71025000Y-58987500D01*
%TO.N,+24V*%
X63987500Y-51787500D02*
X63987500Y-50842500D01*
X64775000Y-52075000D02*
X64275000Y-52075000D01*
X64937500Y-52237500D02*
X64775000Y-52075000D01*
X64937500Y-53117500D02*
X64937500Y-52237500D01*
X64275000Y-52075000D02*
X63987500Y-51787500D01*
%TO.N,Net-(U8-BS)*%
X66450000Y-54600000D02*
X65887500Y-54037500D01*
X67250000Y-54600000D02*
X66450000Y-54600000D01*
X65887500Y-54037500D02*
X65887500Y-53117500D01*
X67925000Y-53925000D02*
X67250000Y-54600000D01*
X67925000Y-47750000D02*
X67925000Y-53925000D01*
X66500000Y-46325000D02*
X67925000Y-47750000D01*
%TO.N,Net-(U8-SW)*%
X68950000Y-45275000D02*
X68950000Y-46275000D01*
X65725000Y-44575000D02*
X68250000Y-44575000D01*
X68250000Y-44575000D02*
X68950000Y-45275000D01*
X64950000Y-46325000D02*
X64950000Y-45350000D01*
X64950000Y-45350000D02*
X65725000Y-44575000D01*
X64937500Y-46337500D02*
X64950000Y-46325000D01*
X64937500Y-50842500D02*
X64937500Y-46337500D01*
D58*
%TO.N,+3.3VADC*%
X74350000Y-50900000D02*
X74375000Y-50875000D01*
X74350000Y-54725000D02*
X74350000Y-50900000D01*
D59*
%TO.N,+5V*%
X74375000Y-46275000D02*
X71075000Y-46275000D01*
X71075000Y-50725000D02*
X71025000Y-50775000D01*
X71075000Y-46275000D02*
X71075000Y-50725000D01*
X63550000Y-60025000D02*
X70412500Y-60025000D01*
X62425000Y-58900000D02*
X63550000Y-60025000D01*
X70412500Y-60025000D02*
X71237500Y-59200000D01*
X62425000Y-58350000D02*
X62425000Y-58900000D01*
%TO.N,Net-(U8-FB)*%
X64075000Y-58350000D02*
X66825000Y-58350000D01*
X64075000Y-57175000D02*
X64075000Y-58350000D01*
X63975000Y-57075000D02*
X64075000Y-57175000D01*
X63975000Y-55700000D02*
X63975000Y-57075000D01*
%TO.N,+5V*%
X62425000Y-55700000D02*
X62425000Y-58350000D01*
%TO.N,Net-(U8-FB)*%
X63937500Y-58680000D02*
X63987500Y-58630000D01*
X63975000Y-58642500D02*
X63937500Y-58680000D01*
X63987500Y-55687500D02*
X63975000Y-55700000D01*
X63987500Y-53117500D02*
X63987500Y-55687500D01*
%TO.N,+24V*%
X58707500Y-48415000D02*
X58707500Y-43032500D01*
X58707500Y-43032500D02*
X58650000Y-42975000D01*
D57*
%TO.N,/ETHController/ETH_MISO*%
X95425000Y-125425000D02*
X95425000Y-115950000D01*
X91945000Y-125920000D02*
X94930000Y-125920000D01*
X94930000Y-125920000D02*
X95425000Y-125425000D01*
%TO.N,/ETHController/ETH_MOSI*%
X101175000Y-111250000D02*
X101175000Y-100125000D01*
X91945000Y-127190000D02*
X95160000Y-127190000D01*
X95160000Y-127190000D02*
X96125000Y-126225000D01*
X96125000Y-126225000D02*
X96125000Y-116300000D01*
X96125000Y-116300000D02*
X101175000Y-111250000D01*
%TO.N,/ETHController/ETH_SCK*%
X96575000Y-117425000D02*
X97287500Y-116712500D01*
%TO.N,/ETHController/ETH_CS*%
X97350000Y-117725000D02*
X98550000Y-116525000D01*
%TO.N,/ETHController/ETH_SCK*%
X96575000Y-127000000D02*
X96575000Y-117425000D01*
X95115000Y-128460000D02*
X96575000Y-127000000D01*
X91945000Y-128460000D02*
X95115000Y-128460000D01*
%TO.N,/ETHController/ETH_CS*%
X97350000Y-118200000D02*
X97350000Y-117725000D01*
X97350000Y-127475000D02*
X97350000Y-118200000D01*
X95100000Y-129725000D02*
X97350000Y-127475000D01*
X91950000Y-129725000D02*
X95100000Y-129725000D01*
X91945000Y-129730000D02*
X91950000Y-129725000D01*
%TO.N,/ETHController/TCT*%
X85030000Y-137495000D02*
X85030000Y-136070000D01*
X84125000Y-138400000D02*
X85030000Y-137495000D01*
X77100000Y-133725000D02*
X77100000Y-137525000D01*
X76125000Y-132750000D02*
X76800000Y-133425000D01*
X74137500Y-132750000D02*
X76125000Y-132750000D01*
X76800000Y-133425000D02*
X77100000Y-133725000D01*
%TO.N,/ETHController/RCT*%
X82162500Y-119887500D02*
X82162500Y-121475000D01*
X81725000Y-119450000D02*
X82162500Y-119887500D01*
X78300000Y-119450000D02*
X81725000Y-119450000D01*
X77100000Y-120650000D02*
X78300000Y-119450000D01*
X77100000Y-125600000D02*
X77100000Y-120650000D01*
X76300000Y-126400000D02*
X77100000Y-125600000D01*
X74137500Y-126400000D02*
X76300000Y-126400000D01*
D59*
%TO.N,Net-(J2-Pad2)*%
X71655000Y-134020000D02*
X70525000Y-135150000D01*
X74137500Y-134020000D02*
X71655000Y-134020000D01*
X70525000Y-135150000D02*
X70525000Y-139075000D01*
X70525000Y-139075000D02*
X71550000Y-140100000D01*
X71550000Y-140100000D02*
X73400000Y-140100000D01*
%TO.N,Net-(J2-Pad10)*%
X71100000Y-119050000D02*
X71825000Y-118325000D01*
X71100000Y-122950000D02*
X71100000Y-119050000D01*
X71825000Y-118325000D02*
X74050000Y-118325000D01*
X74137500Y-123860000D02*
X72010000Y-123860000D01*
X72010000Y-123860000D02*
X71100000Y-122950000D01*
D60*
%TO.N,/ETHController/TPINN*%
X78600000Y-126500000D02*
X78600000Y-125075000D01*
X77430000Y-127670000D02*
X78600000Y-126500000D01*
X74137500Y-127670000D02*
X77430000Y-127670000D01*
%TO.N,/ETHController/TPINP*%
X79457750Y-126895000D02*
X80780000Y-126895000D01*
X77412750Y-128940000D02*
X79457750Y-126895000D01*
X74137500Y-128940000D02*
X77412750Y-128940000D01*
%TO.N,/ETHController/TPINN*%
X80760000Y-125075000D02*
X80780000Y-125095000D01*
X78600000Y-125075000D02*
X80760000Y-125075000D01*
X89118910Y-127775000D02*
X89118910Y-127725000D01*
%TO.N,/ETHController/TPINP*%
X91295000Y-134810000D02*
X91945000Y-134810000D01*
X90030034Y-134343910D02*
X90828910Y-134343910D01*
X88781090Y-133094966D02*
X90030034Y-134343910D01*
X88781090Y-129281090D02*
X88781090Y-133094966D01*
X90828910Y-134343910D02*
X91295000Y-134810000D01*
X87800000Y-128300000D02*
X88781090Y-129281090D01*
X81450000Y-128300000D02*
X87800000Y-128300000D01*
X80780000Y-127630000D02*
X81450000Y-128300000D01*
X80780000Y-126895000D02*
X80780000Y-127630000D01*
%TO.N,/ETHController/TPOUTN*%
X74347500Y-130000000D02*
X80607500Y-130000000D01*
X80607500Y-130000000D02*
X80652500Y-130045000D01*
X74137500Y-130210000D02*
X74347500Y-130000000D01*
%TO.N,/ETHController/TPOUTP*%
X80712500Y-133287500D02*
X80712500Y-132475000D01*
X80000000Y-134000000D02*
X80712500Y-133287500D01*
X79275000Y-134000000D02*
X80000000Y-134000000D01*
X77595000Y-131480000D02*
X77650000Y-131425000D01*
X74137500Y-131480000D02*
X77595000Y-131480000D01*
%TO.N,/ETHController/TPOUTN*%
X78006090Y-132691410D02*
X80652500Y-130045000D01*
X78006090Y-138569966D02*
X78006090Y-132691410D01*
X94219966Y-142318910D02*
X81755034Y-142318910D01*
X96443910Y-140094966D02*
X94219966Y-142318910D01*
X96443910Y-135744966D02*
X96443910Y-140094966D01*
X97844966Y-134343910D02*
X96443910Y-135744966D01*
X99263909Y-134343910D02*
X97844966Y-134343910D01*
X99729999Y-134810000D02*
X99263909Y-134343910D01*
X101155000Y-134810000D02*
X99729999Y-134810000D01*
%TO.N,/ETHController/TPOUTP*%
X78700250Y-132475000D02*
X80712500Y-132475000D01*
X78343910Y-132831340D02*
X78700250Y-132475000D01*
X81894966Y-141981090D02*
X78343910Y-138430034D01*
%TO.N,/ETHController/TPOUTN*%
X81755034Y-142318910D02*
X78006090Y-138569966D01*
%TO.N,/ETHController/TPOUTP*%
X94080034Y-141981090D02*
X81894966Y-141981090D01*
X78343910Y-138430034D02*
X78343910Y-132831340D01*
X96106090Y-139955034D02*
X94080034Y-141981090D01*
X99263909Y-134006090D02*
X97705034Y-134006090D01*
X97705034Y-134006090D02*
X96106090Y-135605034D01*
X99729999Y-133540000D02*
X99263909Y-134006090D01*
X101155000Y-133540000D02*
X99729999Y-133540000D01*
X96106090Y-135605034D02*
X96106090Y-139955034D01*
%TO.N,/ETHController/TPINN*%
X89118910Y-132955034D02*
X89118910Y-127775000D01*
X90169966Y-134006090D02*
X89118910Y-132955034D01*
X91945000Y-133540000D02*
X91295000Y-133540000D01*
X90828910Y-134006090D02*
X90169966Y-134006090D01*
X91295000Y-133540000D02*
X90828910Y-134006090D01*
D59*
%TO.N,Net-(U1-RBIAS)*%
X91945000Y-138245000D02*
X91950000Y-138250000D01*
X91945000Y-136080000D02*
X91945000Y-138245000D01*
%TO.N,GND*%
X90105000Y-121145000D02*
X88655000Y-121145000D01*
X91945000Y-120840000D02*
X90410000Y-120840000D01*
X90410000Y-120840000D02*
X90105000Y-121145000D01*
%TO.N,Net-(U1-VCAP)*%
X88680000Y-119570000D02*
X88655000Y-119595000D01*
X91945000Y-119570000D02*
X88680000Y-119570000D01*
D57*
%TO.N,/MCU/NRST*%
X70550000Y-98000000D02*
X70550000Y-99500000D01*
X107800000Y-89800000D02*
X108050000Y-89550000D01*
X106162500Y-89800000D02*
X107800000Y-89800000D01*
D59*
%TO.N,GND*%
X104170000Y-132270000D02*
X101155000Y-132270000D01*
X104550000Y-132650000D02*
X104170000Y-132270000D01*
X106000000Y-132650000D02*
X104550000Y-132650000D01*
X103290000Y-128460000D02*
X101155000Y-128460000D01*
X103675000Y-128075000D02*
X103290000Y-128460000D01*
X105975000Y-128075000D02*
X103675000Y-128075000D01*
D58*
%TO.N,+3.3VADC*%
X105670000Y-129730000D02*
X105975000Y-129425000D01*
X101155000Y-129730000D02*
X105670000Y-129730000D01*
X105900000Y-131000000D02*
X106000000Y-131100000D01*
X101155000Y-131000000D02*
X105900000Y-131000000D01*
X101165000Y-123370000D02*
X103850000Y-123370000D01*
X101155000Y-123380000D02*
X101165000Y-123370000D01*
X101155000Y-119570000D02*
X105800000Y-119570000D01*
X105800000Y-119570000D02*
X105875000Y-119495000D01*
D59*
%TO.N,/ETHController/OSC_IN_ETH*%
X113992500Y-125920000D02*
X115437500Y-124475000D01*
X101155000Y-125920000D02*
X113992500Y-125920000D01*
%TO.N,/ETHController/OSC_OUT_ETH*%
X101155000Y-124650000D02*
X112412500Y-124650000D01*
D57*
%TO.N,/ETHController/ETH_MISO*%
X103250000Y-88850000D02*
X103250000Y-85887500D01*
X102300000Y-89800000D02*
X103250000Y-88850000D01*
%TO.N,/ETHController/ETH_MOSI*%
X102750000Y-87450000D02*
X102750000Y-85887500D01*
X101175000Y-89025000D02*
X102750000Y-87450000D01*
%TO.N,/ETHController/ETH_SCK*%
X103750000Y-89975000D02*
X103350000Y-90375000D01*
X103750000Y-85887500D02*
X103750000Y-89975000D01*
D58*
%TO.N,+3.3VADC*%
X99230000Y-74395000D02*
X100145000Y-73480000D01*
X100145000Y-73480000D02*
X101145000Y-73480000D01*
X99230000Y-82950000D02*
X99230000Y-74395000D01*
%TO.N,/ACLoadControlStage/CT_IN1_R*%
X135975000Y-132625000D02*
X139525000Y-132625000D01*
X131375000Y-128025000D02*
X135975000Y-132625000D01*
X131375000Y-72700000D02*
X131375000Y-128025000D01*
X126650000Y-67975000D02*
X131375000Y-72700000D01*
X100075000Y-67975000D02*
X126650000Y-67975000D01*
X94050000Y-74000000D02*
X100075000Y-67975000D01*
X94050000Y-84950000D02*
X94050000Y-74000000D01*
X96400000Y-87300000D02*
X94050000Y-84950000D01*
X97837500Y-87300000D02*
X96400000Y-87300000D01*
%TO.N,/ACLoadControlStage/CT_IN2_R*%
X134950000Y-104125000D02*
X138975000Y-104125000D01*
X132850000Y-102025000D02*
X134950000Y-104125000D01*
X132850000Y-71300000D02*
X132850000Y-102025000D01*
X128325000Y-66775000D02*
X132850000Y-71300000D01*
X99650000Y-66775000D02*
X128325000Y-66775000D01*
X92600000Y-73825000D02*
X99650000Y-66775000D01*
X92600000Y-85325000D02*
X92600000Y-73825000D01*
X95075000Y-87800000D02*
X92600000Y-85325000D01*
X97837500Y-87800000D02*
X95075000Y-87800000D01*
%TO.N,/ACLoadControlStage/CT_IN2_L*%
X135575000Y-78475000D02*
X137950000Y-78475000D01*
X134100000Y-77000000D02*
X135575000Y-78475000D01*
X134100000Y-69800000D02*
X134100000Y-77000000D01*
X129675000Y-65375000D02*
X134100000Y-69800000D01*
X99650000Y-65375000D02*
X129675000Y-65375000D01*
X91250000Y-73775000D02*
X99650000Y-65375000D01*
X91250000Y-86050000D02*
X91250000Y-73775000D01*
X93500000Y-88300000D02*
X91250000Y-86050000D01*
X97837500Y-88300000D02*
X93500000Y-88300000D01*
%TO.N,/ACLoadControlStage/CT_IN1_L*%
X109300000Y-54550000D02*
X138775000Y-54550000D01*
X90050000Y-73800000D02*
X109300000Y-54550000D01*
X90050000Y-86425000D02*
X90050000Y-73800000D01*
X92425000Y-88800000D02*
X90050000Y-86425000D01*
X97837500Y-88800000D02*
X92425000Y-88800000D01*
D57*
%TO.N,/MCU/SWO*%
X77687500Y-99037500D02*
X77687500Y-100825000D01*
X65675000Y-100975000D02*
X69675000Y-96975000D01*
X65675000Y-111900000D02*
X65675000Y-100975000D01*
X69675000Y-96975000D02*
X75625000Y-96975000D01*
X87250000Y-114075000D02*
X67850000Y-114075000D01*
X75625000Y-96975000D02*
X77687500Y-99037500D01*
X100250000Y-101075000D02*
X87250000Y-114075000D01*
X100250000Y-94212500D02*
X100250000Y-101075000D01*
X67850000Y-114075000D02*
X65675000Y-111900000D01*
D59*
%TO.N,GND*%
X102750000Y-97555000D02*
X102605000Y-97700000D01*
D57*
%TO.N,/MCU/SWDIO*%
X85887500Y-96912500D02*
X85887500Y-105880000D01*
X91650000Y-91150000D02*
X85887500Y-96912500D01*
X96200000Y-91800000D02*
X95550000Y-91150000D01*
X95550000Y-91150000D02*
X91650000Y-91150000D01*
X97837500Y-91800000D02*
X96200000Y-91800000D01*
D59*
%TO.N,GND*%
X97837500Y-92300000D02*
X94300000Y-92300000D01*
D57*
%TO.N,/MCU/SWCLK*%
X99250000Y-100025000D02*
X99250000Y-94212500D01*
X90825000Y-108450000D02*
X99250000Y-100025000D01*
X85887500Y-108450000D02*
X90825000Y-108450000D01*
D59*
%TO.N,GND*%
X70037500Y-102887500D02*
X70050000Y-102875000D01*
X70037500Y-105835000D02*
X70037500Y-102887500D01*
X104250000Y-97725000D02*
X104250000Y-94212500D01*
D58*
%TO.N,Net-(U2-VDDA)*%
X114305000Y-84420000D02*
X114305000Y-82775000D01*
X113350000Y-85375000D02*
X114305000Y-84420000D01*
X112255000Y-85375000D02*
X113350000Y-85375000D01*
%TO.N,+3.3VADC*%
X110905000Y-82800000D02*
X110905000Y-85300000D01*
X110905000Y-85300000D02*
X110830000Y-85375000D01*
%TO.N,Net-(U2-VDDA)*%
X112255000Y-86820000D02*
X112255000Y-85375000D01*
X110250000Y-88825000D02*
X112255000Y-86820000D01*
X109225000Y-88825000D02*
X110250000Y-88825000D01*
D59*
%TO.N,/MCU/OSC_IN*%
X106162500Y-90800000D02*
X115530000Y-90800000D01*
X115530000Y-90800000D02*
X115630000Y-90900000D01*
%TO.N,/MCU/OSC_OUT*%
X111350000Y-90300000D02*
X111780000Y-89870000D01*
X106162500Y-90300000D02*
X111350000Y-90300000D01*
X111780000Y-89870000D02*
X111780000Y-89150000D01*
D58*
%TO.N,Net-(U2-VDDA)*%
X109200000Y-88800000D02*
X109225000Y-88825000D01*
X106162500Y-88800000D02*
X109200000Y-88800000D01*
D59*
%TO.N,Net-(U3-C1+)*%
X66125000Y-83225000D02*
X64270000Y-83225000D01*
X68322500Y-85422500D02*
X66125000Y-83225000D01*
X68322500Y-85960750D02*
X68322500Y-85422500D01*
%TO.N,GND*%
X75585750Y-86610750D02*
X76050000Y-87075000D01*
X74092500Y-86610750D02*
X75585750Y-86610750D01*
X76050000Y-87075000D02*
X77825000Y-87075000D01*
D58*
%TO.N,+3.3VADC*%
X76175000Y-85525000D02*
X77825000Y-85525000D01*
X74092500Y-85960750D02*
X75739250Y-85960750D01*
X75739250Y-85960750D02*
X76175000Y-85525000D01*
D59*
%TO.N,Net-(R26-Pad2)*%
X139525000Y-130975000D02*
X143137500Y-130975000D01*
X143137500Y-130975000D02*
X143142500Y-130970000D01*
%TO.N,Net-(R25-Pad2)*%
X142595000Y-102475000D02*
X142605000Y-102465000D01*
X138975000Y-102475000D02*
X142595000Y-102475000D01*
%TO.N,Net-(R19-Pad2)*%
X141345000Y-76825000D02*
X141399999Y-76879999D01*
X137950000Y-76825000D02*
X141345000Y-76825000D01*
%TO.N,Net-(R20-Pad2)*%
X142480000Y-52900000D02*
X142500000Y-52880000D01*
X138775000Y-52900000D02*
X142480000Y-52900000D01*
D58*
%TO.N,+3.3VADC*%
X104120000Y-73480000D02*
X104170000Y-73430000D01*
X101145000Y-73480000D02*
X104120000Y-73480000D01*
D59*
%TO.N,Net-(D6-RK)*%
X106280000Y-73430000D02*
X105570000Y-73430000D01*
X107450000Y-74600000D02*
X106280000Y-73430000D01*
X107450000Y-79325000D02*
X107450000Y-74600000D01*
%TO.N,Net-(D6-GK)*%
X105570000Y-79295000D02*
X105600000Y-79325000D01*
X105570000Y-76930000D02*
X105570000Y-79295000D01*
%TO.N,Net-(D6-BK)*%
X104170000Y-78780000D02*
X103625000Y-79325000D01*
X104170000Y-76930000D02*
X104170000Y-78780000D01*
D57*
%TO.N,/MCU/TIM2_CH4*%
X104750000Y-82650000D02*
X103625000Y-81525000D01*
X103625000Y-81525000D02*
X103625000Y-80975000D01*
X104750000Y-85887500D02*
X104750000Y-82650000D01*
%TO.N,/MCU/TIM2_CH3*%
X107075000Y-83150000D02*
X105600000Y-81675000D01*
X105600000Y-81675000D02*
X105600000Y-80975000D01*
X107075000Y-86900000D02*
X107075000Y-83150000D01*
X106675000Y-87300000D02*
X107075000Y-86900000D01*
X106162500Y-87300000D02*
X106675000Y-87300000D01*
%TO.N,/MCU/TIM2_CH2*%
X107600000Y-81125000D02*
X107450000Y-80975000D01*
X107600000Y-87500000D02*
X107600000Y-81125000D01*
X107300000Y-87800000D02*
X107600000Y-87500000D01*
X106162500Y-87800000D02*
X107300000Y-87800000D01*
D59*
%TO.N,GND*%
X99750000Y-84575000D02*
X100780000Y-83545000D01*
X100780000Y-83545000D02*
X100780000Y-82950000D01*
X99750000Y-85887500D02*
X99750000Y-84575000D01*
D58*
%TO.N,+3.3VADC*%
X99250000Y-82970000D02*
X99230000Y-82950000D01*
X99250000Y-85887500D02*
X99250000Y-82970000D01*
D57*
%TO.N,/MCU/NRST*%
X70555000Y-99505000D02*
X70550000Y-99500000D01*
X73512500Y-99505000D02*
X70555000Y-99505000D01*
%TO.N,/MCU/SWCLK_R*%
X84162500Y-108375000D02*
X84237500Y-108450000D01*
X80197500Y-108375000D02*
X84162500Y-108375000D01*
%TO.N,/MCU/SWDIO_R*%
X80242500Y-105880000D02*
X80197500Y-105835000D01*
X84237500Y-105880000D02*
X80242500Y-105880000D01*
X80197500Y-102507500D02*
X80287500Y-102417500D01*
X80197500Y-105835000D02*
X80197500Y-102507500D01*
%TO.N,/MCU/SWO_R*%
X77657500Y-105835000D02*
X77657500Y-102505000D01*
X77657500Y-102505000D02*
X77687500Y-102475000D01*
%TO.N,/MCU/NRST_R*%
X75087500Y-99580000D02*
X75162500Y-99505000D01*
X75087500Y-102275000D02*
X75087500Y-99580000D01*
X75087500Y-105805000D02*
X75087500Y-102275000D01*
X75117500Y-105835000D02*
X75087500Y-105805000D01*
%TO.N,/MCU/SWO_R*%
X76400000Y-110962500D02*
X76687500Y-111250000D01*
X76400000Y-106850000D02*
X76400000Y-110962500D01*
X77415000Y-105835000D02*
X76400000Y-106850000D01*
X77657500Y-105835000D02*
X77415000Y-105835000D01*
%TO.N,/MCU/SWCLK_R*%
X80197500Y-108375000D02*
X80197500Y-111165000D01*
X80197500Y-111165000D02*
X80112500Y-111250000D01*
D59*
%TO.N,GND*%
X71562500Y-109390000D02*
X72577500Y-108375000D01*
X71562500Y-111250000D02*
X71562500Y-109390000D01*
X75112500Y-111250000D02*
X75112500Y-108380000D01*
X75112500Y-108380000D02*
X75117500Y-108375000D01*
D58*
%TO.N,+3.3VADC*%
X69987500Y-108425000D02*
X70037500Y-108375000D01*
X69987500Y-111250000D02*
X69987500Y-108425000D01*
D59*
%TO.N,Net-(U3-VS-)*%
X72550000Y-91425000D02*
X72550000Y-92950000D01*
X70335750Y-89210750D02*
X72550000Y-91425000D01*
X68322500Y-89210750D02*
X70335750Y-89210750D01*
%TO.N,Net-(U3-VS+)*%
X70170000Y-85980000D02*
X70170000Y-82375000D01*
X69539250Y-86610750D02*
X70170000Y-85980000D01*
X68322500Y-86610750D02*
X69539250Y-86610750D01*
%TO.N,Net-(U3-C1-)*%
X64575000Y-84775000D02*
X64270000Y-84775000D01*
X67060750Y-87260750D02*
X64575000Y-84775000D01*
X68322500Y-87260750D02*
X67060750Y-87260750D01*
%TO.N,Net-(U3-C2+)*%
X65200000Y-86925000D02*
X64320000Y-86925000D01*
X66185750Y-87910750D02*
X65200000Y-86925000D01*
X68322500Y-87910750D02*
X66185750Y-87910750D01*
%TO.N,Net-(U3-C2-)*%
X64405750Y-88560750D02*
X64320000Y-88475000D01*
X68322500Y-88560750D02*
X64405750Y-88560750D01*
D57*
%TO.N,/MCU/USART1_RX*%
X75514250Y-90510750D02*
X74092500Y-90510750D01*
X75725000Y-90300000D02*
X75514250Y-90510750D01*
X97837500Y-90300000D02*
X75725000Y-90300000D01*
%TO.N,/MCU/USART1_TX*%
X74153250Y-89800000D02*
X74092500Y-89860750D01*
X97837500Y-89800000D02*
X74153250Y-89800000D01*
D59*
%TO.N,/MCU/RS232_TX*%
X59045000Y-92505000D02*
X58550331Y-92505000D01*
X61039250Y-90510750D02*
X59045000Y-92505000D01*
X68322500Y-90510750D02*
X61039250Y-90510750D01*
%TO.N,/MCU/RS232_RX*%
X58676081Y-89860750D02*
X58550331Y-89735000D01*
X68322500Y-89860750D02*
X58676081Y-89860750D01*
D58*
%TO.N,GND*%
X155150000Y-51130000D02*
X155150000Y-49650000D01*
X153899999Y-73800001D02*
X153900000Y-73800000D01*
X153899999Y-75304999D02*
X153899999Y-73800001D01*
X155200000Y-99075000D02*
X155175000Y-99050000D01*
X155200000Y-100505000D02*
X155200000Y-99075000D01*
X156217500Y-127507500D02*
X156225000Y-127500000D01*
X156217500Y-128970000D02*
X156217500Y-127507500D01*
%TO.N,Net-(D12-A)*%
X159325000Y-125750000D02*
X160837500Y-125750000D01*
X158000000Y-127075000D02*
X159325000Y-125750000D01*
X158000000Y-132150000D02*
X158000000Y-127075000D01*
X160837500Y-125750000D02*
X160942500Y-125645000D01*
X154742500Y-133520000D02*
X156630000Y-133520000D01*
X156630000Y-133520000D02*
X158000000Y-132150000D01*
%TO.N,Net-(D11-A)*%
X158045000Y-97280000D02*
X159925000Y-97280000D01*
X157250000Y-103775000D02*
X157250000Y-98075000D01*
X157250000Y-98075000D02*
X158045000Y-97280000D01*
X153775000Y-105005000D02*
X156020000Y-105005000D01*
X156020000Y-105005000D02*
X157250000Y-103775000D01*
%TO.N,Net-(D7-A)*%
X157275000Y-71700000D02*
X158200000Y-71700000D01*
X154495001Y-79404999D02*
X156100000Y-77800000D01*
X156100000Y-77800000D02*
X156100000Y-72875000D01*
X152474999Y-79404999D02*
X154495001Y-79404999D01*
X156100000Y-72875000D02*
X157275000Y-71700000D01*
%TO.N,Net-(D10-K)*%
X157675000Y-47200000D02*
X158900000Y-47200000D01*
X156750000Y-48125000D02*
X157675000Y-47200000D01*
X156750000Y-53625000D02*
X156750000Y-48125000D01*
X154945000Y-55430000D02*
X156750000Y-53625000D01*
X153725000Y-55430000D02*
X154945000Y-55430000D01*
D61*
%TO.N,Net-(D10-A)*%
X173225000Y-59230000D02*
X169455000Y-59230000D01*
X169455000Y-59230000D02*
X167560000Y-57335000D01*
X167560000Y-57335000D02*
X165000000Y-57335000D01*
%TO.N,Net-(D9-A)*%
X169255000Y-83830000D02*
X167310000Y-81885000D01*
X167310000Y-81885000D02*
X164550000Y-81885000D01*
X173050000Y-83830000D02*
X169255000Y-83830000D01*
%TO.N,Net-(D13-A)*%
X169085000Y-107460000D02*
X166625000Y-107460000D01*
X170855000Y-109230000D02*
X169085000Y-107460000D01*
X174650000Y-109230000D02*
X170855000Y-109230000D01*
%TO.N,Net-(D14-A)*%
X170230000Y-137780000D02*
X168230000Y-135780000D01*
X175242500Y-137780000D02*
X170230000Y-137780000D01*
X168230000Y-135780000D02*
X167292500Y-135780000D01*
D58*
X164580000Y-135780000D02*
X167292500Y-135780000D01*
X163620000Y-134820000D02*
X164580000Y-135780000D01*
X160967500Y-134820000D02*
X163620000Y-134820000D01*
%TO.N,Net-(D13-A)*%
X164435000Y-107460000D02*
X166625000Y-107460000D01*
X163280000Y-106305000D02*
X164435000Y-107460000D01*
X159925000Y-106305000D02*
X163280000Y-106305000D01*
%TO.N,Net-(D9-A)*%
X161759999Y-80734999D02*
X162910000Y-81885000D01*
X162910000Y-81885000D02*
X164550000Y-81885000D01*
X158224999Y-80734999D02*
X161759999Y-80734999D01*
%TO.N,Net-(D10-A)*%
X162435000Y-57335000D02*
X165000000Y-57335000D01*
X161805000Y-56705000D02*
X162435000Y-57335000D01*
X158875000Y-56705000D02*
X161805000Y-56705000D01*
%TO.N,Net-(D8-K)*%
X158900000Y-48775000D02*
X158900000Y-51705000D01*
%TO.N,Net-(D10-K)*%
X158925000Y-47175000D02*
X165000000Y-47175000D01*
X158900000Y-47200000D02*
X158925000Y-47175000D01*
%TO.N,Net-(D7-A)*%
X158225000Y-71725000D02*
X164550000Y-71725000D01*
X158200000Y-71700000D02*
X158225000Y-71725000D01*
%TO.N,Net-(D7-K)*%
X158249999Y-73324999D02*
X158200000Y-73275000D01*
X158249999Y-75979999D02*
X158249999Y-73324999D01*
%TO.N,Net-(D12-A)*%
X167267500Y-125645000D02*
X167292500Y-125620000D01*
X160942500Y-125645000D02*
X167267500Y-125645000D01*
%TO.N,Net-(D11-A)*%
X166605000Y-97280000D02*
X166625000Y-97300000D01*
X159925000Y-97280000D02*
X166605000Y-97280000D01*
%TO.N,Net-(D10-K)*%
X153715000Y-55420000D02*
X153725000Y-55430000D01*
X150120000Y-55420000D02*
X153715000Y-55420000D01*
D61*
X173170000Y-47175000D02*
X173225000Y-47230000D01*
X165000000Y-47175000D02*
X173170000Y-47175000D01*
%TO.N,Net-(D7-A)*%
X172945000Y-71725000D02*
X173050000Y-71830000D01*
X164550000Y-71725000D02*
X172945000Y-71725000D01*
%TO.N,Net-(D12-A)*%
X175082500Y-125620000D02*
X175242500Y-125780000D01*
X167292500Y-125620000D02*
X175082500Y-125620000D01*
%TO.N,Net-(D11-A)*%
X174580000Y-97300000D02*
X174650000Y-97230000D01*
X166625000Y-97300000D02*
X174580000Y-97300000D01*
D58*
%TO.N,Net-(Q2-B)*%
X158855000Y-57955000D02*
X158875000Y-57975000D01*
X154200000Y-57955000D02*
X158855000Y-57955000D01*
%TO.N,Net-(R22-Pad1)*%
X152545000Y-57960000D02*
X152550000Y-57955000D01*
X150120000Y-57960000D02*
X152545000Y-57960000D01*
%TO.N,Net-(D7-A)*%
X152459999Y-79419999D02*
X152474999Y-79404999D01*
X149019999Y-79419999D02*
X152459999Y-79419999D01*
%TO.N,Net-(Q1-B)*%
X158174999Y-81954999D02*
X158224999Y-82004999D01*
X153374999Y-81954999D02*
X158174999Y-81954999D01*
%TO.N,Net-(R21-Pad1)*%
X151719999Y-81959999D02*
X151724999Y-81954999D01*
X149019999Y-81959999D02*
X151719999Y-81959999D01*
%TO.N,Net-(D11-A)*%
X150225000Y-105005000D02*
X153775000Y-105005000D01*
%TO.N,Net-(Q3-B)*%
X154850000Y-107530000D02*
X159880000Y-107530000D01*
X159880000Y-107530000D02*
X159925000Y-107575000D01*
%TO.N,Net-(R27-Pad1)*%
X153185000Y-107545000D02*
X153200000Y-107530000D01*
X150225000Y-107545000D02*
X153185000Y-107545000D01*
%TO.N,Net-(Q4-B)*%
X160947500Y-136070000D02*
X160967500Y-136090000D01*
X155842500Y-136070000D02*
X160947500Y-136070000D01*
%TO.N,Net-(D12-A)*%
X154732500Y-133510000D02*
X154742500Y-133520000D01*
X150762500Y-133510000D02*
X154732500Y-133510000D01*
%TO.N,Net-(R28-Pad1)*%
X154172500Y-136050000D02*
X154192500Y-136070000D01*
X150762500Y-136050000D02*
X154172500Y-136050000D01*
%TO.N,Net-(D12-K)*%
X160942500Y-129470000D02*
X160942500Y-127220000D01*
%TO.N,Net-(D14-A)*%
X160967500Y-131145000D02*
X160942500Y-131120000D01*
X160967500Y-134820000D02*
X160967500Y-131145000D01*
%TO.N,Net-(D11-K)*%
X159925000Y-101380000D02*
X159925000Y-98855000D01*
%TO.N,Net-(D13-A)*%
X159925000Y-106305000D02*
X159925000Y-103030000D01*
%TO.N,Net-(D9-A)*%
X158224999Y-77654999D02*
X158249999Y-77629999D01*
X158224999Y-80734999D02*
X158224999Y-77654999D01*
%TO.N,Net-(D10-A)*%
X158875000Y-53380000D02*
X158900000Y-53355000D01*
X158875000Y-56705000D02*
X158875000Y-53380000D01*
%TD*%
%TA.AperFunction,Conductor*%
%TO.N,/ACLoadControlStage/NC2*%
G36*
X197790677Y-70044685D02*
G01*
X197811319Y-70061319D01*
X198263681Y-70513681D01*
X198297166Y-70575004D01*
X198300000Y-70601362D01*
X198300000Y-73598638D01*
X198280315Y-73665677D01*
X198263681Y-73686319D01*
X197886319Y-74063681D01*
X197824996Y-74097166D01*
X197798638Y-74100000D01*
X197244774Y-74100000D01*
X197177735Y-74080315D01*
X197131980Y-74027511D01*
X197122036Y-73958353D01*
X197151061Y-73894797D01*
X197175337Y-73873265D01*
X197375188Y-73738187D01*
X197375190Y-73738185D01*
X197547236Y-73573293D01*
X197688950Y-73381683D01*
X197796242Y-73168884D01*
X197866024Y-72941020D01*
X197871918Y-72895000D01*
X196138382Y-72895000D01*
X196177056Y-72801631D01*
X196197677Y-72645000D01*
X196177056Y-72488369D01*
X196138382Y-72395000D01*
X197870766Y-72395000D01*
X197870765Y-72394999D01*
X197835974Y-72233566D01*
X197747116Y-72012437D01*
X197622166Y-71809505D01*
X197464719Y-71630610D01*
X197464713Y-71630603D01*
X197279305Y-71480897D01*
X197279295Y-71480890D01*
X197071251Y-71364668D01*
X196846552Y-71285277D01*
X196846538Y-71285273D01*
X196611667Y-71245000D01*
X195842500Y-71245000D01*
X195842500Y-72099118D01*
X195749131Y-72060444D01*
X195631823Y-72045000D01*
X195553177Y-72045000D01*
X195435869Y-72060444D01*
X195342500Y-72099118D01*
X195342500Y-71245000D01*
X194633008Y-71245000D01*
X194455049Y-71260147D01*
X194455046Y-71260148D01*
X194224421Y-71320197D01*
X194007258Y-71418360D01*
X194007255Y-71418362D01*
X193809811Y-71551812D01*
X193809809Y-71551814D01*
X193637763Y-71716706D01*
X193496049Y-71908316D01*
X193388757Y-72121115D01*
X193318975Y-72348979D01*
X193313082Y-72395000D01*
X195046618Y-72395000D01*
X195007944Y-72488369D01*
X194987323Y-72645000D01*
X195007944Y-72801631D01*
X195046618Y-72895000D01*
X193314234Y-72895000D01*
X193349025Y-73056433D01*
X193437883Y-73277562D01*
X193562833Y-73480494D01*
X193720280Y-73659389D01*
X193720286Y-73659396D01*
X193905694Y-73809102D01*
X193905704Y-73809109D01*
X194010669Y-73867747D01*
X194059595Y-73917627D01*
X194073787Y-73986040D01*
X194048739Y-74051265D01*
X193992404Y-74092595D01*
X193950194Y-74100000D01*
X183626362Y-74100000D01*
X183559323Y-74080315D01*
X183538681Y-74063681D01*
X183286319Y-73811319D01*
X183252834Y-73749996D01*
X183250000Y-73723638D01*
X183250000Y-72684728D01*
X183269685Y-72617689D01*
X183322489Y-72571934D01*
X183391647Y-72561990D01*
X183455203Y-72591015D01*
X183482832Y-72625301D01*
X183613191Y-72864039D01*
X183613196Y-72864046D01*
X183719882Y-73006561D01*
X183719883Y-73006562D01*
X184697452Y-72028993D01*
X184707188Y-72058956D01*
X184795186Y-72197619D01*
X184914903Y-72310040D01*
X185049510Y-72384041D01*
X184073436Y-73360115D01*
X184215960Y-73466807D01*
X184215961Y-73466808D01*
X184467042Y-73603908D01*
X184467041Y-73603908D01*
X184735104Y-73703890D01*
X185014637Y-73764699D01*
X185299999Y-73785109D01*
X185300001Y-73785109D01*
X185585362Y-73764699D01*
X185864895Y-73703890D01*
X186132958Y-73603908D01*
X186384047Y-73466803D01*
X186526561Y-73360116D01*
X186526562Y-73360115D01*
X185547534Y-72381086D01*
X185615629Y-72354126D01*
X185748492Y-72257595D01*
X185853175Y-72131055D01*
X185901631Y-72028078D01*
X186880115Y-73006562D01*
X186880116Y-73006561D01*
X186986803Y-72864047D01*
X187123908Y-72612958D01*
X187223890Y-72344895D01*
X187284699Y-72065362D01*
X187305109Y-71780001D01*
X187305109Y-71779998D01*
X187284699Y-71494637D01*
X187223890Y-71215104D01*
X187123908Y-70947041D01*
X186986808Y-70695961D01*
X186986807Y-70695960D01*
X186880115Y-70553436D01*
X185902546Y-71531004D01*
X185892812Y-71501044D01*
X185804814Y-71362381D01*
X185685097Y-71249960D01*
X185550488Y-71175957D01*
X186526561Y-70199884D01*
X186523555Y-70157847D01*
X186538406Y-70089574D01*
X186587812Y-70040168D01*
X186647239Y-70025000D01*
X197723638Y-70025000D01*
X197790677Y-70044685D01*
G37*
%TD.AperFunction*%
%TA.AperFunction,Conductor*%
G36*
X184019799Y-70044685D02*
G01*
X184065554Y-70097489D01*
X184076444Y-70157847D01*
X184073437Y-70199884D01*
X185052466Y-71178912D01*
X184984371Y-71205874D01*
X184851508Y-71302405D01*
X184746825Y-71428945D01*
X184698368Y-71531921D01*
X183719883Y-70553436D01*
X183719882Y-70553437D01*
X183613196Y-70695953D01*
X183613191Y-70695961D01*
X183482832Y-70934698D01*
X183433427Y-70984103D01*
X183365154Y-70998955D01*
X183299690Y-70974538D01*
X183257818Y-70918605D01*
X183250000Y-70875271D01*
X183250000Y-70149000D01*
X183269685Y-70081961D01*
X183322489Y-70036206D01*
X183374000Y-70025000D01*
X183952760Y-70025000D01*
X184019799Y-70044685D01*
G37*
%TD.AperFunction*%
%TD*%
%TA.AperFunction,Conductor*%
%TO.N,/ACLoadControlStage/NO2*%
G36*
X193529516Y-81394685D02*
G01*
X193575271Y-81447489D01*
X193585215Y-81516647D01*
X193556190Y-81580203D01*
X193550158Y-81586681D01*
X193450184Y-81686654D01*
X193358143Y-81835875D01*
X193358141Y-81835880D01*
X193302994Y-82002302D01*
X193302993Y-82002309D01*
X193292500Y-82105013D01*
X193292500Y-82555000D01*
X195046618Y-82555000D01*
X195007944Y-82648369D01*
X194987323Y-82805000D01*
X195007944Y-82961631D01*
X195046618Y-83055000D01*
X193292501Y-83055000D01*
X193292501Y-83504986D01*
X193302994Y-83607697D01*
X193358141Y-83774119D01*
X193358143Y-83774124D01*
X193450184Y-83923345D01*
X193574154Y-84047315D01*
X193723375Y-84139356D01*
X193723380Y-84139358D01*
X193889802Y-84194505D01*
X193889809Y-84194506D01*
X193992519Y-84204999D01*
X195342499Y-84204999D01*
X195342500Y-84204998D01*
X195342500Y-83350881D01*
X195435869Y-83389556D01*
X195553177Y-83405000D01*
X195631823Y-83405000D01*
X195749131Y-83389556D01*
X195842500Y-83350881D01*
X195842500Y-84204999D01*
X197192472Y-84204999D01*
X197192486Y-84204998D01*
X197295197Y-84194505D01*
X197461619Y-84139358D01*
X197461624Y-84139356D01*
X197610845Y-84047315D01*
X197734815Y-83923345D01*
X197826856Y-83774124D01*
X197826858Y-83774119D01*
X197882005Y-83607697D01*
X197882006Y-83607690D01*
X197892499Y-83504986D01*
X197892500Y-83504973D01*
X197892500Y-83055000D01*
X196138382Y-83055000D01*
X196177056Y-82961631D01*
X196197677Y-82805000D01*
X196177056Y-82648369D01*
X196138382Y-82555000D01*
X197892499Y-82555000D01*
X197892499Y-82105028D01*
X197892498Y-82105013D01*
X197882005Y-82002302D01*
X197826858Y-81835880D01*
X197826856Y-81835875D01*
X197734815Y-81686654D01*
X197634842Y-81586681D01*
X197601357Y-81525358D01*
X197606341Y-81455666D01*
X197648213Y-81399733D01*
X197713677Y-81375316D01*
X197722523Y-81375000D01*
X198348638Y-81375000D01*
X198415677Y-81394685D01*
X198436319Y-81411319D01*
X198488681Y-81463681D01*
X198522166Y-81525004D01*
X198525000Y-81551362D01*
X198525000Y-84998638D01*
X198505315Y-85065677D01*
X198488681Y-85086319D01*
X198161319Y-85413681D01*
X198099996Y-85447166D01*
X198073638Y-85450000D01*
X186567809Y-85450000D01*
X186500770Y-85430315D01*
X186480128Y-85413681D01*
X185497534Y-84431086D01*
X185565629Y-84404126D01*
X185698492Y-84307595D01*
X185803175Y-84181055D01*
X185851631Y-84078078D01*
X186830115Y-85056562D01*
X186830116Y-85056561D01*
X186936803Y-84914047D01*
X187073908Y-84662958D01*
X187173890Y-84394895D01*
X187234699Y-84115362D01*
X187255109Y-83830001D01*
X187255109Y-83829998D01*
X187234699Y-83544637D01*
X187173890Y-83265104D01*
X187073908Y-82997041D01*
X186936808Y-82745961D01*
X186936807Y-82745960D01*
X186830115Y-82603436D01*
X185852546Y-83581004D01*
X185842812Y-83551044D01*
X185754814Y-83412381D01*
X185635097Y-83299960D01*
X185500488Y-83225957D01*
X186476562Y-82249883D01*
X186476561Y-82249882D01*
X186334046Y-82143196D01*
X186334038Y-82143191D01*
X186082957Y-82006091D01*
X186082958Y-82006091D01*
X185814895Y-81906109D01*
X185535362Y-81845300D01*
X185250001Y-81824891D01*
X185249999Y-81824891D01*
X184964637Y-81845300D01*
X184685104Y-81906109D01*
X184417041Y-82006091D01*
X184165961Y-82143191D01*
X184165953Y-82143196D01*
X184023437Y-82249882D01*
X184023436Y-82249883D01*
X185002466Y-83228912D01*
X184934371Y-83255874D01*
X184801508Y-83352405D01*
X184696825Y-83478945D01*
X184648368Y-83581921D01*
X183669883Y-82603436D01*
X183669882Y-82603437D01*
X183563196Y-82745953D01*
X183563191Y-82745961D01*
X183426091Y-82997041D01*
X183326109Y-83265104D01*
X183265300Y-83544637D01*
X183244891Y-83829998D01*
X183244891Y-83830001D01*
X183265300Y-84115362D01*
X183326109Y-84394895D01*
X183426091Y-84662958D01*
X183563191Y-84914038D01*
X183563196Y-84914046D01*
X183669882Y-85056561D01*
X183669883Y-85056562D01*
X184647452Y-84078993D01*
X184657188Y-84108956D01*
X184745186Y-84247619D01*
X184864903Y-84360040D01*
X184999510Y-84434041D01*
X184019871Y-85413681D01*
X183958548Y-85447166D01*
X183932190Y-85450000D01*
X183276362Y-85450000D01*
X183209323Y-85430315D01*
X183188681Y-85413681D01*
X182836319Y-85061319D01*
X182802834Y-84999996D01*
X182800000Y-84973638D01*
X182800000Y-81726362D01*
X182819685Y-81659323D01*
X182836319Y-81638681D01*
X183063681Y-81411319D01*
X183125004Y-81377834D01*
X183151362Y-81375000D01*
X193462477Y-81375000D01*
X193529516Y-81394685D01*
G37*
%TD.AperFunction*%
%TD*%
%TA.AperFunction,Conductor*%
%TO.N,/ACLoadControlStage/C2*%
G36*
X170507188Y-78058956D02*
G01*
X170595186Y-78197619D01*
X170714903Y-78310040D01*
X170849510Y-78384041D01*
X169873436Y-79360115D01*
X170015960Y-79466807D01*
X170015961Y-79466808D01*
X170267042Y-79603908D01*
X170267041Y-79603908D01*
X170349914Y-79634818D01*
X170405847Y-79676690D01*
X170430264Y-79742154D01*
X170415412Y-79810427D01*
X170366007Y-79859832D01*
X170306580Y-79875000D01*
X169024000Y-79875000D01*
X168956961Y-79855315D01*
X168911206Y-79802511D01*
X168900000Y-79751000D01*
X168900000Y-78229008D01*
X168919685Y-78161969D01*
X168972489Y-78116214D01*
X169041647Y-78106270D01*
X169105203Y-78135295D01*
X169142977Y-78194073D01*
X169145166Y-78202650D01*
X169176109Y-78344895D01*
X169276091Y-78612958D01*
X169413191Y-78864038D01*
X169413196Y-78864046D01*
X169519882Y-79006561D01*
X169519883Y-79006562D01*
X170497452Y-78028993D01*
X170507188Y-78058956D01*
G37*
%TD.AperFunction*%
%TA.AperFunction,Conductor*%
G36*
X198374275Y-75720053D02*
G01*
X198420363Y-75772567D01*
X198431896Y-75825334D01*
X198414715Y-79751543D01*
X198394737Y-79818495D01*
X198341733Y-79864019D01*
X198290716Y-79875000D01*
X179600000Y-79875000D01*
X171893420Y-79875000D01*
X171826381Y-79855315D01*
X171780626Y-79802511D01*
X171770682Y-79733353D01*
X171799707Y-79669797D01*
X171850086Y-79634818D01*
X171932958Y-79603908D01*
X172184047Y-79466803D01*
X172326561Y-79360116D01*
X172326562Y-79360115D01*
X171347534Y-78381086D01*
X171415629Y-78354126D01*
X171548492Y-78257595D01*
X171653175Y-78131055D01*
X171701631Y-78028078D01*
X172680115Y-79006562D01*
X172680116Y-79006561D01*
X172786803Y-78864047D01*
X172923908Y-78612958D01*
X173023890Y-78344895D01*
X173084699Y-78065362D01*
X173105109Y-77780001D01*
X173105109Y-77779998D01*
X173084699Y-77494637D01*
X173080427Y-77475000D01*
X193313082Y-77475000D01*
X195046618Y-77475000D01*
X195007944Y-77568369D01*
X194987323Y-77725000D01*
X195007944Y-77881631D01*
X195046618Y-77975000D01*
X193314234Y-77975000D01*
X193349025Y-78136433D01*
X193437883Y-78357562D01*
X193562833Y-78560494D01*
X193720280Y-78739389D01*
X193720286Y-78739396D01*
X193905694Y-78889102D01*
X193905704Y-78889109D01*
X194113748Y-79005331D01*
X194338447Y-79084722D01*
X194338461Y-79084726D01*
X194573332Y-79124999D01*
X194573343Y-79125000D01*
X195342500Y-79125000D01*
X195342500Y-78270881D01*
X195435869Y-78309556D01*
X195553177Y-78325000D01*
X195631823Y-78325000D01*
X195749131Y-78309556D01*
X195842500Y-78270881D01*
X195842500Y-79125000D01*
X196551972Y-79125000D01*
X196551991Y-79124999D01*
X196729950Y-79109852D01*
X196729953Y-79109851D01*
X196960578Y-79049802D01*
X197177741Y-78951639D01*
X197177744Y-78951637D01*
X197375188Y-78818187D01*
X197375190Y-78818185D01*
X197547236Y-78653293D01*
X197688950Y-78461683D01*
X197796242Y-78248884D01*
X197866024Y-78021020D01*
X197871918Y-77975000D01*
X196138382Y-77975000D01*
X196177056Y-77881631D01*
X196197677Y-77725000D01*
X196177056Y-77568369D01*
X196138382Y-77475000D01*
X197870766Y-77475000D01*
X197870765Y-77474999D01*
X197835974Y-77313566D01*
X197747116Y-77092437D01*
X197622166Y-76889505D01*
X197464719Y-76710610D01*
X197464713Y-76710603D01*
X197279305Y-76560897D01*
X197279295Y-76560890D01*
X197071251Y-76444668D01*
X196846552Y-76365277D01*
X196846538Y-76365273D01*
X196611667Y-76325000D01*
X195842500Y-76325000D01*
X195842500Y-77179118D01*
X195749131Y-77140444D01*
X195631823Y-77125000D01*
X195553177Y-77125000D01*
X195435869Y-77140444D01*
X195342500Y-77179118D01*
X195342500Y-76325000D01*
X194633008Y-76325000D01*
X194455049Y-76340147D01*
X194455046Y-76340148D01*
X194224421Y-76400197D01*
X194007258Y-76498360D01*
X194007255Y-76498362D01*
X193809811Y-76631812D01*
X193809809Y-76631814D01*
X193637763Y-76796706D01*
X193496049Y-76988316D01*
X193388757Y-77201115D01*
X193318975Y-77428979D01*
X193313082Y-77475000D01*
X173080427Y-77475000D01*
X173023890Y-77215104D01*
X172923908Y-76947041D01*
X172786808Y-76695961D01*
X172786807Y-76695960D01*
X172680115Y-76553436D01*
X171702546Y-77531004D01*
X171692812Y-77501044D01*
X171604814Y-77362381D01*
X171485097Y-77249960D01*
X171350488Y-77175957D01*
X172326562Y-76199883D01*
X172326561Y-76199882D01*
X172184046Y-76093196D01*
X172184038Y-76093191D01*
X172013527Y-76000085D01*
X171964122Y-75950680D01*
X171949270Y-75882407D01*
X171973687Y-75816942D01*
X172029621Y-75775071D01*
X172073868Y-75767257D01*
X179850000Y-75825000D01*
X179849998Y-75824999D01*
X179911915Y-75825459D01*
X179927382Y-75818317D01*
X179944751Y-75816982D01*
X198307112Y-75700793D01*
X198374275Y-75720053D01*
G37*
%TD.AperFunction*%
%TA.AperFunction,Conductor*%
G36*
X170154074Y-75753001D02*
G01*
X170220964Y-75773183D01*
X170266326Y-75826326D01*
X170275755Y-75895556D01*
X170246259Y-75958894D01*
X170212579Y-75985830D01*
X170015961Y-76093191D01*
X170015953Y-76093196D01*
X169873437Y-76199882D01*
X169873436Y-76199883D01*
X170852466Y-77178912D01*
X170784371Y-77205874D01*
X170651508Y-77302405D01*
X170546825Y-77428945D01*
X170498368Y-77531921D01*
X169519883Y-76553436D01*
X169519882Y-76553437D01*
X169413196Y-76695953D01*
X169413191Y-76695961D01*
X169276091Y-76947041D01*
X169176109Y-77215104D01*
X169145166Y-77357349D01*
X169111681Y-77418672D01*
X169050358Y-77452157D01*
X168980666Y-77447173D01*
X168924733Y-77405301D01*
X168900316Y-77339837D01*
X168900000Y-77330991D01*
X168900000Y-75868613D01*
X168919685Y-75801574D01*
X168972489Y-75755819D01*
X169024918Y-75744616D01*
X170154074Y-75753001D01*
G37*
%TD.AperFunction*%
%TD*%
%TA.AperFunction,Conductor*%
%TO.N,/ACLoadControlStage/NC1*%
G36*
X197990677Y-45569685D02*
G01*
X198011319Y-45586319D01*
X198463681Y-46038681D01*
X198497166Y-46100004D01*
X198500000Y-46126362D01*
X198500000Y-49123638D01*
X198480315Y-49190677D01*
X198463681Y-49211319D01*
X198086319Y-49588681D01*
X198024996Y-49622166D01*
X197998638Y-49625000D01*
X196948814Y-49625000D01*
X196881775Y-49605315D01*
X196836020Y-49552511D01*
X196826076Y-49483353D01*
X196855101Y-49419797D01*
X196913879Y-49382023D01*
X196917569Y-49381001D01*
X196960578Y-49369802D01*
X197177741Y-49271639D01*
X197177744Y-49271637D01*
X197375188Y-49138187D01*
X197375190Y-49138185D01*
X197547236Y-48973293D01*
X197688950Y-48781683D01*
X197796242Y-48568884D01*
X197866024Y-48341020D01*
X197871918Y-48295000D01*
X196138382Y-48295000D01*
X196177056Y-48201631D01*
X196197677Y-48045000D01*
X196177056Y-47888369D01*
X196138382Y-47795000D01*
X197870766Y-47795000D01*
X197870765Y-47794999D01*
X197835974Y-47633566D01*
X197747116Y-47412437D01*
X197622166Y-47209505D01*
X197464719Y-47030610D01*
X197464713Y-47030603D01*
X197279305Y-46880897D01*
X197279295Y-46880890D01*
X197071251Y-46764668D01*
X196846552Y-46685277D01*
X196846538Y-46685273D01*
X196611667Y-46645000D01*
X195842500Y-46645000D01*
X195842500Y-47499118D01*
X195749131Y-47460444D01*
X195631823Y-47445000D01*
X195553177Y-47445000D01*
X195435869Y-47460444D01*
X195342500Y-47499118D01*
X195342500Y-46645000D01*
X194633008Y-46645000D01*
X194455049Y-46660147D01*
X194455046Y-46660148D01*
X194224421Y-46720197D01*
X194007258Y-46818360D01*
X194007255Y-46818362D01*
X193809811Y-46951812D01*
X193809809Y-46951814D01*
X193637763Y-47116706D01*
X193496049Y-47308316D01*
X193388757Y-47521115D01*
X193318975Y-47748979D01*
X193313082Y-47795000D01*
X195046618Y-47795000D01*
X195007944Y-47888369D01*
X194987323Y-48045000D01*
X195007944Y-48201631D01*
X195046618Y-48295000D01*
X193314234Y-48295000D01*
X193349025Y-48456433D01*
X193437883Y-48677562D01*
X193562833Y-48880494D01*
X193720280Y-49059389D01*
X193720286Y-49059396D01*
X193905694Y-49209102D01*
X193905704Y-49209109D01*
X194113747Y-49325330D01*
X194280032Y-49384083D01*
X194336684Y-49424977D01*
X194362234Y-49490007D01*
X194348570Y-49558528D01*
X194300030Y-49608784D01*
X194238722Y-49625000D01*
X183826362Y-49625000D01*
X183759323Y-49605315D01*
X183738681Y-49588681D01*
X183486319Y-49336319D01*
X183452834Y-49274996D01*
X183450000Y-49248638D01*
X183450000Y-48130513D01*
X183469685Y-48063474D01*
X183522489Y-48017719D01*
X183591647Y-48007775D01*
X183655203Y-48036800D01*
X183682832Y-48071086D01*
X183788191Y-48264038D01*
X183788196Y-48264046D01*
X183894882Y-48406561D01*
X183894883Y-48406562D01*
X184872452Y-47428993D01*
X184882188Y-47458956D01*
X184970186Y-47597619D01*
X185089903Y-47710040D01*
X185224510Y-47784041D01*
X184248436Y-48760115D01*
X184390960Y-48866807D01*
X184390961Y-48866808D01*
X184642042Y-49003908D01*
X184642041Y-49003908D01*
X184910104Y-49103890D01*
X185189637Y-49164699D01*
X185474999Y-49185109D01*
X185475001Y-49185109D01*
X185760362Y-49164699D01*
X186039895Y-49103890D01*
X186307958Y-49003908D01*
X186559047Y-48866803D01*
X186701561Y-48760116D01*
X186701562Y-48760115D01*
X185722534Y-47781086D01*
X185790629Y-47754126D01*
X185923492Y-47657595D01*
X186028175Y-47531055D01*
X186076631Y-47428078D01*
X187055115Y-48406562D01*
X187055116Y-48406561D01*
X187161803Y-48264047D01*
X187298908Y-48012958D01*
X187398890Y-47744895D01*
X187459699Y-47465362D01*
X187480109Y-47180001D01*
X187480109Y-47179998D01*
X187459699Y-46894637D01*
X187398890Y-46615104D01*
X187298908Y-46347041D01*
X187161808Y-46095961D01*
X187161807Y-46095960D01*
X187055115Y-45953436D01*
X186077546Y-46931004D01*
X186067812Y-46901044D01*
X185979814Y-46762381D01*
X185860097Y-46649960D01*
X185725488Y-46575957D01*
X186715126Y-45586319D01*
X186776449Y-45552834D01*
X186802807Y-45550000D01*
X197923638Y-45550000D01*
X197990677Y-45569685D01*
G37*
%TD.AperFunction*%
%TA.AperFunction,Conductor*%
G36*
X184214231Y-45569685D02*
G01*
X184234873Y-45586319D01*
X185227466Y-46578912D01*
X185159371Y-46605874D01*
X185026508Y-46702405D01*
X184921825Y-46828945D01*
X184873368Y-46931921D01*
X183894883Y-45953436D01*
X183894882Y-45953437D01*
X183788196Y-46095953D01*
X183788191Y-46095961D01*
X183682832Y-46288913D01*
X183633427Y-46338318D01*
X183565154Y-46353170D01*
X183499690Y-46328753D01*
X183457818Y-46272820D01*
X183450000Y-46229486D01*
X183450000Y-45674000D01*
X183469685Y-45606961D01*
X183522489Y-45561206D01*
X183574000Y-45550000D01*
X184147192Y-45550000D01*
X184214231Y-45569685D01*
G37*
%TD.AperFunction*%
%TD*%
%TA.AperFunction,Conductor*%
%TO.N,/ACLoadControlStage/NO1*%
G36*
X193479516Y-56844685D02*
G01*
X193525271Y-56897489D01*
X193535215Y-56966647D01*
X193506190Y-57030203D01*
X193500158Y-57036681D01*
X193450184Y-57086654D01*
X193358143Y-57235875D01*
X193358141Y-57235880D01*
X193302994Y-57402302D01*
X193302993Y-57402309D01*
X193292500Y-57505013D01*
X193292500Y-57955000D01*
X195046618Y-57955000D01*
X195007944Y-58048369D01*
X194987323Y-58205000D01*
X195007944Y-58361631D01*
X195046618Y-58455000D01*
X193292501Y-58455000D01*
X193292501Y-58904986D01*
X193302994Y-59007697D01*
X193358141Y-59174119D01*
X193358143Y-59174124D01*
X193450184Y-59323345D01*
X193574154Y-59447315D01*
X193723375Y-59539356D01*
X193723380Y-59539358D01*
X193889802Y-59594505D01*
X193889809Y-59594506D01*
X193992519Y-59604999D01*
X195342499Y-59604999D01*
X195342500Y-59604998D01*
X195342500Y-58750881D01*
X195435869Y-58789556D01*
X195553177Y-58805000D01*
X195631823Y-58805000D01*
X195749131Y-58789556D01*
X195842500Y-58750881D01*
X195842500Y-59604999D01*
X197192472Y-59604999D01*
X197192486Y-59604998D01*
X197295197Y-59594505D01*
X197461619Y-59539358D01*
X197461624Y-59539356D01*
X197610845Y-59447315D01*
X197734815Y-59323345D01*
X197826856Y-59174124D01*
X197826858Y-59174119D01*
X197882005Y-59007697D01*
X197882006Y-59007690D01*
X197892499Y-58904986D01*
X197892500Y-58904973D01*
X197892500Y-58455000D01*
X196138382Y-58455000D01*
X196177056Y-58361631D01*
X196197677Y-58205000D01*
X196177056Y-58048369D01*
X196138382Y-57955000D01*
X197892499Y-57955000D01*
X197892499Y-57505028D01*
X197892498Y-57505013D01*
X197882005Y-57402302D01*
X197826858Y-57235880D01*
X197826856Y-57235875D01*
X197734815Y-57086654D01*
X197684842Y-57036681D01*
X197651357Y-56975358D01*
X197656341Y-56905666D01*
X197698213Y-56849733D01*
X197763677Y-56825316D01*
X197772523Y-56825000D01*
X198548638Y-56825000D01*
X198615677Y-56844685D01*
X198636319Y-56861319D01*
X198688681Y-56913681D01*
X198722166Y-56975004D01*
X198725000Y-57001362D01*
X198725000Y-60448638D01*
X198705315Y-60515677D01*
X198688681Y-60536319D01*
X198361319Y-60863681D01*
X198299996Y-60897166D01*
X198273638Y-60900000D01*
X186778319Y-60900000D01*
X186711280Y-60880315D01*
X186665525Y-60827511D01*
X186664769Y-60823322D01*
X185672534Y-59831086D01*
X185740629Y-59804126D01*
X185873492Y-59707595D01*
X185978175Y-59581055D01*
X186026631Y-59478078D01*
X187005115Y-60456562D01*
X187005116Y-60456561D01*
X187111803Y-60314047D01*
X187248908Y-60062958D01*
X187348890Y-59794895D01*
X187409699Y-59515362D01*
X187430109Y-59230001D01*
X187430109Y-59229998D01*
X187409699Y-58944637D01*
X187348890Y-58665104D01*
X187248908Y-58397041D01*
X187111808Y-58145961D01*
X187111807Y-58145960D01*
X187005115Y-58003436D01*
X186027546Y-58981004D01*
X186017812Y-58951044D01*
X185929814Y-58812381D01*
X185810097Y-58699960D01*
X185675488Y-58625957D01*
X186651562Y-57649883D01*
X186651561Y-57649882D01*
X186509046Y-57543196D01*
X186509038Y-57543191D01*
X186257957Y-57406091D01*
X186257958Y-57406091D01*
X185989895Y-57306109D01*
X185710362Y-57245300D01*
X185425001Y-57224891D01*
X185424999Y-57224891D01*
X185139637Y-57245300D01*
X184860104Y-57306109D01*
X184592041Y-57406091D01*
X184340961Y-57543191D01*
X184340953Y-57543196D01*
X184198437Y-57649882D01*
X184198436Y-57649883D01*
X185177466Y-58628912D01*
X185109371Y-58655874D01*
X184976508Y-58752405D01*
X184871825Y-58878945D01*
X184823368Y-58981921D01*
X183844883Y-58003436D01*
X183844882Y-58003437D01*
X183738196Y-58145953D01*
X183738191Y-58145961D01*
X183601091Y-58397041D01*
X183501109Y-58665104D01*
X183440300Y-58944637D01*
X183419891Y-59229998D01*
X183419891Y-59230001D01*
X183440300Y-59515362D01*
X183501109Y-59794895D01*
X183601091Y-60062958D01*
X183738191Y-60314038D01*
X183738196Y-60314046D01*
X183844882Y-60456561D01*
X183844883Y-60456562D01*
X184822452Y-59478993D01*
X184832188Y-59508956D01*
X184920186Y-59647619D01*
X185039903Y-59760040D01*
X185174510Y-59834041D01*
X184182564Y-60825987D01*
X184180511Y-60835428D01*
X184131105Y-60884833D01*
X184071680Y-60900000D01*
X183476362Y-60900000D01*
X183409323Y-60880315D01*
X183388681Y-60863681D01*
X183036319Y-60511319D01*
X183002834Y-60449996D01*
X183000000Y-60423638D01*
X183000000Y-57176362D01*
X183019685Y-57109323D01*
X183036319Y-57088681D01*
X183263681Y-56861319D01*
X183325004Y-56827834D01*
X183351362Y-56825000D01*
X193412477Y-56825000D01*
X193479516Y-56844685D01*
G37*
%TD.AperFunction*%
%TD*%
%TA.AperFunction,Conductor*%
%TO.N,/ACLoadControlStage/C1*%
G36*
X170431402Y-51104063D02*
G01*
X170498290Y-51124244D01*
X170543652Y-51177386D01*
X170553081Y-51246617D01*
X170523585Y-51309955D01*
X170473815Y-51344240D01*
X170442042Y-51356091D01*
X170190961Y-51493191D01*
X170190953Y-51493196D01*
X170048437Y-51599882D01*
X170048436Y-51599883D01*
X171027466Y-52578912D01*
X170959371Y-52605874D01*
X170826508Y-52702405D01*
X170721825Y-52828945D01*
X170673368Y-52931921D01*
X169694883Y-51953436D01*
X169694882Y-51953437D01*
X169588196Y-52095953D01*
X169588191Y-52095961D01*
X169451091Y-52347041D01*
X169351109Y-52615104D01*
X169290300Y-52894637D01*
X169269891Y-53179998D01*
X169269891Y-53180001D01*
X169290300Y-53465362D01*
X169351109Y-53744895D01*
X169451091Y-54012958D01*
X169588191Y-54264038D01*
X169588196Y-54264046D01*
X169694882Y-54406561D01*
X169694883Y-54406562D01*
X170672452Y-53428993D01*
X170682188Y-53458956D01*
X170770186Y-53597619D01*
X170889903Y-53710040D01*
X171024510Y-53784041D01*
X170048436Y-54760115D01*
X170190960Y-54866807D01*
X170190961Y-54866808D01*
X170418415Y-54991007D01*
X170467820Y-55040412D01*
X170482672Y-55108685D01*
X170458255Y-55174149D01*
X170402322Y-55216021D01*
X170358988Y-55223839D01*
X169001998Y-55223839D01*
X168934959Y-55204154D01*
X168889204Y-55151350D01*
X168877998Y-55099839D01*
X168877998Y-51217452D01*
X168897683Y-51150413D01*
X168950487Y-51104658D01*
X169002916Y-51093455D01*
X170431402Y-51104063D01*
G37*
%TD.AperFunction*%
%TA.AperFunction,Conductor*%
G36*
X198352273Y-51068892D02*
G01*
X198398361Y-51121406D01*
X198409894Y-51174173D01*
X198392713Y-55100382D01*
X198372735Y-55167334D01*
X198319731Y-55212858D01*
X198268714Y-55223839D01*
X179577998Y-55223839D01*
X172191012Y-55223839D01*
X172123973Y-55204154D01*
X172078218Y-55151350D01*
X172068274Y-55082192D01*
X172097299Y-55018636D01*
X172131585Y-54991007D01*
X172359047Y-54866803D01*
X172501561Y-54760116D01*
X172501562Y-54760115D01*
X171522534Y-53781086D01*
X171590629Y-53754126D01*
X171723492Y-53657595D01*
X171828175Y-53531055D01*
X171876631Y-53428078D01*
X172855115Y-54406562D01*
X172855116Y-54406561D01*
X172961803Y-54264047D01*
X173098908Y-54012958D01*
X173198890Y-53744895D01*
X173259699Y-53465362D01*
X173280109Y-53180001D01*
X173280109Y-53179998D01*
X173259699Y-52894637D01*
X173255427Y-52875000D01*
X193313082Y-52875000D01*
X195046618Y-52875000D01*
X195007944Y-52968369D01*
X194987323Y-53125000D01*
X195007944Y-53281631D01*
X195046618Y-53375000D01*
X193314234Y-53375000D01*
X193349025Y-53536433D01*
X193437883Y-53757562D01*
X193562833Y-53960494D01*
X193720280Y-54139389D01*
X193720286Y-54139396D01*
X193905694Y-54289102D01*
X193905704Y-54289109D01*
X194113748Y-54405331D01*
X194338447Y-54484722D01*
X194338461Y-54484726D01*
X194573332Y-54524999D01*
X194573343Y-54525000D01*
X195342500Y-54525000D01*
X195342500Y-53670881D01*
X195435869Y-53709556D01*
X195553177Y-53725000D01*
X195631823Y-53725000D01*
X195749131Y-53709556D01*
X195842500Y-53670881D01*
X195842500Y-54525000D01*
X196551972Y-54525000D01*
X196551991Y-54524999D01*
X196729950Y-54509852D01*
X196729953Y-54509851D01*
X196960578Y-54449802D01*
X197177741Y-54351639D01*
X197177744Y-54351637D01*
X197375188Y-54218187D01*
X197375190Y-54218185D01*
X197547236Y-54053293D01*
X197688950Y-53861683D01*
X197796242Y-53648884D01*
X197866024Y-53421020D01*
X197871918Y-53375000D01*
X196138382Y-53375000D01*
X196177056Y-53281631D01*
X196197677Y-53125000D01*
X196177056Y-52968369D01*
X196138382Y-52875000D01*
X197870766Y-52875000D01*
X197870765Y-52874999D01*
X197835974Y-52713566D01*
X197747116Y-52492437D01*
X197622166Y-52289505D01*
X197464719Y-52110610D01*
X197464713Y-52110603D01*
X197279305Y-51960897D01*
X197279295Y-51960890D01*
X197071251Y-51844668D01*
X196846552Y-51765277D01*
X196846538Y-51765273D01*
X196611667Y-51725000D01*
X195842500Y-51725000D01*
X195842500Y-52579118D01*
X195749131Y-52540444D01*
X195631823Y-52525000D01*
X195553177Y-52525000D01*
X195435869Y-52540444D01*
X195342500Y-52579118D01*
X195342500Y-51725000D01*
X194633008Y-51725000D01*
X194455049Y-51740147D01*
X194455046Y-51740148D01*
X194224421Y-51800197D01*
X194007258Y-51898360D01*
X194007255Y-51898362D01*
X193809811Y-52031812D01*
X193809809Y-52031814D01*
X193637763Y-52196706D01*
X193496049Y-52388316D01*
X193388757Y-52601115D01*
X193318975Y-52828979D01*
X193313082Y-52875000D01*
X173255427Y-52875000D01*
X173198890Y-52615104D01*
X173098908Y-52347041D01*
X172961808Y-52095961D01*
X172961807Y-52095960D01*
X172855115Y-51953436D01*
X171877546Y-52931004D01*
X171867812Y-52901044D01*
X171779814Y-52762381D01*
X171660097Y-52649960D01*
X171525488Y-52575957D01*
X172501562Y-51599883D01*
X172501561Y-51599882D01*
X172359046Y-51493196D01*
X172359038Y-51493191D01*
X172107957Y-51356091D01*
X172103929Y-51354252D01*
X172104649Y-51352674D01*
X172054534Y-51315126D01*
X172030143Y-51249652D01*
X172045023Y-51181385D01*
X172094448Y-51132000D01*
X172154747Y-51116860D01*
X179827998Y-51173839D01*
X179827996Y-51173838D01*
X179889913Y-51174298D01*
X179905380Y-51167156D01*
X179922749Y-51165821D01*
X198285110Y-51049632D01*
X198352273Y-51068892D01*
G37*
%TD.AperFunction*%
%TD*%
%TA.AperFunction,Conductor*%
%TO.N,/ACLoadControlStage/C3*%
G36*
X171986374Y-101055585D02*
G01*
X172053265Y-101075767D01*
X172098627Y-101128910D01*
X172108056Y-101198140D01*
X172078560Y-101261478D01*
X172028787Y-101295764D01*
X171867041Y-101356091D01*
X171615961Y-101493191D01*
X171615953Y-101493196D01*
X171473437Y-101599882D01*
X171473436Y-101599883D01*
X172452466Y-102578912D01*
X172384371Y-102605874D01*
X172251508Y-102702405D01*
X172146825Y-102828945D01*
X172098368Y-102931921D01*
X171119883Y-101953436D01*
X171119882Y-101953437D01*
X171013196Y-102095953D01*
X171013191Y-102095961D01*
X170876091Y-102347041D01*
X170776109Y-102615104D01*
X170715300Y-102894637D01*
X170694891Y-103179998D01*
X170694891Y-103180001D01*
X170715300Y-103465362D01*
X170776109Y-103744895D01*
X170876091Y-104012958D01*
X171013191Y-104264038D01*
X171013196Y-104264046D01*
X171119882Y-104406561D01*
X171119883Y-104406562D01*
X172097452Y-103428993D01*
X172107188Y-103458956D01*
X172195186Y-103597619D01*
X172314903Y-103710040D01*
X172449510Y-103784041D01*
X171473436Y-104760115D01*
X171615960Y-104866807D01*
X171615961Y-104866808D01*
X171751846Y-104941007D01*
X171801251Y-104990412D01*
X171816103Y-105058685D01*
X171791686Y-105124149D01*
X171735753Y-105166021D01*
X171692419Y-105173839D01*
X170351998Y-105173839D01*
X170284959Y-105154154D01*
X170239204Y-105101350D01*
X170227998Y-105049839D01*
X170227998Y-101167452D01*
X170247683Y-101100413D01*
X170300487Y-101054658D01*
X170352916Y-101043455D01*
X171986374Y-101055585D01*
G37*
%TD.AperFunction*%
%TA.AperFunction,Conductor*%
G36*
X198721230Y-101025099D02*
G01*
X198767318Y-101077613D01*
X198778851Y-101130380D01*
X198761697Y-105050382D01*
X198741719Y-105117334D01*
X198688715Y-105162858D01*
X198637698Y-105173839D01*
X180927998Y-105173839D01*
X173707581Y-105173839D01*
X173640542Y-105154154D01*
X173594787Y-105101350D01*
X173584843Y-105032192D01*
X173613868Y-104968636D01*
X173648154Y-104941007D01*
X173784047Y-104866803D01*
X173926561Y-104760116D01*
X173926562Y-104760115D01*
X172947534Y-103781086D01*
X173015629Y-103754126D01*
X173148492Y-103657595D01*
X173253175Y-103531055D01*
X173301631Y-103428078D01*
X174280115Y-104406562D01*
X174280116Y-104406561D01*
X174386803Y-104264047D01*
X174523908Y-104012958D01*
X174623890Y-103744895D01*
X174684699Y-103465362D01*
X174705109Y-103180001D01*
X174705109Y-103179998D01*
X174684699Y-102894637D01*
X174680427Y-102875000D01*
X193413082Y-102875000D01*
X195146618Y-102875000D01*
X195107944Y-102968369D01*
X195087323Y-103125000D01*
X195107944Y-103281631D01*
X195146618Y-103375000D01*
X193414234Y-103375000D01*
X193449025Y-103536433D01*
X193537883Y-103757562D01*
X193662833Y-103960494D01*
X193820280Y-104139389D01*
X193820286Y-104139396D01*
X194005694Y-104289102D01*
X194005704Y-104289109D01*
X194213748Y-104405331D01*
X194438447Y-104484722D01*
X194438461Y-104484726D01*
X194673332Y-104524999D01*
X194673343Y-104525000D01*
X195442500Y-104525000D01*
X195442500Y-103670881D01*
X195535869Y-103709556D01*
X195653177Y-103725000D01*
X195731823Y-103725000D01*
X195849131Y-103709556D01*
X195942500Y-103670881D01*
X195942500Y-104525000D01*
X196651972Y-104525000D01*
X196651991Y-104524999D01*
X196829950Y-104509852D01*
X196829953Y-104509851D01*
X197060578Y-104449802D01*
X197277741Y-104351639D01*
X197277744Y-104351637D01*
X197475188Y-104218187D01*
X197475190Y-104218185D01*
X197647236Y-104053293D01*
X197788950Y-103861683D01*
X197896242Y-103648884D01*
X197966024Y-103421020D01*
X197971918Y-103375000D01*
X196238382Y-103375000D01*
X196277056Y-103281631D01*
X196297677Y-103125000D01*
X196277056Y-102968369D01*
X196238382Y-102875000D01*
X197970766Y-102875000D01*
X197970765Y-102874999D01*
X197935974Y-102713566D01*
X197847116Y-102492437D01*
X197722166Y-102289505D01*
X197564719Y-102110610D01*
X197564713Y-102110603D01*
X197379305Y-101960897D01*
X197379295Y-101960890D01*
X197171251Y-101844668D01*
X196946552Y-101765277D01*
X196946538Y-101765273D01*
X196711667Y-101725000D01*
X195942500Y-101725000D01*
X195942500Y-102579118D01*
X195849131Y-102540444D01*
X195731823Y-102525000D01*
X195653177Y-102525000D01*
X195535869Y-102540444D01*
X195442500Y-102579118D01*
X195442500Y-101725000D01*
X194733008Y-101725000D01*
X194555049Y-101740147D01*
X194555046Y-101740148D01*
X194324421Y-101800197D01*
X194107258Y-101898360D01*
X194107255Y-101898362D01*
X193909811Y-102031812D01*
X193909809Y-102031814D01*
X193737763Y-102196706D01*
X193596049Y-102388316D01*
X193488757Y-102601115D01*
X193418975Y-102828979D01*
X193413082Y-102875000D01*
X174680427Y-102875000D01*
X174623890Y-102615104D01*
X174523908Y-102347041D01*
X174386808Y-102095961D01*
X174386807Y-102095960D01*
X174280115Y-101953436D01*
X173302546Y-102931004D01*
X173292812Y-102901044D01*
X173204814Y-102762381D01*
X173085097Y-102649960D01*
X172950488Y-102575957D01*
X173926562Y-101599883D01*
X173926561Y-101599882D01*
X173784046Y-101493196D01*
X173784038Y-101493191D01*
X173532957Y-101356091D01*
X173532958Y-101356091D01*
X173400242Y-101306591D01*
X173344309Y-101264719D01*
X173319892Y-101199255D01*
X173334744Y-101130982D01*
X173384149Y-101081577D01*
X173444494Y-101066412D01*
X181177998Y-101123839D01*
X181177996Y-101123838D01*
X181239913Y-101124298D01*
X181255380Y-101117156D01*
X181272749Y-101115821D01*
X198654067Y-101005839D01*
X198721230Y-101025099D01*
G37*
%TD.AperFunction*%
%TD*%
%TA.AperFunction,Conductor*%
%TO.N,/ACLoadControlStage/NO3*%
G36*
X193629516Y-106794685D02*
G01*
X193675271Y-106847489D01*
X193685215Y-106916647D01*
X193656190Y-106980203D01*
X193650158Y-106986681D01*
X193550184Y-107086654D01*
X193458143Y-107235875D01*
X193458141Y-107235880D01*
X193402994Y-107402302D01*
X193402993Y-107402309D01*
X193392500Y-107505013D01*
X193392500Y-107955000D01*
X195146618Y-107955000D01*
X195107944Y-108048369D01*
X195087323Y-108205000D01*
X195107944Y-108361631D01*
X195146618Y-108455000D01*
X193392501Y-108455000D01*
X193392501Y-108904986D01*
X193402994Y-109007697D01*
X193458141Y-109174119D01*
X193458143Y-109174124D01*
X193550184Y-109323345D01*
X193674154Y-109447315D01*
X193823375Y-109539356D01*
X193823380Y-109539358D01*
X193989802Y-109594505D01*
X193989809Y-109594506D01*
X194092519Y-109604999D01*
X195442499Y-109604999D01*
X195442500Y-109604998D01*
X195442500Y-108750881D01*
X195535869Y-108789556D01*
X195653177Y-108805000D01*
X195731823Y-108805000D01*
X195849131Y-108789556D01*
X195942500Y-108750881D01*
X195942500Y-109604999D01*
X197292472Y-109604999D01*
X197292486Y-109604998D01*
X197395197Y-109594505D01*
X197561619Y-109539358D01*
X197561624Y-109539356D01*
X197710845Y-109447315D01*
X197834815Y-109323345D01*
X197926856Y-109174124D01*
X197926858Y-109174119D01*
X197982005Y-109007697D01*
X197982006Y-109007690D01*
X197992499Y-108904986D01*
X197992500Y-108904973D01*
X197992500Y-108455000D01*
X196238382Y-108455000D01*
X196277056Y-108361631D01*
X196297677Y-108205000D01*
X196277056Y-108048369D01*
X196238382Y-107955000D01*
X197992499Y-107955000D01*
X197992499Y-107505028D01*
X197992498Y-107505013D01*
X197982005Y-107402302D01*
X197926858Y-107235880D01*
X197926856Y-107235875D01*
X197834815Y-107086654D01*
X197734842Y-106986681D01*
X197701357Y-106925358D01*
X197706341Y-106855666D01*
X197748213Y-106799733D01*
X197813677Y-106775316D01*
X197822523Y-106775000D01*
X198626000Y-106775000D01*
X198693039Y-106794685D01*
X198738794Y-106847489D01*
X198750000Y-106899000D01*
X198750000Y-110727122D01*
X198730315Y-110794161D01*
X198677511Y-110839916D01*
X198627128Y-110851117D01*
X188201158Y-110945967D01*
X188133942Y-110926893D01*
X188087709Y-110874507D01*
X188076346Y-110813124D01*
X188076561Y-110810114D01*
X187097534Y-109831086D01*
X187165629Y-109804126D01*
X187298492Y-109707595D01*
X187403175Y-109581055D01*
X187451631Y-109478078D01*
X188430115Y-110456562D01*
X188430116Y-110456561D01*
X188536803Y-110314047D01*
X188673908Y-110062958D01*
X188773890Y-109794895D01*
X188834699Y-109515362D01*
X188855109Y-109230001D01*
X188855109Y-109229998D01*
X188834699Y-108944637D01*
X188773890Y-108665104D01*
X188673908Y-108397041D01*
X188536808Y-108145961D01*
X188536807Y-108145960D01*
X188430115Y-108003436D01*
X187452546Y-108981004D01*
X187442812Y-108951044D01*
X187354814Y-108812381D01*
X187235097Y-108699960D01*
X187100488Y-108625957D01*
X188076562Y-107649883D01*
X188076561Y-107649882D01*
X187934046Y-107543196D01*
X187934038Y-107543191D01*
X187682957Y-107406091D01*
X187682958Y-107406091D01*
X187414895Y-107306109D01*
X187135362Y-107245300D01*
X186850001Y-107224891D01*
X186849999Y-107224891D01*
X186564637Y-107245300D01*
X186285104Y-107306109D01*
X186017041Y-107406091D01*
X185765961Y-107543191D01*
X185765953Y-107543196D01*
X185623437Y-107649882D01*
X185623436Y-107649883D01*
X186602466Y-108628912D01*
X186534371Y-108655874D01*
X186401508Y-108752405D01*
X186296825Y-108878945D01*
X186248368Y-108981921D01*
X185269883Y-108003436D01*
X185269882Y-108003437D01*
X185163196Y-108145953D01*
X185163191Y-108145961D01*
X185026091Y-108397041D01*
X184926109Y-108665104D01*
X184865300Y-108944637D01*
X184844891Y-109229998D01*
X184844891Y-109230001D01*
X184865300Y-109515362D01*
X184926109Y-109794895D01*
X185026091Y-110062958D01*
X185163191Y-110314038D01*
X185163196Y-110314046D01*
X185269882Y-110456561D01*
X185269883Y-110456562D01*
X186247452Y-109478993D01*
X186257188Y-109508956D01*
X186345186Y-109647619D01*
X186464903Y-109760040D01*
X186599510Y-109834041D01*
X185623436Y-110810115D01*
X185625408Y-110837674D01*
X185610556Y-110905947D01*
X185561151Y-110955352D01*
X185502852Y-110970515D01*
X184737927Y-110977474D01*
X184670711Y-110958400D01*
X184624478Y-110906014D01*
X184618756Y-110891452D01*
X184530957Y-110618518D01*
X184525000Y-110580545D01*
X184525000Y-106951362D01*
X184544685Y-106884323D01*
X184561319Y-106863681D01*
X184613681Y-106811319D01*
X184675004Y-106777834D01*
X184701362Y-106775000D01*
X193562477Y-106775000D01*
X193629516Y-106794685D01*
G37*
%TD.AperFunction*%
%TD*%
%TA.AperFunction,Conductor*%
%TO.N,/ACLoadControlStage/NC3*%
G36*
X185614231Y-95544685D02*
G01*
X185634873Y-95561319D01*
X186652466Y-96578912D01*
X186584371Y-96605874D01*
X186451508Y-96702405D01*
X186346825Y-96828945D01*
X186298368Y-96931921D01*
X185319883Y-95953436D01*
X185319882Y-95953437D01*
X185213196Y-96095953D01*
X185213191Y-96095961D01*
X185076091Y-96347041D01*
X184976109Y-96615104D01*
X184915300Y-96894637D01*
X184894891Y-97179998D01*
X184894891Y-97180001D01*
X184915300Y-97465362D01*
X184976109Y-97744895D01*
X185076091Y-98012958D01*
X185213191Y-98264038D01*
X185213196Y-98264046D01*
X185319882Y-98406561D01*
X185319883Y-98406562D01*
X186297452Y-97428993D01*
X186307188Y-97458956D01*
X186395186Y-97597619D01*
X186514903Y-97710040D01*
X186649510Y-97784041D01*
X185673436Y-98760115D01*
X185815960Y-98866807D01*
X185815961Y-98866808D01*
X186067042Y-99003908D01*
X186067041Y-99003908D01*
X186335104Y-99103890D01*
X186614637Y-99164699D01*
X186899999Y-99185109D01*
X186900001Y-99185109D01*
X187185362Y-99164699D01*
X187464895Y-99103890D01*
X187732958Y-99003908D01*
X187984047Y-98866803D01*
X188126561Y-98760116D01*
X188126562Y-98760115D01*
X187147534Y-97781086D01*
X187215629Y-97754126D01*
X187348492Y-97657595D01*
X187453175Y-97531055D01*
X187501631Y-97428078D01*
X188480115Y-98406562D01*
X188480116Y-98406561D01*
X188586803Y-98264047D01*
X188723908Y-98012958D01*
X188823890Y-97744895D01*
X188884699Y-97465362D01*
X188905109Y-97180001D01*
X188905109Y-97179998D01*
X188884699Y-96894637D01*
X188823890Y-96615104D01*
X188723908Y-96347041D01*
X188586808Y-96095961D01*
X188586807Y-96095960D01*
X188480115Y-95953436D01*
X187502546Y-96931004D01*
X187492812Y-96901044D01*
X187404814Y-96762381D01*
X187285097Y-96649960D01*
X187150488Y-96575957D01*
X188165127Y-95561319D01*
X188226450Y-95527834D01*
X188252808Y-95525000D01*
X197973638Y-95525000D01*
X198040677Y-95544685D01*
X198061319Y-95561319D01*
X198513681Y-96013681D01*
X198547166Y-96075004D01*
X198550000Y-96101362D01*
X198550000Y-99098638D01*
X198530315Y-99165677D01*
X198513681Y-99186319D01*
X198136319Y-99563681D01*
X198074996Y-99597166D01*
X198048638Y-99600000D01*
X197126687Y-99600000D01*
X197059648Y-99580315D01*
X197013893Y-99527511D01*
X197003949Y-99458353D01*
X197032974Y-99394797D01*
X197075612Y-99363008D01*
X197277732Y-99271644D01*
X197277744Y-99271637D01*
X197475188Y-99138187D01*
X197475190Y-99138185D01*
X197647236Y-98973293D01*
X197788950Y-98781683D01*
X197896242Y-98568884D01*
X197966024Y-98341020D01*
X197971918Y-98295000D01*
X196238382Y-98295000D01*
X196277056Y-98201631D01*
X196297677Y-98045000D01*
X196277056Y-97888369D01*
X196238382Y-97795000D01*
X197970766Y-97795000D01*
X197970765Y-97794999D01*
X197935974Y-97633566D01*
X197847116Y-97412437D01*
X197722166Y-97209505D01*
X197564719Y-97030610D01*
X197564713Y-97030603D01*
X197379305Y-96880897D01*
X197379295Y-96880890D01*
X197171251Y-96764668D01*
X196946552Y-96685277D01*
X196946538Y-96685273D01*
X196711667Y-96645000D01*
X195942500Y-96645000D01*
X195942500Y-97499118D01*
X195849131Y-97460444D01*
X195731823Y-97445000D01*
X195653177Y-97445000D01*
X195535869Y-97460444D01*
X195442500Y-97499118D01*
X195442500Y-96645000D01*
X194733008Y-96645000D01*
X194555049Y-96660147D01*
X194555046Y-96660148D01*
X194324421Y-96720197D01*
X194107258Y-96818360D01*
X194107255Y-96818362D01*
X193909811Y-96951812D01*
X193909809Y-96951814D01*
X193737763Y-97116706D01*
X193596049Y-97308316D01*
X193488757Y-97521115D01*
X193418975Y-97748979D01*
X193413082Y-97795000D01*
X195146618Y-97795000D01*
X195107944Y-97888369D01*
X195087323Y-98045000D01*
X195107944Y-98201631D01*
X195146618Y-98295000D01*
X193414234Y-98295000D01*
X193449025Y-98456433D01*
X193537883Y-98677562D01*
X193662833Y-98880494D01*
X193820280Y-99059389D01*
X193820286Y-99059396D01*
X194005694Y-99209102D01*
X194005704Y-99209109D01*
X194213748Y-99325331D01*
X194309275Y-99359083D01*
X194365928Y-99399977D01*
X194391478Y-99465007D01*
X194377814Y-99533528D01*
X194329274Y-99583784D01*
X194267966Y-99600000D01*
X183876362Y-99600000D01*
X183809323Y-99580315D01*
X183788681Y-99563681D01*
X183536319Y-99311319D01*
X183502834Y-99249996D01*
X183500000Y-99223638D01*
X183500000Y-95649000D01*
X183519685Y-95581961D01*
X183572489Y-95536206D01*
X183624000Y-95525000D01*
X185547192Y-95525000D01*
X185614231Y-95544685D01*
G37*
%TD.AperFunction*%
%TD*%
%TA.AperFunction,Conductor*%
%TO.N,/ACLoadControlStage/C4*%
G36*
X172699688Y-132008956D02*
G01*
X172787686Y-132147619D01*
X172907403Y-132260040D01*
X173042010Y-132334041D01*
X172065936Y-133310115D01*
X172208460Y-133416807D01*
X172208461Y-133416808D01*
X172438041Y-133542168D01*
X172487446Y-133591573D01*
X172502298Y-133659846D01*
X172477881Y-133725310D01*
X172421948Y-133767182D01*
X172378614Y-133775000D01*
X171324846Y-133775000D01*
X171257807Y-133755315D01*
X171212052Y-133702511D01*
X171200849Y-133650157D01*
X171208322Y-132551582D01*
X171228462Y-132484680D01*
X171281576Y-132439285D01*
X171350801Y-132429812D01*
X171414157Y-132459269D01*
X171448501Y-132509093D01*
X171468591Y-132562958D01*
X171605691Y-132814038D01*
X171605696Y-132814046D01*
X171712382Y-132956561D01*
X171712383Y-132956562D01*
X172689952Y-131978993D01*
X172699688Y-132008956D01*
G37*
%TD.AperFunction*%
%TA.AperFunction,Conductor*%
G36*
X198444773Y-129620053D02*
G01*
X198490861Y-129672567D01*
X198502394Y-129725334D01*
X198485213Y-133651543D01*
X198465235Y-133718495D01*
X198412231Y-133764019D01*
X198361214Y-133775000D01*
X179670498Y-133775000D01*
X174206386Y-133775000D01*
X174139347Y-133755315D01*
X174093592Y-133702511D01*
X174083648Y-133633353D01*
X174112673Y-133569797D01*
X174146959Y-133542168D01*
X174376547Y-133416803D01*
X174519061Y-133310116D01*
X174519062Y-133310115D01*
X173540034Y-132331086D01*
X173608129Y-132304126D01*
X173740992Y-132207595D01*
X173845675Y-132081055D01*
X173894131Y-131978078D01*
X174872615Y-132956562D01*
X174872616Y-132956561D01*
X174979303Y-132814047D01*
X175116408Y-132562958D01*
X175216390Y-132294895D01*
X175277199Y-132015362D01*
X175297609Y-131730001D01*
X175297609Y-131729998D01*
X175277199Y-131444637D01*
X175272927Y-131425000D01*
X193413082Y-131425000D01*
X195146618Y-131425000D01*
X195107944Y-131518369D01*
X195087323Y-131675000D01*
X195107944Y-131831631D01*
X195146618Y-131925000D01*
X193414234Y-131925000D01*
X193449025Y-132086433D01*
X193537883Y-132307562D01*
X193662833Y-132510494D01*
X193820280Y-132689389D01*
X193820286Y-132689396D01*
X194005694Y-132839102D01*
X194005704Y-132839109D01*
X194213748Y-132955331D01*
X194438447Y-133034722D01*
X194438461Y-133034726D01*
X194673332Y-133074999D01*
X194673343Y-133075000D01*
X195442500Y-133075000D01*
X195442500Y-132220881D01*
X195535869Y-132259556D01*
X195653177Y-132275000D01*
X195731823Y-132275000D01*
X195849131Y-132259556D01*
X195942500Y-132220881D01*
X195942500Y-133075000D01*
X196651972Y-133075000D01*
X196651991Y-133074999D01*
X196829950Y-133059852D01*
X196829953Y-133059851D01*
X197060578Y-132999802D01*
X197277741Y-132901639D01*
X197277744Y-132901637D01*
X197475188Y-132768187D01*
X197475190Y-132768185D01*
X197647236Y-132603293D01*
X197788950Y-132411683D01*
X197896242Y-132198884D01*
X197966024Y-131971020D01*
X197971918Y-131925000D01*
X196238382Y-131925000D01*
X196277056Y-131831631D01*
X196297677Y-131675000D01*
X196277056Y-131518369D01*
X196238382Y-131425000D01*
X197970766Y-131425000D01*
X197970765Y-131424999D01*
X197935974Y-131263566D01*
X197847116Y-131042437D01*
X197722166Y-130839505D01*
X197564719Y-130660610D01*
X197564713Y-130660603D01*
X197379305Y-130510897D01*
X197379295Y-130510890D01*
X197171251Y-130394668D01*
X196946552Y-130315277D01*
X196946538Y-130315273D01*
X196711667Y-130275000D01*
X195942500Y-130275000D01*
X195942500Y-131129118D01*
X195849131Y-131090444D01*
X195731823Y-131075000D01*
X195653177Y-131075000D01*
X195535869Y-131090444D01*
X195442500Y-131129118D01*
X195442500Y-130275000D01*
X194733008Y-130275000D01*
X194555049Y-130290147D01*
X194555046Y-130290148D01*
X194324421Y-130350197D01*
X194107258Y-130448360D01*
X194107255Y-130448362D01*
X193909811Y-130581812D01*
X193909809Y-130581814D01*
X193737763Y-130746706D01*
X193596049Y-130938316D01*
X193488757Y-131151115D01*
X193418975Y-131378979D01*
X193413082Y-131425000D01*
X175272927Y-131425000D01*
X175216390Y-131165104D01*
X175116408Y-130897041D01*
X174979308Y-130645961D01*
X174979307Y-130645960D01*
X174872615Y-130503436D01*
X173895046Y-131481004D01*
X173885312Y-131451044D01*
X173797314Y-131312381D01*
X173677597Y-131199960D01*
X173542988Y-131125957D01*
X174519062Y-130149883D01*
X174519061Y-130149882D01*
X174376546Y-130043196D01*
X174376538Y-130043191D01*
X174161341Y-129925685D01*
X174111936Y-129876280D01*
X174097084Y-129808007D01*
X174121501Y-129742543D01*
X174177434Y-129700671D01*
X174221463Y-129692855D01*
X179920498Y-129725000D01*
X179920496Y-129724999D01*
X179982691Y-129725350D01*
X179997857Y-129718332D01*
X180015335Y-129716982D01*
X198377610Y-129600793D01*
X198444773Y-129620053D01*
G37*
%TD.AperFunction*%
%TA.AperFunction,Conductor*%
G36*
X172383911Y-129682491D02*
G01*
X172450839Y-129702553D01*
X172496295Y-129755615D01*
X172505848Y-129824828D01*
X172476465Y-129888219D01*
X172442639Y-129915321D01*
X172208461Y-130043191D01*
X172208453Y-130043196D01*
X172065937Y-130149882D01*
X172065936Y-130149883D01*
X173044966Y-131128912D01*
X172976871Y-131155874D01*
X172844008Y-131252405D01*
X172739325Y-131378945D01*
X172690868Y-131481921D01*
X171712383Y-130503436D01*
X171712382Y-130503437D01*
X171605696Y-130645953D01*
X171605691Y-130645961D01*
X171468591Y-130897042D01*
X171468589Y-130897046D01*
X171459897Y-130920351D01*
X171418024Y-130976284D01*
X171352559Y-131000699D01*
X171284287Y-130985846D01*
X171234883Y-130936440D01*
X171219719Y-130876174D01*
X171225000Y-130100000D01*
X171212628Y-129805791D01*
X171229479Y-129737987D01*
X171280314Y-129690054D01*
X171337215Y-129676587D01*
X172383911Y-129682491D01*
G37*
%TD.AperFunction*%
%TD*%
%TA.AperFunction,Conductor*%
%TO.N,/ACLoadControlStage/NO4*%
G36*
X185422703Y-138020373D02*
G01*
X185460477Y-138079151D01*
X185462666Y-138087728D01*
X185518609Y-138344895D01*
X185618591Y-138612958D01*
X185755691Y-138864038D01*
X185755696Y-138864046D01*
X185862382Y-139006561D01*
X185862383Y-139006562D01*
X186839952Y-138028993D01*
X186849688Y-138058956D01*
X186937686Y-138197619D01*
X187057403Y-138310040D01*
X187192010Y-138384041D01*
X186200064Y-139375987D01*
X186198011Y-139385428D01*
X186148605Y-139434833D01*
X186089180Y-139450000D01*
X185341500Y-139450000D01*
X185274461Y-139430315D01*
X185228706Y-139377511D01*
X185217500Y-139326000D01*
X185217500Y-138114086D01*
X185237185Y-138047047D01*
X185289989Y-138001292D01*
X185359147Y-137991348D01*
X185422703Y-138020373D01*
G37*
%TD.AperFunction*%
%TA.AperFunction,Conductor*%
G36*
X193579516Y-135394685D02*
G01*
X193625271Y-135447489D01*
X193635215Y-135516647D01*
X193606190Y-135580203D01*
X193600158Y-135586681D01*
X193550184Y-135636654D01*
X193458143Y-135785875D01*
X193458141Y-135785880D01*
X193402994Y-135952302D01*
X193402993Y-135952309D01*
X193392500Y-136055013D01*
X193392500Y-136505000D01*
X195146618Y-136505000D01*
X195107944Y-136598369D01*
X195087323Y-136755000D01*
X195107944Y-136911631D01*
X195146618Y-137005000D01*
X193392501Y-137005000D01*
X193392501Y-137454986D01*
X193402994Y-137557697D01*
X193458141Y-137724119D01*
X193458143Y-137724124D01*
X193550184Y-137873345D01*
X193674154Y-137997315D01*
X193823375Y-138089356D01*
X193823380Y-138089358D01*
X193989802Y-138144505D01*
X193989809Y-138144506D01*
X194092519Y-138154999D01*
X195442499Y-138154999D01*
X195442500Y-138154998D01*
X195442500Y-137300881D01*
X195535869Y-137339556D01*
X195653177Y-137355000D01*
X195731823Y-137355000D01*
X195849131Y-137339556D01*
X195942500Y-137300881D01*
X195942500Y-138154999D01*
X197292472Y-138154999D01*
X197292486Y-138154998D01*
X197395197Y-138144505D01*
X197561619Y-138089358D01*
X197561624Y-138089356D01*
X197710845Y-137997315D01*
X197834815Y-137873345D01*
X197926856Y-137724124D01*
X197926858Y-137724119D01*
X197982005Y-137557697D01*
X197982006Y-137557690D01*
X197992499Y-137454986D01*
X197992500Y-137454973D01*
X197992500Y-137005000D01*
X196238382Y-137005000D01*
X196277056Y-136911631D01*
X196297677Y-136755000D01*
X196277056Y-136598369D01*
X196238382Y-136505000D01*
X197992499Y-136505000D01*
X197992499Y-136055028D01*
X197992498Y-136055013D01*
X197982005Y-135952302D01*
X197926858Y-135785880D01*
X197926856Y-135785875D01*
X197834815Y-135636654D01*
X197784842Y-135586681D01*
X197751357Y-135525358D01*
X197756341Y-135455666D01*
X197798213Y-135399733D01*
X197863677Y-135375316D01*
X197872523Y-135375000D01*
X198666138Y-135375000D01*
X198733177Y-135394685D01*
X198753819Y-135411319D01*
X198806181Y-135463681D01*
X198839666Y-135525004D01*
X198842500Y-135551362D01*
X198842500Y-138998638D01*
X198822815Y-139065677D01*
X198806181Y-139086319D01*
X198478819Y-139413681D01*
X198417496Y-139447166D01*
X198391138Y-139450000D01*
X188795819Y-139450000D01*
X188728780Y-139430315D01*
X188683025Y-139377511D01*
X188682269Y-139373322D01*
X187690034Y-138381086D01*
X187758129Y-138354126D01*
X187890992Y-138257595D01*
X187995675Y-138131055D01*
X188044131Y-138028078D01*
X189022615Y-139006562D01*
X189022616Y-139006561D01*
X189129303Y-138864047D01*
X189266408Y-138612958D01*
X189366390Y-138344895D01*
X189427199Y-138065362D01*
X189447609Y-137780001D01*
X189447609Y-137779998D01*
X189427199Y-137494637D01*
X189366390Y-137215104D01*
X189266408Y-136947041D01*
X189129308Y-136695961D01*
X189129307Y-136695960D01*
X189022615Y-136553436D01*
X188045046Y-137531004D01*
X188035312Y-137501044D01*
X187947314Y-137362381D01*
X187827597Y-137249960D01*
X187692988Y-137175957D01*
X188669062Y-136199883D01*
X188669061Y-136199882D01*
X188526546Y-136093196D01*
X188526538Y-136093191D01*
X188275457Y-135956091D01*
X188275458Y-135956091D01*
X188007395Y-135856109D01*
X187727862Y-135795300D01*
X187442501Y-135774891D01*
X187442499Y-135774891D01*
X187157137Y-135795300D01*
X186877604Y-135856109D01*
X186609541Y-135956091D01*
X186358461Y-136093191D01*
X186358453Y-136093196D01*
X186215937Y-136199882D01*
X186215936Y-136199883D01*
X187194966Y-137178912D01*
X187126871Y-137205874D01*
X186994008Y-137302405D01*
X186889325Y-137428945D01*
X186840868Y-137531921D01*
X185862383Y-136553436D01*
X185862382Y-136553437D01*
X185755696Y-136695953D01*
X185755691Y-136695961D01*
X185618591Y-136947041D01*
X185518609Y-137215104D01*
X185462666Y-137472271D01*
X185429181Y-137533594D01*
X185367858Y-137567079D01*
X185298166Y-137562095D01*
X185242233Y-137520223D01*
X185217816Y-137454759D01*
X185217500Y-137445913D01*
X185217500Y-135499000D01*
X185237185Y-135431961D01*
X185289989Y-135386206D01*
X185341500Y-135375000D01*
X193512477Y-135375000D01*
X193579516Y-135394685D01*
G37*
%TD.AperFunction*%
%TD*%
%TA.AperFunction,Conductor*%
%TO.N,/ACLoadControlStage/NC4*%
G36*
X198083177Y-124094685D02*
G01*
X198103819Y-124111319D01*
X198556181Y-124563681D01*
X198589666Y-124625004D01*
X198592500Y-124651362D01*
X198592500Y-127648638D01*
X198572815Y-127715677D01*
X198556181Y-127736319D01*
X198178819Y-128113681D01*
X198117496Y-128147166D01*
X198091138Y-128150000D01*
X197126687Y-128150000D01*
X197059648Y-128130315D01*
X197013893Y-128077511D01*
X197003949Y-128008353D01*
X197032974Y-127944797D01*
X197075612Y-127913008D01*
X197277732Y-127821644D01*
X197277744Y-127821637D01*
X197475188Y-127688187D01*
X197475190Y-127688185D01*
X197647236Y-127523293D01*
X197788950Y-127331683D01*
X197896242Y-127118884D01*
X197966024Y-126891020D01*
X197971918Y-126845000D01*
X196238382Y-126845000D01*
X196277056Y-126751631D01*
X196297677Y-126595000D01*
X196277056Y-126438369D01*
X196238382Y-126345000D01*
X197970766Y-126345000D01*
X197970765Y-126344999D01*
X197935974Y-126183566D01*
X197847116Y-125962437D01*
X197722166Y-125759505D01*
X197564719Y-125580610D01*
X197564713Y-125580603D01*
X197379305Y-125430897D01*
X197379295Y-125430890D01*
X197171251Y-125314668D01*
X196946552Y-125235277D01*
X196946538Y-125235273D01*
X196711667Y-125195000D01*
X195942500Y-125195000D01*
X195942500Y-126049118D01*
X195849131Y-126010444D01*
X195731823Y-125995000D01*
X195653177Y-125995000D01*
X195535869Y-126010444D01*
X195442500Y-126049118D01*
X195442500Y-125195000D01*
X194733008Y-125195000D01*
X194555049Y-125210147D01*
X194555046Y-125210148D01*
X194324421Y-125270197D01*
X194107258Y-125368360D01*
X194107255Y-125368362D01*
X193909811Y-125501812D01*
X193909809Y-125501814D01*
X193737763Y-125666706D01*
X193596049Y-125858316D01*
X193488757Y-126071115D01*
X193418975Y-126298979D01*
X193413082Y-126345000D01*
X195146618Y-126345000D01*
X195107944Y-126438369D01*
X195087323Y-126595000D01*
X195107944Y-126751631D01*
X195146618Y-126845000D01*
X193414234Y-126845000D01*
X193449025Y-127006433D01*
X193537883Y-127227562D01*
X193662833Y-127430494D01*
X193820280Y-127609389D01*
X193820286Y-127609396D01*
X194005694Y-127759102D01*
X194005704Y-127759109D01*
X194213748Y-127875331D01*
X194309275Y-127909083D01*
X194365928Y-127949977D01*
X194391478Y-128015007D01*
X194377814Y-128083528D01*
X194329274Y-128133784D01*
X194267966Y-128150000D01*
X185364828Y-128150000D01*
X185297789Y-128130315D01*
X185252034Y-128077511D01*
X185241193Y-128035511D01*
X185239104Y-128008353D01*
X185225436Y-127830674D01*
X185225086Y-127819310D01*
X185253760Y-125933252D01*
X185274462Y-125866521D01*
X185327955Y-125821574D01*
X185397257Y-125812683D01*
X185460364Y-125842670D01*
X185497240Y-125902016D01*
X185501430Y-125926292D01*
X185507800Y-126015362D01*
X185568609Y-126294895D01*
X185668591Y-126562958D01*
X185805691Y-126814038D01*
X185805696Y-126814046D01*
X185912382Y-126956561D01*
X185912383Y-126956562D01*
X186889952Y-125978993D01*
X186899688Y-126008956D01*
X186987686Y-126147619D01*
X187107403Y-126260040D01*
X187242010Y-126334041D01*
X186265936Y-127310115D01*
X186408460Y-127416807D01*
X186408461Y-127416808D01*
X186659542Y-127553908D01*
X186659541Y-127553908D01*
X186927604Y-127653890D01*
X187207137Y-127714699D01*
X187492499Y-127735109D01*
X187492501Y-127735109D01*
X187777862Y-127714699D01*
X188057395Y-127653890D01*
X188325458Y-127553908D01*
X188576547Y-127416803D01*
X188719061Y-127310116D01*
X188719062Y-127310115D01*
X187740034Y-126331086D01*
X187808129Y-126304126D01*
X187940992Y-126207595D01*
X188045675Y-126081055D01*
X188094131Y-125978078D01*
X189072615Y-126956562D01*
X189072616Y-126956561D01*
X189179303Y-126814047D01*
X189316408Y-126562958D01*
X189416390Y-126294895D01*
X189477199Y-126015362D01*
X189497609Y-125730001D01*
X189497609Y-125729998D01*
X189477199Y-125444637D01*
X189416390Y-125165104D01*
X189316408Y-124897041D01*
X189179308Y-124645961D01*
X189179307Y-124645960D01*
X189072615Y-124503436D01*
X188095046Y-125481004D01*
X188085312Y-125451044D01*
X187997314Y-125312381D01*
X187877597Y-125199960D01*
X187742988Y-125125957D01*
X188757627Y-124111319D01*
X188818950Y-124077834D01*
X188845308Y-124075000D01*
X198016138Y-124075000D01*
X198083177Y-124094685D01*
G37*
%TD.AperFunction*%
%TA.AperFunction,Conductor*%
G36*
X186206731Y-124094685D02*
G01*
X186227373Y-124111319D01*
X187244966Y-125128912D01*
X187176871Y-125155874D01*
X187044008Y-125252405D01*
X186939325Y-125378945D01*
X186890868Y-125481921D01*
X185912383Y-124503436D01*
X185912382Y-124503437D01*
X185805696Y-124645953D01*
X185805691Y-124645961D01*
X185668591Y-124897041D01*
X185568609Y-125165104D01*
X185506858Y-125448970D01*
X185505026Y-125448571D01*
X185479182Y-125505070D01*
X185420381Y-125542809D01*
X185350511Y-125542766D01*
X185291756Y-125504955D01*
X185262770Y-125441381D01*
X185261533Y-125421934D01*
X185277050Y-124401303D01*
X185277344Y-124394476D01*
X185291829Y-124190228D01*
X185316206Y-124124749D01*
X185372115Y-124082844D01*
X185415518Y-124075000D01*
X186139692Y-124075000D01*
X186206731Y-124094685D01*
G37*
%TD.AperFunction*%
%TD*%
%TA.AperFunction,Conductor*%
%TO.N,GND*%
G36*
X120943039Y-85619685D02*
G01*
X120988794Y-85672489D01*
X121000000Y-85724000D01*
X121000000Y-95751000D01*
X120980315Y-95818039D01*
X120927511Y-95863794D01*
X120876000Y-95875000D01*
X117254000Y-95875000D01*
X117186961Y-95855315D01*
X117141206Y-95802511D01*
X117130000Y-95751000D01*
X117130000Y-94993677D01*
X117149685Y-94926638D01*
X117202489Y-94880883D01*
X117271647Y-94870939D01*
X117309434Y-94884638D01*
X117309968Y-94883493D01*
X117316518Y-94886547D01*
X117477393Y-94939855D01*
X117576683Y-94949999D01*
X117600000Y-94949998D01*
X117600000Y-94225000D01*
X118100000Y-94225000D01*
X118100000Y-94949999D01*
X118123308Y-94949999D01*
X118123322Y-94949998D01*
X118222607Y-94939855D01*
X118383481Y-94886547D01*
X118383492Y-94886542D01*
X118527728Y-94797575D01*
X118527732Y-94797572D01*
X118647572Y-94677732D01*
X118647575Y-94677728D01*
X118736542Y-94533492D01*
X118736547Y-94533481D01*
X118789855Y-94372606D01*
X118799999Y-94273322D01*
X118800000Y-94273309D01*
X118800000Y-94225000D01*
X118100000Y-94225000D01*
X117600000Y-94225000D01*
X117600000Y-93000000D01*
X118100000Y-93000000D01*
X118100000Y-93725000D01*
X118799999Y-93725000D01*
X118799999Y-93676692D01*
X118799998Y-93676677D01*
X118789855Y-93577392D01*
X118736547Y-93416518D01*
X118736542Y-93416507D01*
X118647575Y-93272271D01*
X118647572Y-93272267D01*
X118527732Y-93152427D01*
X118527728Y-93152424D01*
X118383492Y-93063457D01*
X118383481Y-93063452D01*
X118222606Y-93010144D01*
X118123322Y-93000000D01*
X118100000Y-93000000D01*
X117600000Y-93000000D01*
X117600000Y-92999999D01*
X117576693Y-93000000D01*
X117576674Y-93000001D01*
X117477392Y-93010144D01*
X117316518Y-93063452D01*
X117309968Y-93066507D01*
X117309080Y-93064604D01*
X117251691Y-93080301D01*
X117185030Y-93059371D01*
X117140266Y-93005724D01*
X117130000Y-92956322D01*
X117130000Y-92124000D01*
X117149685Y-92056961D01*
X117202489Y-92011206D01*
X117254000Y-92000000D01*
X117580000Y-92000000D01*
X117580000Y-91150000D01*
X118080000Y-91150000D01*
X118080000Y-92000000D01*
X118577828Y-92000000D01*
X118577844Y-91999999D01*
X118637372Y-91993598D01*
X118637379Y-91993596D01*
X118772086Y-91943354D01*
X118772093Y-91943350D01*
X118887187Y-91857190D01*
X118887190Y-91857187D01*
X118973350Y-91742093D01*
X118973354Y-91742086D01*
X119023596Y-91607379D01*
X119023598Y-91607372D01*
X119029999Y-91547844D01*
X119030000Y-91547827D01*
X119030000Y-91150000D01*
X118080000Y-91150000D01*
X117580000Y-91150000D01*
X117580000Y-89450000D01*
X118080000Y-89450000D01*
X118080000Y-90650000D01*
X119030000Y-90650000D01*
X119030000Y-90252172D01*
X119029999Y-90252155D01*
X119023598Y-90192627D01*
X119023597Y-90192623D01*
X118986564Y-90093334D01*
X118981580Y-90023642D01*
X118986564Y-90006666D01*
X119023597Y-89907376D01*
X119023598Y-89907372D01*
X119029999Y-89847844D01*
X119030000Y-89847827D01*
X119030000Y-89450000D01*
X118080000Y-89450000D01*
X117580000Y-89450000D01*
X117580000Y-88100000D01*
X118080000Y-88100000D01*
X118080000Y-88950000D01*
X119030000Y-88950000D01*
X119030000Y-88552172D01*
X119029999Y-88552155D01*
X119023598Y-88492627D01*
X119023596Y-88492620D01*
X118973354Y-88357913D01*
X118973350Y-88357906D01*
X118887190Y-88242812D01*
X118887187Y-88242809D01*
X118772093Y-88156649D01*
X118772086Y-88156645D01*
X118637379Y-88106403D01*
X118637372Y-88106401D01*
X118577844Y-88100000D01*
X118080000Y-88100000D01*
X117580000Y-88100000D01*
X117254000Y-88100000D01*
X117186961Y-88080315D01*
X117141206Y-88027511D01*
X117130000Y-87976000D01*
X117130000Y-87718677D01*
X117149685Y-87651638D01*
X117202489Y-87605883D01*
X117271647Y-87595939D01*
X117309434Y-87609638D01*
X117309968Y-87608493D01*
X117316518Y-87611547D01*
X117477393Y-87664855D01*
X117576683Y-87674999D01*
X117600000Y-87674998D01*
X117600000Y-86950000D01*
X118100000Y-86950000D01*
X118100000Y-87674999D01*
X118123308Y-87674999D01*
X118123322Y-87674998D01*
X118222607Y-87664855D01*
X118383481Y-87611547D01*
X118383492Y-87611542D01*
X118527728Y-87522575D01*
X118527732Y-87522572D01*
X118647572Y-87402732D01*
X118647575Y-87402728D01*
X118736542Y-87258492D01*
X118736547Y-87258481D01*
X118789855Y-87097606D01*
X118799999Y-86998322D01*
X118800000Y-86998309D01*
X118800000Y-86950000D01*
X118100000Y-86950000D01*
X117600000Y-86950000D01*
X117600000Y-86574000D01*
X117619685Y-86506961D01*
X117672489Y-86461206D01*
X117724000Y-86450000D01*
X118799999Y-86450000D01*
X118799999Y-86401692D01*
X118799998Y-86401677D01*
X118789855Y-86302392D01*
X118736547Y-86141518D01*
X118736542Y-86141507D01*
X118647575Y-85997271D01*
X118647572Y-85997267D01*
X118527732Y-85877427D01*
X118527728Y-85877424D01*
X118450093Y-85829538D01*
X118403368Y-85777590D01*
X118392147Y-85708628D01*
X118419990Y-85644546D01*
X118478059Y-85605690D01*
X118515190Y-85600000D01*
X120876000Y-85600000D01*
X120943039Y-85619685D01*
G37*
%TD.AperFunction*%
%TD*%
%TA.AperFunction,Conductor*%
%TO.N,Net-(C18-Pad1)*%
G36*
X115297776Y-86244685D02*
G01*
X115343531Y-86297489D01*
X115354095Y-86361603D01*
X115350000Y-86401677D01*
X115350000Y-86450000D01*
X116426000Y-86450000D01*
X116493039Y-86469685D01*
X116538794Y-86522489D01*
X116550000Y-86574000D01*
X116550000Y-86826000D01*
X116530315Y-86893039D01*
X116477511Y-86938794D01*
X116426000Y-86950000D01*
X115350001Y-86950000D01*
X115350001Y-86998322D01*
X115360144Y-87097607D01*
X115413452Y-87258481D01*
X115413457Y-87258492D01*
X115502424Y-87402728D01*
X115502427Y-87402732D01*
X115622267Y-87522572D01*
X115622271Y-87522575D01*
X115766507Y-87611542D01*
X115766518Y-87611547D01*
X115927393Y-87664855D01*
X116026683Y-87674999D01*
X116175999Y-87674999D01*
X116243039Y-87694683D01*
X116288794Y-87747487D01*
X116300000Y-87798999D01*
X116300000Y-87976000D01*
X116280315Y-88043039D01*
X116227511Y-88088794D01*
X116176000Y-88100000D01*
X115880000Y-88100000D01*
X115880000Y-89326000D01*
X115860315Y-89393039D01*
X115807511Y-89438794D01*
X115756000Y-89450000D01*
X115504000Y-89450000D01*
X115436961Y-89430315D01*
X115391206Y-89377511D01*
X115380000Y-89326000D01*
X115380000Y-88100000D01*
X114882155Y-88100000D01*
X114822627Y-88106401D01*
X114822620Y-88106403D01*
X114687913Y-88156645D01*
X114687906Y-88156649D01*
X114572812Y-88242809D01*
X114572809Y-88242812D01*
X114486649Y-88357906D01*
X114486646Y-88357911D01*
X114442236Y-88476980D01*
X114400364Y-88532913D01*
X114334900Y-88557330D01*
X114266627Y-88542478D01*
X114219937Y-88497796D01*
X114185072Y-88440122D01*
X114064877Y-88319927D01*
X113919395Y-88231980D01*
X113919396Y-88231980D01*
X113757105Y-88181409D01*
X113757106Y-88181409D01*
X113686572Y-88175000D01*
X113680000Y-88175000D01*
X113680000Y-89276000D01*
X113660315Y-89343039D01*
X113607511Y-89388794D01*
X113556000Y-89400000D01*
X113304000Y-89400000D01*
X113236961Y-89380315D01*
X113191206Y-89327511D01*
X113180000Y-89276000D01*
X113180000Y-88175000D01*
X113179999Y-88174999D01*
X113173436Y-88175000D01*
X113173431Y-88175000D01*
X113165216Y-88175747D01*
X113096671Y-88162207D01*
X113046327Y-88113758D01*
X113030000Y-88052255D01*
X113030000Y-86371362D01*
X113049685Y-86304323D01*
X113066319Y-86283681D01*
X113088681Y-86261319D01*
X113150004Y-86227834D01*
X113176362Y-86225000D01*
X115230737Y-86225000D01*
X115297776Y-86244685D01*
G37*
%TD.AperFunction*%
%TD*%
%TA.AperFunction,Conductor*%
%TO.N,/MCU/OSC_IN*%
G36*
X115823039Y-90669685D02*
G01*
X115868794Y-90722489D01*
X115880000Y-90774000D01*
X115880000Y-92000000D01*
X116201000Y-92000000D01*
X116268039Y-92019685D01*
X116313794Y-92072489D01*
X116325000Y-92124000D01*
X116325000Y-92876000D01*
X116305315Y-92943039D01*
X116252511Y-92988794D01*
X116201001Y-93000000D01*
X116026693Y-93000000D01*
X116026676Y-93000001D01*
X115927392Y-93010144D01*
X115766518Y-93063452D01*
X115766507Y-93063457D01*
X115622271Y-93152424D01*
X115622267Y-93152427D01*
X115502427Y-93272267D01*
X115502424Y-93272271D01*
X115413457Y-93416507D01*
X115413452Y-93416518D01*
X115360144Y-93577393D01*
X115350000Y-93676677D01*
X115350000Y-93725000D01*
X116426000Y-93725000D01*
X116493039Y-93744685D01*
X116538794Y-93797489D01*
X116550000Y-93849000D01*
X116550000Y-94101000D01*
X116530315Y-94168039D01*
X116477511Y-94213794D01*
X116426000Y-94225000D01*
X115350001Y-94225000D01*
X115350001Y-94273320D01*
X115354096Y-94313397D01*
X115341327Y-94382090D01*
X115293446Y-94432975D01*
X115230738Y-94450000D01*
X115054000Y-94450000D01*
X114986961Y-94430315D01*
X114941206Y-94377511D01*
X114930000Y-94326000D01*
X114930000Y-92124000D01*
X114949685Y-92056961D01*
X115002489Y-92011206D01*
X115054000Y-92000000D01*
X115380000Y-92000000D01*
X115380000Y-90774000D01*
X115399685Y-90706961D01*
X115452489Y-90661206D01*
X115504000Y-90650000D01*
X115756000Y-90650000D01*
X115823039Y-90669685D01*
G37*
%TD.AperFunction*%
%TD*%
%TA.AperFunction,Conductor*%
%TO.N,GND*%
G36*
X116118039Y-77369685D02*
G01*
X116163794Y-77422489D01*
X116175000Y-77474000D01*
X116175000Y-80573638D01*
X116155315Y-80640677D01*
X116138681Y-80661319D01*
X116061319Y-80738681D01*
X115999996Y-80772166D01*
X115973638Y-80775000D01*
X115596879Y-80775000D01*
X115529840Y-80755315D01*
X115484085Y-80702511D01*
X115473521Y-80638397D01*
X115479999Y-80574986D01*
X115480000Y-80574973D01*
X115480000Y-80325000D01*
X113130001Y-80325000D01*
X113130001Y-80574986D01*
X113136480Y-80638398D01*
X113123711Y-80707090D01*
X113075830Y-80757975D01*
X113013122Y-80775000D01*
X112199433Y-80775000D01*
X112132394Y-80755315D01*
X112086639Y-80702511D01*
X112076075Y-80638397D01*
X112079999Y-80599986D01*
X112080000Y-80599973D01*
X112080000Y-80350000D01*
X110779000Y-80350000D01*
X110711961Y-80330315D01*
X110666206Y-80277511D01*
X110655000Y-80226000D01*
X110655000Y-78900000D01*
X111155000Y-78900000D01*
X111155000Y-79850000D01*
X112079999Y-79850000D01*
X112079999Y-79825000D01*
X113130000Y-79825000D01*
X114055000Y-79825000D01*
X114055000Y-78875000D01*
X114555000Y-78875000D01*
X114555000Y-79825000D01*
X115479999Y-79825000D01*
X115479999Y-79575028D01*
X115479998Y-79575013D01*
X115469505Y-79472302D01*
X115414358Y-79305880D01*
X115414356Y-79305875D01*
X115322315Y-79156654D01*
X115198345Y-79032684D01*
X115049124Y-78940643D01*
X115049119Y-78940641D01*
X114882697Y-78885494D01*
X114882690Y-78885493D01*
X114779986Y-78875000D01*
X114555000Y-78875000D01*
X114055000Y-78875000D01*
X113830029Y-78875000D01*
X113830012Y-78875001D01*
X113727302Y-78885494D01*
X113560880Y-78940641D01*
X113560875Y-78940643D01*
X113411654Y-79032684D01*
X113287684Y-79156654D01*
X113195643Y-79305875D01*
X113195641Y-79305880D01*
X113140494Y-79472302D01*
X113140493Y-79472309D01*
X113130000Y-79575013D01*
X113130000Y-79825000D01*
X112079999Y-79825000D01*
X112079999Y-79600028D01*
X112079998Y-79600013D01*
X112069505Y-79497302D01*
X112014358Y-79330880D01*
X112014356Y-79330875D01*
X111922315Y-79181654D01*
X111798345Y-79057684D01*
X111649124Y-78965643D01*
X111649119Y-78965641D01*
X111482697Y-78910494D01*
X111482690Y-78910493D01*
X111379986Y-78900000D01*
X111155000Y-78900000D01*
X110655000Y-78900000D01*
X110430029Y-78900000D01*
X110430012Y-78900001D01*
X110327302Y-78910494D01*
X110160880Y-78965641D01*
X110160875Y-78965643D01*
X110011654Y-79057684D01*
X109887684Y-79181654D01*
X109795643Y-79330875D01*
X109795641Y-79330880D01*
X109741706Y-79493647D01*
X109701933Y-79551092D01*
X109637418Y-79577915D01*
X109568642Y-79565600D01*
X109517442Y-79518057D01*
X109500000Y-79454643D01*
X109500000Y-77474000D01*
X109519685Y-77406961D01*
X109572489Y-77361206D01*
X109624000Y-77350000D01*
X116051000Y-77350000D01*
X116118039Y-77369685D01*
G37*
%TD.AperFunction*%
%TD*%
%TA.AperFunction,Conductor*%
%TO.N,+3.3VADC*%
G36*
X109493039Y-92910185D02*
G01*
X109538794Y-92962989D01*
X109550000Y-93014500D01*
X109550000Y-94858291D01*
X109530315Y-94925330D01*
X109477511Y-94971085D01*
X109413397Y-94981649D01*
X109348322Y-94975000D01*
X109325000Y-94975000D01*
X109325000Y-96924999D01*
X109348308Y-96924999D01*
X109348322Y-96924998D01*
X109413398Y-96918350D01*
X109482090Y-96931119D01*
X109532975Y-96979000D01*
X109550000Y-97041708D01*
X109550000Y-98076000D01*
X109530315Y-98143039D01*
X109477511Y-98188794D01*
X109426000Y-98200000D01*
X106869263Y-98200000D01*
X106802224Y-98180315D01*
X106756469Y-98127511D01*
X106745905Y-98063397D01*
X106749999Y-98023322D01*
X106750000Y-98023309D01*
X106750000Y-97975000D01*
X105674000Y-97975000D01*
X105606961Y-97955315D01*
X105561206Y-97902511D01*
X105550000Y-97851000D01*
X105550000Y-96750000D01*
X106050000Y-96750000D01*
X106050000Y-97475000D01*
X106749999Y-97475000D01*
X106749999Y-97426692D01*
X106749998Y-97426677D01*
X106739855Y-97327392D01*
X106686547Y-97166518D01*
X106686542Y-97166507D01*
X106597575Y-97022271D01*
X106597572Y-97022267D01*
X106477732Y-96902427D01*
X106477728Y-96902424D01*
X106333492Y-96813457D01*
X106333481Y-96813452D01*
X106172606Y-96760144D01*
X106073322Y-96750000D01*
X106050000Y-96750000D01*
X105550000Y-96750000D01*
X105550000Y-96749999D01*
X105526693Y-96750000D01*
X105526669Y-96750002D01*
X105486600Y-96754095D01*
X105417908Y-96741325D01*
X105367024Y-96693444D01*
X105350000Y-96630737D01*
X105350000Y-96200000D01*
X108125001Y-96200000D01*
X108125001Y-96248322D01*
X108135144Y-96347607D01*
X108188452Y-96508481D01*
X108188457Y-96508492D01*
X108277424Y-96652728D01*
X108277427Y-96652732D01*
X108397267Y-96772572D01*
X108397271Y-96772575D01*
X108541507Y-96861542D01*
X108541518Y-96861547D01*
X108702393Y-96914855D01*
X108801683Y-96924999D01*
X108825000Y-96924998D01*
X108825000Y-96200000D01*
X108125001Y-96200000D01*
X105350000Y-96200000D01*
X105350000Y-95700000D01*
X108125000Y-95700000D01*
X108825000Y-95700000D01*
X108825000Y-94974999D01*
X108801693Y-94975000D01*
X108801674Y-94975001D01*
X108702392Y-94985144D01*
X108541518Y-95038452D01*
X108541507Y-95038457D01*
X108397271Y-95127424D01*
X108397267Y-95127427D01*
X108277427Y-95247267D01*
X108277424Y-95247271D01*
X108188457Y-95391507D01*
X108188452Y-95391518D01*
X108135144Y-95552393D01*
X108125000Y-95651677D01*
X108125000Y-95700000D01*
X105350000Y-95700000D01*
X105350000Y-95134750D01*
X105359439Y-95087297D01*
X105385199Y-95025105D01*
X105385199Y-95025104D01*
X105399999Y-94912697D01*
X105400000Y-94912683D01*
X105400000Y-94362500D01*
X105024500Y-94362500D01*
X104957461Y-94342815D01*
X104911706Y-94290011D01*
X104900500Y-94238500D01*
X104900500Y-94186500D01*
X104920185Y-94119461D01*
X104972989Y-94073706D01*
X105024500Y-94062500D01*
X105400000Y-94062500D01*
X105400000Y-93574000D01*
X105419685Y-93506961D01*
X105472489Y-93461206D01*
X105524000Y-93450000D01*
X106012500Y-93450000D01*
X106012500Y-93074500D01*
X106032185Y-93007461D01*
X106084989Y-92961706D01*
X106136500Y-92950500D01*
X106188500Y-92950500D01*
X106255539Y-92970185D01*
X106301294Y-93022989D01*
X106312500Y-93074500D01*
X106312500Y-93450000D01*
X106862683Y-93450000D01*
X106862697Y-93449999D01*
X106975104Y-93435199D01*
X106975108Y-93435198D01*
X107114978Y-93377263D01*
X107235094Y-93285094D01*
X107327263Y-93164978D01*
X107385198Y-93025108D01*
X107385199Y-93025104D01*
X107388727Y-92998314D01*
X107416994Y-92934418D01*
X107475318Y-92895947D01*
X107511666Y-92890500D01*
X109426000Y-92890500D01*
X109493039Y-92910185D01*
G37*
%TD.AperFunction*%
%TD*%
%TA.AperFunction,Conductor*%
%TO.N,GND*%
G36*
X69522776Y-100619685D02*
G01*
X69568531Y-100672489D01*
X69579095Y-100736603D01*
X69575000Y-100776677D01*
X69575000Y-100800000D01*
X71524999Y-100800000D01*
X71524999Y-100776692D01*
X71524998Y-100776679D01*
X71520904Y-100736603D01*
X71533673Y-100667910D01*
X71581554Y-100617025D01*
X71644262Y-100600000D01*
X73876000Y-100600000D01*
X73943039Y-100619685D01*
X73988794Y-100672489D01*
X74000000Y-100724000D01*
X74000000Y-101185249D01*
X73980315Y-101252288D01*
X73927511Y-101298043D01*
X73863398Y-101308607D01*
X73779152Y-101300000D01*
X73762500Y-101300000D01*
X73762500Y-103249999D01*
X73779136Y-103249999D01*
X73779150Y-103249998D01*
X73863398Y-103241392D01*
X73932091Y-103254162D01*
X73982976Y-103302042D01*
X74000000Y-103364750D01*
X74000000Y-103401000D01*
X73980315Y-103468039D01*
X73927511Y-103513794D01*
X73876000Y-103525000D01*
X68624000Y-103525000D01*
X68556961Y-103505315D01*
X68511206Y-103452511D01*
X68500000Y-103401000D01*
X68500000Y-102525000D01*
X72575001Y-102525000D01*
X72575001Y-102579152D01*
X72585056Y-102677583D01*
X72637906Y-102837072D01*
X72637908Y-102837077D01*
X72726114Y-102980080D01*
X72844919Y-103098885D01*
X72987922Y-103187091D01*
X72987927Y-103187093D01*
X73147416Y-103239942D01*
X73245856Y-103249999D01*
X73262500Y-103249998D01*
X73262500Y-102525000D01*
X72575001Y-102525000D01*
X68500000Y-102525000D01*
X68500000Y-102025000D01*
X72575000Y-102025000D01*
X73262500Y-102025000D01*
X73262500Y-101299999D01*
X73245856Y-101300000D01*
X73147415Y-101310057D01*
X72987927Y-101362906D01*
X72987922Y-101362908D01*
X72844919Y-101451114D01*
X72726114Y-101569919D01*
X72637908Y-101712922D01*
X72637906Y-101712927D01*
X72585057Y-101872416D01*
X72575000Y-101970849D01*
X72575000Y-102025000D01*
X68500000Y-102025000D01*
X68500000Y-101300000D01*
X69575001Y-101300000D01*
X69575001Y-101323322D01*
X69585144Y-101422607D01*
X69638452Y-101583481D01*
X69638457Y-101583492D01*
X69727424Y-101727728D01*
X69727427Y-101727732D01*
X69847267Y-101847572D01*
X69847271Y-101847575D01*
X69991507Y-101936542D01*
X69991518Y-101936547D01*
X70152393Y-101989855D01*
X70251683Y-101999999D01*
X70299999Y-101999998D01*
X70300000Y-101999998D01*
X70300000Y-101300000D01*
X70800000Y-101300000D01*
X70800000Y-101999999D01*
X70848308Y-101999999D01*
X70848322Y-101999998D01*
X70947607Y-101989855D01*
X71108481Y-101936547D01*
X71108492Y-101936542D01*
X71252728Y-101847575D01*
X71252732Y-101847572D01*
X71372572Y-101727732D01*
X71372575Y-101727728D01*
X71461542Y-101583492D01*
X71461547Y-101583481D01*
X71514855Y-101422606D01*
X71524999Y-101323322D01*
X71525000Y-101323309D01*
X71525000Y-101300000D01*
X70800000Y-101300000D01*
X70300000Y-101300000D01*
X69575001Y-101300000D01*
X68500000Y-101300000D01*
X68500000Y-100724000D01*
X68519685Y-100656961D01*
X68572489Y-100611206D01*
X68624000Y-100600000D01*
X69455737Y-100600000D01*
X69522776Y-100619685D01*
G37*
%TD.AperFunction*%
%TD*%
%TA.AperFunction,Conductor*%
%TO.N,GND*%
G36*
X81590677Y-86644685D02*
G01*
X81611319Y-86661319D01*
X81613681Y-86663681D01*
X81647166Y-86725004D01*
X81650000Y-86751362D01*
X81650000Y-88701000D01*
X81630315Y-88768039D01*
X81577511Y-88813794D01*
X81526000Y-88825000D01*
X77474000Y-88825000D01*
X77406961Y-88805315D01*
X77361206Y-88752511D01*
X77350000Y-88701000D01*
X77350000Y-88144263D01*
X77369685Y-88077224D01*
X77422489Y-88031469D01*
X77486603Y-88020905D01*
X77526683Y-88024999D01*
X77574999Y-88024998D01*
X77575000Y-88024998D01*
X77575000Y-87325000D01*
X78075000Y-87325000D01*
X78075000Y-88024999D01*
X78123308Y-88024999D01*
X78123322Y-88024998D01*
X78222607Y-88014855D01*
X78383481Y-87961547D01*
X78383492Y-87961542D01*
X78527728Y-87872575D01*
X78527732Y-87872572D01*
X78647572Y-87752732D01*
X78647575Y-87752728D01*
X78736542Y-87608492D01*
X78736547Y-87608481D01*
X78789855Y-87447606D01*
X78799999Y-87348322D01*
X78800000Y-87348309D01*
X78800000Y-87325000D01*
X78075000Y-87325000D01*
X77575000Y-87325000D01*
X77575000Y-86949000D01*
X77594685Y-86881961D01*
X77647489Y-86836206D01*
X77699000Y-86825000D01*
X78799999Y-86825000D01*
X78799999Y-86801692D01*
X78799998Y-86801679D01*
X78795904Y-86761603D01*
X78808673Y-86692910D01*
X78856554Y-86642025D01*
X78919262Y-86625000D01*
X81523638Y-86625000D01*
X81590677Y-86644685D01*
G37*
%TD.AperFunction*%
%TD*%
%TA.AperFunction,Conductor*%
%TO.N,+3.3VADC*%
G36*
X81565677Y-83294685D02*
G01*
X81586319Y-83311319D01*
X81638681Y-83363681D01*
X81672166Y-83425004D01*
X81675000Y-83451362D01*
X81675000Y-85851000D01*
X81655315Y-85918039D01*
X81602511Y-85963794D01*
X81551000Y-85975000D01*
X78919263Y-85975000D01*
X78852224Y-85955315D01*
X78806469Y-85902511D01*
X78795905Y-85838397D01*
X78799999Y-85798322D01*
X78800000Y-85798309D01*
X78800000Y-85775000D01*
X77699000Y-85775000D01*
X77631961Y-85755315D01*
X77586206Y-85702511D01*
X77575000Y-85651000D01*
X77575000Y-84575000D01*
X78075000Y-84575000D01*
X78075000Y-85275000D01*
X78799999Y-85275000D01*
X78799999Y-85251692D01*
X78799998Y-85251677D01*
X78789855Y-85152392D01*
X78736547Y-84991518D01*
X78736542Y-84991507D01*
X78647575Y-84847271D01*
X78647572Y-84847267D01*
X78527732Y-84727427D01*
X78527728Y-84727424D01*
X78383492Y-84638457D01*
X78383481Y-84638452D01*
X78222606Y-84585144D01*
X78123322Y-84575000D01*
X78075000Y-84575000D01*
X77575000Y-84575000D01*
X77574999Y-84574999D01*
X77526693Y-84575000D01*
X77526670Y-84575002D01*
X77486600Y-84579095D01*
X77417907Y-84566325D01*
X77367024Y-84518443D01*
X77350000Y-84455737D01*
X77350000Y-83399000D01*
X77369685Y-83331961D01*
X77422489Y-83286206D01*
X77474000Y-83275000D01*
X81498638Y-83275000D01*
X81565677Y-83294685D01*
G37*
%TD.AperFunction*%
%TD*%
%TA.AperFunction,Conductor*%
%TO.N,+3.3VADC*%
G36*
X96560002Y-92945185D02*
G01*
X96605757Y-92997989D01*
X96612738Y-93017409D01*
X96614800Y-93025105D01*
X96672736Y-93164978D01*
X96764905Y-93285094D01*
X96885021Y-93377263D01*
X97024891Y-93435198D01*
X97024895Y-93435199D01*
X97137302Y-93449999D01*
X97137317Y-93450000D01*
X97687500Y-93450000D01*
X97687500Y-93074500D01*
X97707185Y-93007461D01*
X97759989Y-92961706D01*
X97811500Y-92950500D01*
X97863500Y-92950500D01*
X97930539Y-92970185D01*
X97976294Y-93022989D01*
X97987500Y-93074500D01*
X97987500Y-93450000D01*
X98013500Y-93450000D01*
X98080539Y-93469685D01*
X98126294Y-93522489D01*
X98137500Y-93574000D01*
X98137500Y-93784398D01*
X98117815Y-93851437D01*
X98065011Y-93897192D01*
X98000897Y-93907756D01*
X97924986Y-93900000D01*
X97700000Y-93900000D01*
X97700000Y-95226000D01*
X97680315Y-95293039D01*
X97627511Y-95338794D01*
X97576000Y-95350000D01*
X96275001Y-95350000D01*
X96275001Y-95599986D01*
X96281480Y-95663398D01*
X96268711Y-95732090D01*
X96220830Y-95782975D01*
X96158122Y-95800000D01*
X93901362Y-95800000D01*
X93834323Y-95780315D01*
X93813681Y-95763681D01*
X93786319Y-95736319D01*
X93752834Y-95674996D01*
X93750000Y-95648638D01*
X93750000Y-94910586D01*
X93767790Y-94850000D01*
X96275000Y-94850000D01*
X97200000Y-94850000D01*
X97200000Y-93900000D01*
X96975029Y-93900000D01*
X96975012Y-93900001D01*
X96872302Y-93910494D01*
X96705880Y-93965641D01*
X96705875Y-93965643D01*
X96556654Y-94057684D01*
X96432684Y-94181654D01*
X96340643Y-94330875D01*
X96340641Y-94330880D01*
X96285494Y-94497302D01*
X96285493Y-94497309D01*
X96275000Y-94600013D01*
X96275000Y-94850000D01*
X93767790Y-94850000D01*
X93769685Y-94843547D01*
X93822489Y-94797792D01*
X93891647Y-94787848D01*
X93899974Y-94789337D01*
X93902399Y-94789856D01*
X94001683Y-94799999D01*
X94049999Y-94799998D01*
X94050000Y-94799998D01*
X94050000Y-94100000D01*
X94550000Y-94100000D01*
X94550000Y-94799999D01*
X94598308Y-94799999D01*
X94598322Y-94799998D01*
X94697607Y-94789855D01*
X94858481Y-94736547D01*
X94858492Y-94736542D01*
X95002728Y-94647575D01*
X95002732Y-94647572D01*
X95122572Y-94527732D01*
X95122575Y-94527728D01*
X95211542Y-94383492D01*
X95211547Y-94383481D01*
X95264855Y-94222606D01*
X95274999Y-94123322D01*
X95275000Y-94123309D01*
X95275000Y-94100000D01*
X94550000Y-94100000D01*
X94050000Y-94100000D01*
X94050000Y-93724000D01*
X94069685Y-93656961D01*
X94122489Y-93611206D01*
X94174000Y-93600000D01*
X95274999Y-93600000D01*
X95274999Y-93576692D01*
X95274998Y-93576679D01*
X95270904Y-93536603D01*
X95283673Y-93467910D01*
X95331554Y-93417025D01*
X95394262Y-93400000D01*
X96350000Y-93400000D01*
X96350000Y-93049500D01*
X96369685Y-92982461D01*
X96422489Y-92936706D01*
X96474000Y-92925500D01*
X96492963Y-92925500D01*
X96560002Y-92945185D01*
G37*
%TD.AperFunction*%
%TD*%
%TA.AperFunction,Conductor*%
%TO.N,Net-(C2-Pad2)*%
G36*
X119179192Y-116919685D02*
G01*
X119224947Y-116972489D01*
X119234891Y-117041647D01*
X119228335Y-117067334D01*
X119218902Y-117092623D01*
X119218901Y-117092627D01*
X119212500Y-117152155D01*
X119212500Y-119200000D01*
X122212500Y-119200000D01*
X122212500Y-117152172D01*
X122212499Y-117152155D01*
X122206098Y-117092627D01*
X122206097Y-117092623D01*
X122196665Y-117067334D01*
X122191681Y-116997642D01*
X122225165Y-116936319D01*
X122286489Y-116902834D01*
X122312847Y-116900000D01*
X123051000Y-116900000D01*
X123118039Y-116919685D01*
X123163794Y-116972489D01*
X123175000Y-117024000D01*
X123175000Y-123276000D01*
X123155315Y-123343039D01*
X123102511Y-123388794D01*
X123051000Y-123400000D01*
X116497365Y-123400000D01*
X116430326Y-123380315D01*
X116384571Y-123327511D01*
X116374627Y-123258353D01*
X116378979Y-123239111D01*
X116406090Y-123152103D01*
X116412500Y-123081572D01*
X116412500Y-123075000D01*
X115311500Y-123075000D01*
X115244461Y-123055315D01*
X115198706Y-123002511D01*
X115187500Y-122951000D01*
X115187500Y-121925000D01*
X115687500Y-121925000D01*
X115687500Y-122575000D01*
X116412499Y-122575000D01*
X116412499Y-122568417D01*
X116406091Y-122497897D01*
X116406090Y-122497892D01*
X116355518Y-122335603D01*
X116267572Y-122190122D01*
X116147377Y-122069927D01*
X116001895Y-121981980D01*
X116001896Y-121981980D01*
X115839605Y-121931409D01*
X115839606Y-121931409D01*
X115769072Y-121925000D01*
X115687500Y-121925000D01*
X115187500Y-121925000D01*
X115187499Y-121924999D01*
X115105917Y-121925000D01*
X115097711Y-121925746D01*
X115029167Y-121912203D01*
X114978825Y-121863753D01*
X114962500Y-121802254D01*
X114962500Y-120635586D01*
X114982185Y-120568547D01*
X115034989Y-120522792D01*
X115104147Y-120512848D01*
X115112474Y-120514337D01*
X115114899Y-120514856D01*
X115214183Y-120524999D01*
X115262499Y-120524998D01*
X115262500Y-120524998D01*
X115262500Y-119825000D01*
X115762500Y-119825000D01*
X115762500Y-120524999D01*
X115810808Y-120524999D01*
X115810822Y-120524998D01*
X115910107Y-120514855D01*
X116070981Y-120461547D01*
X116070992Y-120461542D01*
X116215228Y-120372575D01*
X116215232Y-120372572D01*
X116335072Y-120252732D01*
X116335075Y-120252728D01*
X116424042Y-120108492D01*
X116424047Y-120108481D01*
X116477355Y-119947606D01*
X116487499Y-119848322D01*
X116487500Y-119848309D01*
X116487500Y-119825000D01*
X115762500Y-119825000D01*
X115262500Y-119825000D01*
X115262500Y-119700000D01*
X119212500Y-119700000D01*
X119212500Y-121747844D01*
X119218901Y-121807372D01*
X119218903Y-121807379D01*
X119269145Y-121942086D01*
X119269149Y-121942093D01*
X119355309Y-122057187D01*
X119355312Y-122057190D01*
X119470406Y-122143350D01*
X119470413Y-122143354D01*
X119605120Y-122193596D01*
X119605127Y-122193598D01*
X119664655Y-122199999D01*
X119664672Y-122200000D01*
X120462500Y-122200000D01*
X120462500Y-119700000D01*
X120962500Y-119700000D01*
X120962500Y-122200000D01*
X121760328Y-122200000D01*
X121760344Y-122199999D01*
X121819872Y-122193598D01*
X121819879Y-122193596D01*
X121954586Y-122143354D01*
X121954593Y-122143350D01*
X122069687Y-122057190D01*
X122069690Y-122057187D01*
X122155850Y-121942093D01*
X122155854Y-121942086D01*
X122206096Y-121807379D01*
X122206098Y-121807372D01*
X122212499Y-121747844D01*
X122212500Y-121747827D01*
X122212500Y-119700000D01*
X120962500Y-119700000D01*
X120462500Y-119700000D01*
X119212500Y-119700000D01*
X115262500Y-119700000D01*
X115262500Y-119449000D01*
X115282185Y-119381961D01*
X115334989Y-119336206D01*
X115386500Y-119325000D01*
X116487499Y-119325000D01*
X116487499Y-119299000D01*
X116507184Y-119231961D01*
X116559988Y-119186206D01*
X116611499Y-119175000D01*
X118150000Y-119175000D01*
X118152216Y-119169648D01*
X118127834Y-119124995D01*
X118125000Y-119098637D01*
X118125000Y-117024000D01*
X118144685Y-116956961D01*
X118197489Y-116911206D01*
X118249000Y-116900000D01*
X119112153Y-116900000D01*
X119179192Y-116919685D01*
G37*
%TD.AperFunction*%
%TD*%
%TA.AperFunction,Conductor*%
%TO.N,/ETHController/OSC_IN_ETH*%
G36*
X123168039Y-124094685D02*
G01*
X123213794Y-124147489D01*
X123225000Y-124199000D01*
X123225000Y-130426000D01*
X123205315Y-130493039D01*
X123152511Y-130538794D01*
X123101000Y-130550000D01*
X122294198Y-130550000D01*
X122227159Y-130530315D01*
X122181404Y-130477511D01*
X122171460Y-130408353D01*
X122178016Y-130382666D01*
X122206097Y-130307376D01*
X122206098Y-130307372D01*
X122212499Y-130247844D01*
X122212500Y-130247827D01*
X122212500Y-128200000D01*
X119212500Y-128200000D01*
X119212500Y-130247844D01*
X119218901Y-130307372D01*
X119218902Y-130307376D01*
X119246984Y-130382666D01*
X119251968Y-130452358D01*
X119218483Y-130513681D01*
X119157160Y-130547166D01*
X119130802Y-130550000D01*
X118249000Y-130550000D01*
X118181961Y-130530315D01*
X118136206Y-130477511D01*
X118125000Y-130426000D01*
X118125000Y-128000000D01*
X116506763Y-128000000D01*
X116439724Y-127980315D01*
X116393969Y-127927511D01*
X116383405Y-127863397D01*
X116387499Y-127823322D01*
X116387500Y-127823309D01*
X116387500Y-127800000D01*
X115286500Y-127800000D01*
X115219461Y-127780315D01*
X115173706Y-127727511D01*
X115167721Y-127700000D01*
X119212500Y-127700000D01*
X120462500Y-127700000D01*
X120462500Y-125200000D01*
X120962500Y-125200000D01*
X120962500Y-127700000D01*
X122212500Y-127700000D01*
X122212500Y-125652172D01*
X122212499Y-125652155D01*
X122206098Y-125592627D01*
X122206096Y-125592620D01*
X122155854Y-125457913D01*
X122155850Y-125457906D01*
X122069690Y-125342812D01*
X122069687Y-125342809D01*
X121954593Y-125256649D01*
X121954586Y-125256645D01*
X121819879Y-125206403D01*
X121819872Y-125206401D01*
X121760344Y-125200000D01*
X120962500Y-125200000D01*
X120462500Y-125200000D01*
X119664655Y-125200000D01*
X119605127Y-125206401D01*
X119605120Y-125206403D01*
X119470413Y-125256645D01*
X119470406Y-125256649D01*
X119355312Y-125342809D01*
X119355309Y-125342812D01*
X119269149Y-125457906D01*
X119269145Y-125457913D01*
X119218903Y-125592620D01*
X119218901Y-125592627D01*
X119212500Y-125652155D01*
X119212500Y-127700000D01*
X115167721Y-127700000D01*
X115162500Y-127676000D01*
X115162500Y-126600000D01*
X115662500Y-126600000D01*
X115662500Y-127300000D01*
X116387499Y-127300000D01*
X116387499Y-127276692D01*
X116387498Y-127276677D01*
X116377355Y-127177392D01*
X116324047Y-127016518D01*
X116324042Y-127016507D01*
X116235075Y-126872271D01*
X116235072Y-126872267D01*
X116115232Y-126752427D01*
X116115228Y-126752424D01*
X115970992Y-126663457D01*
X115970981Y-126663452D01*
X115810106Y-126610144D01*
X115710822Y-126600000D01*
X115662500Y-126600000D01*
X115162500Y-126600000D01*
X115162499Y-126599999D01*
X115114193Y-126600000D01*
X115114170Y-126600002D01*
X115074100Y-126604095D01*
X115005407Y-126591325D01*
X114954524Y-126543443D01*
X114937500Y-126480737D01*
X114937500Y-125495474D01*
X114957185Y-125428435D01*
X115009989Y-125382680D01*
X115072723Y-125371983D01*
X115105918Y-125374999D01*
X115187499Y-125374998D01*
X115187500Y-125374998D01*
X115187500Y-124725000D01*
X115687500Y-124725000D01*
X115687500Y-125374999D01*
X115769081Y-125374999D01*
X115839602Y-125368591D01*
X115839607Y-125368590D01*
X116001896Y-125318018D01*
X116147377Y-125230072D01*
X116267572Y-125109877D01*
X116355519Y-124964395D01*
X116406090Y-124802106D01*
X116412500Y-124731572D01*
X116412500Y-124725000D01*
X115687500Y-124725000D01*
X115187500Y-124725000D01*
X115187500Y-124349000D01*
X115207185Y-124281961D01*
X115259989Y-124236206D01*
X115311500Y-124225000D01*
X116412499Y-124225000D01*
X116412499Y-124218419D01*
X116411754Y-124210222D01*
X116425290Y-124141677D01*
X116473737Y-124091330D01*
X116535245Y-124075000D01*
X123101000Y-124075000D01*
X123168039Y-124094685D01*
G37*
%TD.AperFunction*%
%TD*%
%TA.AperFunction,Conductor*%
%TO.N,/ETHController/RCT*%
G36*
X83801012Y-121019685D02*
G01*
X83846767Y-121072489D01*
X83857331Y-121136603D01*
X83850000Y-121208350D01*
X83850000Y-121225000D01*
X85076000Y-121225000D01*
X85143039Y-121244685D01*
X85188794Y-121297489D01*
X85200000Y-121349000D01*
X85200000Y-122412499D01*
X85379136Y-122412499D01*
X85379145Y-122412498D01*
X85413396Y-122408999D01*
X85482089Y-122421768D01*
X85532974Y-122469647D01*
X85550000Y-122532357D01*
X85550000Y-124065254D01*
X85530315Y-124132293D01*
X85477511Y-124178048D01*
X85408353Y-124187992D01*
X85386996Y-124182960D01*
X85227607Y-124130144D01*
X85128322Y-124120000D01*
X85105000Y-124120000D01*
X85105000Y-125886410D01*
X85127166Y-125927004D01*
X85130000Y-125953362D01*
X85130000Y-127021000D01*
X85110315Y-127088039D01*
X85057511Y-127133794D01*
X85006000Y-127145000D01*
X83930001Y-127145000D01*
X83930001Y-127193320D01*
X83934096Y-127233397D01*
X83921327Y-127302090D01*
X83873446Y-127352975D01*
X83810738Y-127370000D01*
X83452745Y-127370000D01*
X83385706Y-127350315D01*
X83339951Y-127297511D01*
X83329254Y-127234776D01*
X83330000Y-127226568D01*
X83330000Y-127145000D01*
X82304000Y-127145000D01*
X82236961Y-127125315D01*
X82191206Y-127072511D01*
X82180000Y-127021000D01*
X82180000Y-125345000D01*
X82680000Y-125345000D01*
X82680000Y-126645000D01*
X83329999Y-126645000D01*
X83329999Y-126563417D01*
X83323591Y-126492897D01*
X83323590Y-126492892D01*
X83273018Y-126330603D01*
X83185072Y-126185122D01*
X83082631Y-126082681D01*
X83049146Y-126021358D01*
X83054130Y-125951666D01*
X83082631Y-125907319D01*
X83185071Y-125804878D01*
X83185072Y-125804877D01*
X83273019Y-125659395D01*
X83323590Y-125497106D01*
X83330000Y-125426572D01*
X83330000Y-125345000D01*
X83905001Y-125345000D01*
X83905001Y-125393322D01*
X83915144Y-125492607D01*
X83968452Y-125653481D01*
X83968457Y-125653492D01*
X84057424Y-125797728D01*
X84057427Y-125797732D01*
X84179513Y-125919818D01*
X84212998Y-125981141D01*
X84208014Y-126050833D01*
X84179514Y-126095179D01*
X84082427Y-126192267D01*
X84082424Y-126192271D01*
X83993457Y-126336507D01*
X83993452Y-126336518D01*
X83940144Y-126497393D01*
X83930000Y-126596677D01*
X83930000Y-126645000D01*
X84630000Y-126645000D01*
X84630000Y-126103589D01*
X84607834Y-126062996D01*
X84605000Y-126036638D01*
X84605000Y-125345000D01*
X83905001Y-125345000D01*
X83330000Y-125345000D01*
X82680000Y-125345000D01*
X82180000Y-125345000D01*
X82180000Y-124120000D01*
X82680000Y-124120000D01*
X82680000Y-124845000D01*
X83329999Y-124845000D01*
X83905000Y-124845000D01*
X84605000Y-124845000D01*
X84605000Y-124119999D01*
X84581693Y-124120000D01*
X84581674Y-124120001D01*
X84482392Y-124130144D01*
X84321518Y-124183452D01*
X84321507Y-124183457D01*
X84177271Y-124272424D01*
X84177267Y-124272427D01*
X84057427Y-124392267D01*
X84057424Y-124392271D01*
X83968457Y-124536507D01*
X83968452Y-124536518D01*
X83915144Y-124697393D01*
X83905000Y-124796677D01*
X83905000Y-124845000D01*
X83329999Y-124845000D01*
X83329999Y-124763417D01*
X83323591Y-124692897D01*
X83323590Y-124692892D01*
X83273018Y-124530603D01*
X83185072Y-124385122D01*
X83064877Y-124264927D01*
X82919395Y-124176980D01*
X82919396Y-124176980D01*
X82757105Y-124126409D01*
X82757106Y-124126409D01*
X82686572Y-124120000D01*
X82680000Y-124120000D01*
X82180000Y-124120000D01*
X82179999Y-124119999D01*
X82173436Y-124120000D01*
X82173417Y-124120001D01*
X82102897Y-124126408D01*
X82102892Y-124126409D01*
X81940604Y-124176980D01*
X81900649Y-124201134D01*
X81833094Y-124218969D01*
X81766620Y-124197451D01*
X81722333Y-124143410D01*
X81712500Y-124095016D01*
X81712500Y-122569263D01*
X81732185Y-122502224D01*
X81784989Y-122456469D01*
X81849103Y-122445905D01*
X81889183Y-122449999D01*
X81912500Y-122449998D01*
X81912500Y-121725000D01*
X82412500Y-121725000D01*
X82412500Y-122449999D01*
X82435808Y-122449999D01*
X82435822Y-122449998D01*
X82535107Y-122439855D01*
X82695981Y-122386547D01*
X82695992Y-122386542D01*
X82840228Y-122297575D01*
X82840232Y-122297572D01*
X82960072Y-122177732D01*
X82960075Y-122177728D01*
X83049042Y-122033492D01*
X83049047Y-122033481D01*
X83102355Y-121872606D01*
X83112499Y-121773322D01*
X83112500Y-121773309D01*
X83112500Y-121725000D01*
X83850001Y-121725000D01*
X83850001Y-121741652D01*
X83860056Y-121840083D01*
X83912906Y-121999572D01*
X83912908Y-121999577D01*
X84001114Y-122142580D01*
X84119919Y-122261385D01*
X84262922Y-122349591D01*
X84262927Y-122349593D01*
X84422416Y-122402442D01*
X84520855Y-122412499D01*
X84699999Y-122412499D01*
X84700000Y-122412498D01*
X84700000Y-121725000D01*
X83850001Y-121725000D01*
X83112500Y-121725000D01*
X82412500Y-121725000D01*
X81912500Y-121725000D01*
X81912500Y-121349000D01*
X81932185Y-121281961D01*
X81984989Y-121236206D01*
X82036500Y-121225000D01*
X83112499Y-121225000D01*
X83112499Y-121176692D01*
X83112498Y-121176679D01*
X83108404Y-121136603D01*
X83121173Y-121067910D01*
X83169054Y-121017025D01*
X83231762Y-121000000D01*
X83733973Y-121000000D01*
X83801012Y-121019685D01*
G37*
%TD.AperFunction*%
%TD*%
%TA.AperFunction,Conductor*%
%TO.N,/ETHController/TCT*%
G36*
X83827776Y-129589685D02*
G01*
X83873531Y-129642489D01*
X83884095Y-129706603D01*
X83880000Y-129746677D01*
X83880000Y-129795000D01*
X84956000Y-129795000D01*
X85023039Y-129814685D01*
X85068794Y-129867489D01*
X85080000Y-129919000D01*
X85080000Y-131019999D01*
X85103308Y-131019999D01*
X85103322Y-131019998D01*
X85202607Y-131009855D01*
X85351996Y-130960353D01*
X85421824Y-130957951D01*
X85481866Y-130993683D01*
X85513059Y-131056203D01*
X85515000Y-131078059D01*
X85515000Y-131413774D01*
X85495315Y-131480813D01*
X85442511Y-131526568D01*
X85373353Y-131536512D01*
X85351997Y-131531480D01*
X85287608Y-131510144D01*
X85188322Y-131500000D01*
X85165000Y-131500000D01*
X85165000Y-133449999D01*
X85188308Y-133449999D01*
X85188322Y-133449998D01*
X85287605Y-133439856D01*
X85351995Y-133418519D01*
X85421824Y-133416117D01*
X85481866Y-133451848D01*
X85513059Y-133514369D01*
X85515000Y-133536225D01*
X85515000Y-134979312D01*
X85495315Y-135046351D01*
X85442511Y-135092106D01*
X85378398Y-135102670D01*
X85303324Y-135095000D01*
X85280000Y-135095000D01*
X85280000Y-136196000D01*
X85260315Y-136263039D01*
X85207511Y-136308794D01*
X85156000Y-136320000D01*
X84080001Y-136320000D01*
X84080001Y-136368325D01*
X84084606Y-136413399D01*
X84071836Y-136482092D01*
X84023955Y-136532976D01*
X83961248Y-136550000D01*
X83416354Y-136550000D01*
X83349315Y-136530315D01*
X83303560Y-136477511D01*
X83293174Y-136423136D01*
X83292500Y-136423136D01*
X83292500Y-136345000D01*
X82129000Y-136345000D01*
X82061961Y-136325315D01*
X82016206Y-136272511D01*
X82005000Y-136221000D01*
X82005000Y-135070000D01*
X82505000Y-135070000D01*
X82505000Y-135845000D01*
X83292499Y-135845000D01*
X83292499Y-135820000D01*
X84080000Y-135820000D01*
X84780000Y-135820000D01*
X84780000Y-135094999D01*
X84756693Y-135095000D01*
X84756674Y-135095001D01*
X84657392Y-135105144D01*
X84496518Y-135158452D01*
X84496507Y-135158457D01*
X84352271Y-135247424D01*
X84352267Y-135247427D01*
X84232427Y-135367267D01*
X84232424Y-135367271D01*
X84143457Y-135511507D01*
X84143452Y-135511518D01*
X84090144Y-135672393D01*
X84080000Y-135771677D01*
X84080000Y-135820000D01*
X83292499Y-135820000D01*
X83292499Y-135770028D01*
X83292498Y-135770013D01*
X83282005Y-135667302D01*
X83226858Y-135500880D01*
X83226856Y-135500875D01*
X83134815Y-135351654D01*
X83010845Y-135227684D01*
X82861624Y-135135643D01*
X82861619Y-135135641D01*
X82695197Y-135080494D01*
X82695190Y-135080493D01*
X82592486Y-135070000D01*
X82505000Y-135070000D01*
X82005000Y-135070000D01*
X82004999Y-135069999D01*
X81917528Y-135070000D01*
X81917509Y-135070001D01*
X81838324Y-135078091D01*
X81769632Y-135065321D01*
X81718747Y-135017440D01*
X81701737Y-134956550D01*
X81680448Y-133498212D01*
X81699152Y-133430894D01*
X81751283Y-133384374D01*
X81820289Y-133373422D01*
X81868589Y-133390290D01*
X81873102Y-133393018D01*
X81873103Y-133393019D01*
X82035394Y-133443590D01*
X82035393Y-133443590D01*
X82105908Y-133449998D01*
X82105926Y-133449999D01*
X82112499Y-133449998D01*
X82112500Y-133449998D01*
X82112500Y-132725000D01*
X82612500Y-132725000D01*
X82612500Y-133449999D01*
X82619081Y-133449999D01*
X82689602Y-133443591D01*
X82689607Y-133443590D01*
X82851896Y-133393018D01*
X82997377Y-133305072D01*
X83117572Y-133184877D01*
X83205519Y-133039395D01*
X83256090Y-132877106D01*
X83262500Y-132806572D01*
X83262500Y-132725000D01*
X83965001Y-132725000D01*
X83965001Y-132773322D01*
X83975144Y-132872607D01*
X84028452Y-133033481D01*
X84028457Y-133033492D01*
X84117424Y-133177728D01*
X84117427Y-133177732D01*
X84237267Y-133297572D01*
X84237271Y-133297575D01*
X84381507Y-133386542D01*
X84381518Y-133386547D01*
X84542393Y-133439855D01*
X84641683Y-133449999D01*
X84665000Y-133449998D01*
X84665000Y-132725000D01*
X83965001Y-132725000D01*
X83262500Y-132725000D01*
X82612500Y-132725000D01*
X82112500Y-132725000D01*
X82112500Y-131500000D01*
X82612500Y-131500000D01*
X82612500Y-132225000D01*
X83262499Y-132225000D01*
X83965000Y-132225000D01*
X84665000Y-132225000D01*
X84665000Y-131499999D01*
X84641693Y-131500000D01*
X84641674Y-131500001D01*
X84542392Y-131510144D01*
X84381518Y-131563452D01*
X84381507Y-131563457D01*
X84237271Y-131652424D01*
X84237267Y-131652427D01*
X84117427Y-131772267D01*
X84117424Y-131772271D01*
X84028457Y-131916507D01*
X84028452Y-131916518D01*
X83975144Y-132077393D01*
X83965000Y-132176677D01*
X83965000Y-132225000D01*
X83262499Y-132225000D01*
X83262499Y-132143417D01*
X83256091Y-132072897D01*
X83256090Y-132072892D01*
X83205518Y-131910603D01*
X83117572Y-131765122D01*
X82997377Y-131644927D01*
X82851895Y-131556980D01*
X82851896Y-131556980D01*
X82689605Y-131506409D01*
X82689606Y-131506409D01*
X82619072Y-131500000D01*
X82612500Y-131500000D01*
X82112500Y-131500000D01*
X82112499Y-131499999D01*
X82105936Y-131500000D01*
X82105917Y-131500001D01*
X82035397Y-131506408D01*
X82035389Y-131506409D01*
X81945507Y-131534418D01*
X81875647Y-131535570D01*
X81816255Y-131498769D01*
X81786187Y-131435700D01*
X81784870Y-131408123D01*
X81803278Y-131120475D01*
X81827203Y-131054833D01*
X81882821Y-131012544D01*
X81952474Y-131007038D01*
X81963917Y-131010013D01*
X81975398Y-131013591D01*
X82045908Y-131019998D01*
X82045926Y-131019999D01*
X82052499Y-131019998D01*
X82052500Y-131019998D01*
X82052500Y-130295000D01*
X82552500Y-130295000D01*
X82552500Y-131019999D01*
X82559081Y-131019999D01*
X82629602Y-131013591D01*
X82629607Y-131013590D01*
X82791896Y-130963018D01*
X82937377Y-130875072D01*
X83057572Y-130754877D01*
X83145519Y-130609395D01*
X83196090Y-130447106D01*
X83202500Y-130376572D01*
X83202500Y-130295000D01*
X83880001Y-130295000D01*
X83880001Y-130343322D01*
X83890144Y-130442607D01*
X83943452Y-130603481D01*
X83943457Y-130603492D01*
X84032424Y-130747728D01*
X84032427Y-130747732D01*
X84152267Y-130867572D01*
X84152271Y-130867575D01*
X84296507Y-130956542D01*
X84296518Y-130956547D01*
X84457393Y-131009855D01*
X84556683Y-131019999D01*
X84580000Y-131019998D01*
X84580000Y-130295000D01*
X83880001Y-130295000D01*
X83202500Y-130295000D01*
X82552500Y-130295000D01*
X82052500Y-130295000D01*
X82052500Y-129919000D01*
X82072185Y-129851961D01*
X82124989Y-129806206D01*
X82176500Y-129795000D01*
X83202499Y-129795000D01*
X83202499Y-129713419D01*
X83201754Y-129705222D01*
X83215290Y-129636677D01*
X83263737Y-129586330D01*
X83325245Y-129570000D01*
X83760737Y-129570000D01*
X83827776Y-129589685D01*
G37*
%TD.AperFunction*%
%TD*%
%TA.AperFunction,Conductor*%
%TO.N,+24V*%
G36*
X64255039Y-47544685D02*
G01*
X64300794Y-47597489D01*
X64312000Y-47649000D01*
X64312000Y-49559609D01*
X64292315Y-49626648D01*
X64272154Y-49650681D01*
X64237500Y-49682702D01*
X64237500Y-49948184D01*
X64220233Y-50011304D01*
X64185754Y-50069605D01*
X64185754Y-50069606D01*
X64139902Y-50227426D01*
X64139901Y-50227432D01*
X64137000Y-50264298D01*
X64137000Y-50968500D01*
X64117315Y-51035539D01*
X64064511Y-51081294D01*
X64013000Y-51092500D01*
X63861500Y-51092500D01*
X63794461Y-51072815D01*
X63748706Y-51020011D01*
X63737500Y-50968500D01*
X63737500Y-49682703D01*
X63735003Y-49682900D01*
X63577306Y-49728716D01*
X63577303Y-49728717D01*
X63435947Y-49812314D01*
X63435938Y-49812321D01*
X63361681Y-49886579D01*
X63300358Y-49920064D01*
X63230666Y-49915080D01*
X63174733Y-49873208D01*
X63150316Y-49807744D01*
X63150000Y-49798898D01*
X63150000Y-49315000D01*
X61124379Y-49315000D01*
X61057340Y-49295315D01*
X61011585Y-49242511D01*
X61001021Y-49178397D01*
X61007499Y-49114986D01*
X61007500Y-49114973D01*
X61007500Y-48665000D01*
X59253382Y-48665000D01*
X59292056Y-48571631D01*
X59312677Y-48415000D01*
X59292056Y-48258369D01*
X59253382Y-48165000D01*
X61007499Y-48165000D01*
X61007499Y-47715028D01*
X61007498Y-47715013D01*
X61002042Y-47661602D01*
X61014812Y-47592909D01*
X61062692Y-47542025D01*
X61125400Y-47525000D01*
X64188000Y-47525000D01*
X64255039Y-47544685D01*
G37*
%TD.AperFunction*%
%TD*%
%TA.AperFunction,Conductor*%
%TO.N,+3.3VADC*%
G36*
X72818039Y-50144685D02*
G01*
X72863794Y-50197489D01*
X72875000Y-50249000D01*
X72875000Y-50625000D01*
X74501000Y-50625000D01*
X74568039Y-50644685D01*
X74613794Y-50697489D01*
X74625000Y-50749000D01*
X74625000Y-52125000D01*
X74693590Y-52125000D01*
X74760629Y-52144685D01*
X74806384Y-52197489D01*
X74817540Y-52245496D01*
X74855160Y-53576318D01*
X74837378Y-53643887D01*
X74785888Y-53691116D01*
X74718607Y-53703180D01*
X74687486Y-53700000D01*
X74600000Y-53700000D01*
X74600000Y-54851000D01*
X74580315Y-54918039D01*
X74527511Y-54963794D01*
X74476000Y-54975000D01*
X73312501Y-54975000D01*
X73312501Y-55049986D01*
X73318980Y-55113398D01*
X73306211Y-55182090D01*
X73258330Y-55232975D01*
X73195622Y-55250000D01*
X72049000Y-55250000D01*
X71981961Y-55230315D01*
X71936206Y-55177511D01*
X71925000Y-55126000D01*
X71925000Y-54475000D01*
X73312500Y-54475000D01*
X74100000Y-54475000D01*
X74100000Y-53700000D01*
X74099999Y-53699999D01*
X74012528Y-53700000D01*
X74012511Y-53700001D01*
X73909802Y-53710494D01*
X73743380Y-53765641D01*
X73743375Y-53765643D01*
X73594154Y-53857684D01*
X73470184Y-53981654D01*
X73378143Y-54130875D01*
X73378141Y-54130880D01*
X73322994Y-54297302D01*
X73322993Y-54297309D01*
X73312500Y-54400013D01*
X73312500Y-54475000D01*
X71925000Y-54475000D01*
X71925000Y-51521740D01*
X71943460Y-51456645D01*
X71997314Y-51369334D01*
X72052499Y-51202797D01*
X72060447Y-51125000D01*
X72875000Y-51125000D01*
X72875000Y-51672844D01*
X72881401Y-51732372D01*
X72881403Y-51732379D01*
X72931645Y-51867086D01*
X72931649Y-51867093D01*
X73017809Y-51982187D01*
X73017812Y-51982190D01*
X73132906Y-52068350D01*
X73132913Y-52068354D01*
X73267620Y-52118596D01*
X73267627Y-52118598D01*
X73327155Y-52124999D01*
X73327172Y-52125000D01*
X74125000Y-52125000D01*
X74125000Y-51125000D01*
X72875000Y-51125000D01*
X72060447Y-51125000D01*
X72063000Y-51100009D01*
X72062999Y-50449992D01*
X72052499Y-50347203D01*
X72032881Y-50288002D01*
X72030480Y-50218177D01*
X72066211Y-50158134D01*
X72128731Y-50126941D01*
X72150588Y-50125000D01*
X72751000Y-50125000D01*
X72818039Y-50144685D01*
G37*
%TD.AperFunction*%
%TD*%
M02*
