M48
; DRILL file {KiCad 7.0.10} date Wed May 21 01:52:56 2025
; FORMAT={-:-/ absolute / inch / decimal}
; #@! TF.CreationDate,2025-05-21T01:52:56+02:00
; #@! TF.GenerationSoftware,Kicad,Pcbnew,7.0.10
; #@! TF.FileFunction,Plated,1,4,PTH
FMAT,2
INCH
; #@! TA.AperFunction,Plated,PTH,ViaDrill
T1C0.0157
; #@! TA.AperFunction,Plated,PTH,ComponentDrill
T2C0.0295
; #@! TA.AperFunction,Plated,PTH,ComponentDrill
T3C0.0315
; #@! TA.AperFunction,Plated,PTH,ComponentDrill
T4C0.0394
; #@! TA.AperFunction,Plated,PTH,ComponentDrill
T5C0.0433
; #@! TA.AperFunction,Plated,PTH,ComponentDrill
T6C0.0472
; #@! TA.AperFunction,Plated,PTH,ComponentDrill
T7C0.0512
; #@! TA.AperFunction,Plated,PTH,ComponentDrill
T8C0.1260
%
G90
G05
T1
X2.1191Y-4.8346
X2.125Y-5.3652
X2.2037Y-1.6919
X2.2421Y-4.7303
X2.2421Y-5.2736
X2.2421Y-5.4636
X2.2441Y-4.935
X2.5955Y-1.9459
X2.6959Y-2.25
X2.7028Y-3.1919
X2.7411Y-1.9469
X2.7431Y-2.0453
X2.7579Y-4.0502
X2.7776Y-3.8583
X2.8071Y-4.9281
X2.8179Y-4.4213
X2.8179Y-5.3681
X2.8327Y-4.0472
X2.8356Y-3.9852
X2.8474Y-2.1073
X2.8484Y-2.063
X2.8484Y-2.1506
X2.8543Y-1.9124
X2.8622Y-4.3799
X2.8986Y-2.0886
X2.9154Y-3.7077
X2.9154Y-4.3809
X2.9577Y-4.4281
X2.9675Y-3.6565
X2.9764Y-2.3307
X2.9852Y-2.1014
X3.0305Y-5.4646
X3.0354Y-5.4144
X3.0364Y-5.2165
X3.0374Y-2.1535
X3.0571Y-5.1742
X3.0709Y-3.3012
X3.0778Y-4.876
X3.0945Y-4.9242
X3.1211Y-5.2756
X3.1211Y-5.3209
X3.123Y-3.4272
X3.124Y-4.7835
X3.1289Y-3.3012
X3.1289Y-3.4783
X3.1299Y-2.3297
X3.1614Y-3.9242
X3.1742Y-4.7372
X3.1811Y-5.4134
X3.187Y-3.3622
X3.188Y-3.4272
X3.188Y-3.4774
X3.19Y-3.3002
X3.2087Y-3.9705
X3.2156Y-4.4272
X3.251Y-1.9114
X3.2569Y-4.5945
X3.2638Y-4.3819
X3.2805Y-4.5472
X3.2904Y-4.6988
X3.312Y-5.4488
X3.3455Y-4.6516
X3.3976Y-4.6978
X3.4085Y-5.4094
X3.44Y-4.7697
X3.4478Y-5.1201
X3.4537Y-4.9262
X3.4537Y-4.9951
X3.4547Y-5.2165
X3.4626Y-5.3573
X3.4902Y-4.8159
X3.5086Y-5.0305
X3.5404Y-4.9902
X3.6624Y-3.6319
X3.6841Y-5.4921
X3.686Y-4.5492
X3.6998Y-5.2087
X3.7096Y-4.5935
X3.7195Y-3.75
X3.7303Y-5.4419
X3.7667Y-3.7451
X3.7697Y-3.8474
X3.7707Y-3.6998
X3.8356Y-3.9104
X3.8573Y-3.2648
X3.8907Y-4.1211
X3.9045Y-4.7569
X3.9065Y-5.2037
X3.9075Y-5.0079
X3.9075Y-5.0591
X3.9341Y-4.0935
X3.9528Y-3.4656
X3.9596Y-4.5935
X3.9813Y-3.0069
X3.9833Y-3.5049
X3.9833Y-3.9419
X3.9833Y-5.4094
X3.9951Y-4.6299
X4.0197Y-3.2667
X4.0276Y-3.5354
X4.0502Y-4.0207
X4.0689Y-3.5581
X4.0886Y-4.0079
X4.0886Y-4.8571
X4.1033Y-3.8996
X4.1043Y-3.6447
X4.1132Y-5.4065
X4.1171Y-3.5157
X4.1683Y-4.7618
X4.1722Y-4.997
X4.1732Y-5.2687
X4.1752Y-5.31
X4.188Y-3.7205
X4.1919Y-3.7736
X4.2195Y-5.2215
X4.2224Y-5.1033
X4.2224Y-5.1614
X4.2234Y-5.0404
X4.2234Y-5.3563
X4.2293Y-4.6575
X4.2539Y-3.5256
X4.2795Y-4.8573
X4.2894Y-3.8445
X4.2933Y-3.7175
X4.313Y-3.3612
X4.3386Y-3.0669
X4.3514Y-3.4341
X4.3543Y-3.7303
X4.3553Y-3.8258
X4.4321Y-3.0669
X4.4321Y-3.1506
X4.4941Y-5.0807
X4.497Y-4.6447
X4.5364Y-3.0669
X4.5433Y-5.1339
X4.5472Y-4.6004
X4.6791Y-3.748
X4.6988Y-3.3986
X4.7293Y-3.747
X4.7303Y-3.5797
X4.7303Y-3.6644
X4.7333Y-3.4872
X4.7362Y-3.3976
X5.9449Y-2.9656
X5.9459Y-3.0709
X5.9951Y-4.0768
X5.9961Y-3.9567
X5.999Y-2.0118
X5.999Y-2.126
X6.0305Y-5.0768
X6.0335Y-5.2028
X6.0591Y-2.9055
X6.1083Y-1.9547
X6.1093Y-3.8996
X6.1506Y-5.0197
T2
X6.2293Y-3.1785
X6.2293Y-3.2285
X6.2293Y-3.2785
X6.2549Y-2.2325
X6.2549Y-2.2825
X6.2549Y-2.3325
X6.2963Y-4.1852
X6.2963Y-4.2352
X6.2963Y-4.2852
X6.3373Y-5.3079
X6.3373Y-5.3579
X6.3373Y-5.4079
T3
X5.5669Y-3.0268
X5.5669Y-3.1268
X5.5669Y-3.2268
X5.6102Y-2.0819
X5.6102Y-2.1819
X5.6102Y-2.2819
X5.6144Y-4.0341
X5.6144Y-4.1341
X5.6144Y-4.2341
X5.6355Y-5.1563
X5.6355Y-5.2563
X5.6355Y-5.3563
X5.8669Y-3.0268
X5.8669Y-3.1268
X5.8669Y-3.2268
X5.9102Y-2.0819
X5.9102Y-2.1819
X5.9102Y-2.2819
X5.9144Y-4.0341
X5.9144Y-4.1341
X5.9144Y-4.2341
X5.9355Y-5.1563
X5.9355Y-5.2563
X5.9355Y-5.3563
T4
X2.1933Y-3.3693
X2.1933Y-3.4783
X2.1933Y-3.5874
X2.1933Y-3.6965
X2.3051Y-3.3148
X2.3051Y-3.4238
X2.3051Y-3.5329
X2.3051Y-3.6419
X2.3051Y-3.751
X2.7574Y-4.1667
X2.7574Y-4.2667
X2.8574Y-4.1667
X2.8574Y-4.2667
X2.9574Y-4.1667
X2.9574Y-4.2667
X3.0574Y-4.1667
X3.0574Y-4.2667
X3.1574Y-4.1667
X3.1574Y-4.2667
X6.813Y-2.828
X6.813Y-3.3004
X6.8199Y-1.8594
X6.8199Y-2.3319
X6.876Y-3.828
X6.876Y-4.3004
X6.8993Y-4.952
X6.8993Y-5.4244
T5
X6.4783Y-2.8238
X6.4783Y-3.2238
X6.4961Y-1.8573
X6.4961Y-2.2573
X6.56Y-3.8307
X6.56Y-4.2307
X6.5863Y-4.9457
X6.5863Y-5.3457
T6
X2.3113Y-1.9061
X2.3113Y-2.1061
X7.7005Y-1.8915
X7.7005Y-2.0915
X7.7005Y-2.2915
X7.7005Y-2.86
X7.7005Y-3.06
X7.7005Y-3.26
X7.7044Y-3.86
X7.7044Y-4.06
X7.7044Y-4.26
X7.7044Y-4.9841
X7.7044Y-5.1841
X7.7044Y-5.3841
T7
X6.7362Y-3.0622
X6.7431Y-2.0937
X6.7992Y-4.0622
X6.8225Y-5.1862
X7.2933Y-3.3004
X7.2953Y-2.826
X7.3002Y-2.3319
X7.3022Y-1.8575
X7.3563Y-4.3004
X7.3583Y-3.826
X7.3796Y-5.4244
X7.3816Y-4.95
T8
X2.2933Y-3.0407
X2.2933Y-4.025
M30
